<svg width="1690" height="879" fill="none" xmlns="http://www.w3.org/2000/svg"><g filter="url(#a)"><path d="M1776.45 884.432c-4.87 215.548-192.05 384.448-418.08 377.238-226.04-7.21-405.326-187.79-400.46-403.34 4.867-215.551 192.05-384.446 418.08-377.238 226.03 7.208 405.33 187.79 400.46 403.34z" fill="#033DAE"/></g><g filter="url(#b)"><path fill-rule="evenodd" clip-rule="evenodd" d="M1356.77 1332.4c278.82 8.89 498.1-197.46 503.7-445.29 5.59-247.834-204.07-467.855-482.88-476.747-278.82-8.891-498.102 197.452-503.697 445.286-5.595 247.831 204.067 467.851 482.877 476.751zm-.77 34.12c288.3 9.2 527.01-205.03 533.18-478.494 6.18-273.46-222.53-502.596-510.82-511.789-288.29-9.193-527.008 205.037-533.182 478.497C839.004 1128.19 1067.71 1357.33 1356 1366.52z" fill="#033DAE"/></g><g filter="url(#c)"><path d="M618.499 594.3c-3.127 145.622-123.386 259.724-268.606 254.854-145.22-4.869-260.41-126.867-257.283-272.488 3.126-145.622 123.385-259.724 268.605-254.855 145.221 4.87 260.411 126.867 257.284 272.489z" fill="url(#d)"/><path d="M618.499 594.3c-3.127 145.622-123.386 259.724-268.606 254.854-145.22-4.869-260.41-126.867-257.283-272.488 3.126-145.622 123.385-259.724 268.605-254.855 145.221 4.87 260.411 126.867 257.284 272.489z" fill="#fff" fill-opacity=".03"/></g><g filter="url(#e)" fill-rule="evenodd" clip-rule="evenodd"><path d="M348.868 896.935c179.13 6.007 320.016-133.394 323.611-300.826 3.595-167.432-131.107-316.074-310.237-322.081C183.111 268.022 42.225 407.423 38.63 574.855c-3.594 167.432 131.107 316.074 310.238 322.08zm-.495 23.056c185.221 6.21 338.588-138.519 342.554-323.263 3.967-184.744-142.969-339.544-328.19-345.755-185.221-6.211-338.588 138.519-342.555 323.263C16.216 758.98 163.151 913.78 348.373 919.991z" fill="url(#f)"/><path d="M348.868 896.935c179.13 6.007 320.016-133.394 323.611-300.826 3.595-167.432-131.107-316.074-310.237-322.081C183.111 268.022 42.225 407.423 38.63 574.855c-3.594 167.432 131.107 316.074 310.238 322.08zm-.495 23.056c185.221 6.21 338.588-138.519 342.554-323.263 3.967-184.744-142.969-339.544-328.19-345.755-185.221-6.211-338.588 138.519-342.555 323.263C16.216 758.98 163.151 913.78 348.373 919.991z" fill="#fff" fill-opacity=".03"/></g><g filter="url(#g)"><path d="M2050.32 344.303c-3.1 137.302-122.33 244.885-266.31 240.294-143.98-4.591-258.18-119.619-255.08-256.92 3.1-137.302 122.33-244.885 266.31-240.294 143.98 4.591 258.18 119.618 255.08 256.92z" fill="#0E49B4"/></g><g filter="url(#h)"><path fill-rule="evenodd" clip-rule="evenodd" d="M1783 629.648c177.6 5.663 317.28-125.773 320.84-283.639 3.57-157.866-129.98-298.016-307.58-303.679-177.6-5.663-317.29 125.773-320.85 283.639-3.56 157.866 129.99 298.015 307.59 303.679zm-.49 21.738c183.63 5.856 335.69-130.605 339.62-304.794 3.93-174.189-141.75-320.144-325.38-326-183.64-5.856-335.7 130.605-339.63 304.794-3.93 174.189 141.75 320.144 325.39 326z" fill="#0E49B4"/></g><defs><filter id="a" x="937.813" y="460.87" width="858.732" height="821.023" filterUnits="userSpaceOnUse" color-interpolation-filters="sRGB"><feFlood flood-opacity="0" result="BackgroundImageFix"/><feColorMatrix in="SourceAlpha" values="0 0 0 0 0 0 0 0 0 0 0 0 0 0 0 0 0 0 127 0" result="hardAlpha"/><feOffset/><feGaussianBlur stdDeviation="10"/><feComposite in2="hardAlpha" operator="out"/><feColorMatrix values="0 0 0 0 0 0 0 0 0 0.0421667 0 0 0 0 0.191667 0 0 0 0.07 0"/><feBlend in2="BackgroundImageFix" result="effect1_dropShadow_453_387"/><feBlend in="SourceGraphic" in2="effect1_dropShadow_453_387" result="shape"/></filter><filter id="b" x="825.056" y="355.952" width="1084.25" height="1030.86" filterUnits="userSpaceOnUse" color-interpolation-filters="sRGB"><feFlood flood-opacity="0" result="BackgroundImageFix"/><feColorMatrix in="SourceAlpha" values="0 0 0 0 0 0 0 0 0 0 0 0 0 0 0 0 0 0 127 0" result="hardAlpha"/><feOffset/><feGaussianBlur stdDeviation="10"/><feComposite in2="hardAlpha" operator="out"/><feColorMatrix values="0 0 0 0 0 0 0 0 0 0.0421667 0 0 0 0 0.191667 0 0 0 0.07 0"/><feBlend in2="BackgroundImageFix" result="effect1_dropShadow_453_387"/><feBlend in="SourceGraphic" in2="effect1_dropShadow_453_387" result="shape"/></filter><filter id="c" x="72.547" y="301.661" width="566.014" height="567.644" filterUnits="userSpaceOnUse" color-interpolation-filters="sRGB"><feFlood flood-opacity="0" result="BackgroundImageFix"/><feColorMatrix in="SourceAlpha" values="0 0 0 0 0 0 0 0 0 0 0 0 0 0 0 0 0 0 127 0" result="hardAlpha"/><feOffset/><feGaussianBlur stdDeviation="10"/><feComposite in2="hardAlpha" operator="out"/><feColorMatrix values="0 0 0 0 0 0 0 0 0 0.0421667 0 0 0 0 0.191667 0 0 0 0.07 0"/><feBlend in2="BackgroundImageFix" result="effect1_dropShadow_453_387"/><feBlend in="SourceGraphic" in2="effect1_dropShadow_453_387" result="shape"/></filter><filter id="e" x=".104" y="230.781" width="710.902" height="709.403" filterUnits="userSpaceOnUse" color-interpolation-filters="sRGB"><feFlood flood-opacity="0" result="BackgroundImageFix"/><feColorMatrix in="SourceAlpha" values="0 0 0 0 0 0 0 0 0 0 0 0 0 0 0 0 0 0 127 0" result="hardAlpha"/><feOffset/><feGaussianBlur stdDeviation="10"/><feComposite in2="hardAlpha" operator="out"/><feColorMatrix values="0 0 0 0 0 0 0 0 0 0.0421667 0 0 0 0 0.191667 0 0 0 0.07 0"/><feBlend in2="BackgroundImageFix" result="effect1_dropShadow_453_387"/><feBlend in="SourceGraphic" in2="effect1_dropShadow_453_387" result="shape"/></filter><filter id="g" x="1508.87" y="67.241" width="561.518" height="537.497" filterUnits="userSpaceOnUse" color-interpolation-filters="sRGB"><feFlood flood-opacity="0" result="BackgroundImageFix"/><feColorMatrix in="SourceAlpha" values="0 0 0 0 0 0 0 0 0 0 0 0 0 0 0 0 0 0 127 0" result="hardAlpha"/><feOffset/><feGaussianBlur stdDeviation="10"/><feComposite in2="hardAlpha" operator="out"/><feColorMatrix values="0 0 0 0 0 0 0 0 0 0.0421667 0 0 0 0 0.191667 0 0 0 0.07 0"/><feBlend in2="BackgroundImageFix" result="effect1_dropShadow_453_387"/><feBlend in="SourceGraphic" in2="effect1_dropShadow_453_387" result="shape"/></filter><filter id="h" x="1437.04" y=".41" width="705.168" height="671.157" filterUnits="userSpaceOnUse" color-interpolation-filters="sRGB"><feFlood flood-opacity="0" result="BackgroundImageFix"/><feColorMatrix in="SourceAlpha" values="0 0 0 0 0 0 0 0 0 0 0 0 0 0 0 0 0 0 127 0" result="hardAlpha"/><feOffset/><feGaussianBlur stdDeviation="10"/><feComposite in2="hardAlpha" operator="out"/><feColorMatrix values="0 0 0 0 0 0 0 0 0 0.0421667 0 0 0 0 0.191667 0 0 0 0.07 0"/><feBlend in2="BackgroundImageFix" result="effect1_dropShadow_453_387"/><feBlend in="SourceGraphic" in2="effect1_dropShadow_453_387" result="shape"/></filter><linearGradient id="d" x1="361.215" y1="321.811" x2="343.54" y2="848.941" gradientUnits="userSpaceOnUse"><stop stop-color="#1C59BF"/><stop offset="1" stop-color="#013BAB"/></linearGradient><linearGradient id="f" x1="362.737" y1="250.973" x2="340.312" y2="919.72" gradientUnits="userSpaceOnUse"><stop stop-color="#1C59BF"/><stop offset="1" stop-color="#013BAB"/></linearGradient></defs></svg>