<svg width="360" height="1266" fill="none" xmlns="http://www.w3.org/2000/svg"><g filter="url(#a)"><path d="M624.827 989.331c-2.555 114.309-100.833 203.879-219.51 200.059-118.677-3.83-212.812-99.59-210.257-213.901 2.555-114.31 100.833-203.877 219.51-200.055 118.677 3.823 212.812 99.588 210.257 213.897z" fill="#033DAE"/></g><g filter="url(#b)"><path fill-rule="evenodd" clip-rule="evenodd" d="M404.479 1226.89c146.389 4.72 261.524-104.71 264.461-236.139 2.938-131.43-107.142-248.11-253.531-252.825-146.389-4.716-261.524 104.711-264.462 236.141C148.01 1105.5 258.09 1222.18 404.479 1226.89zm-.404 18.1c151.366 4.88 276.7-108.73 279.942-253.753 3.241-145.02-116.837-266.534-268.204-271.409-151.366-4.876-276.701 108.734-279.942 253.753-3.242 145.019 116.837 266.529 268.204 271.409z" fill="#033DAE"/></g><g filter="url(#c)"><path d="M106.52 602.208c-1.826 79.35-72.039 141.525-156.825 138.872-84.787-2.654-152.04-69.131-150.215-148.481 1.826-79.35 72.039-141.524 156.825-138.871 84.787 2.654 152.04 69.131 150.215 148.48z" fill="url(#d)"/><path d="M106.52 602.208c-1.826 79.35-72.039 141.525-156.825 138.872-84.787-2.654-152.04-69.131-150.215-148.481 1.826-79.35 72.039-141.524 156.825-138.871 84.787 2.654 152.04 69.131 150.215 148.48z" fill="#fff" fill-opacity=".03"/></g><g filter="url(#e)" fill-rule="evenodd" clip-rule="evenodd"><path d="M-50.904 767.116c104.585 3.273 186.841-72.687 188.94-163.922 2.099-91.234-76.547-172.23-181.132-175.503-104.585-3.273-186.841 72.687-188.94 163.921-2.099 91.235 76.547 172.231 181.132 175.504zm-.29 12.563c108.142 3.384 197.685-75.48 200.001-176.148 2.316-100.668-83.473-185.019-191.614-188.403-108.141-3.384-197.684 75.479-200 176.147-2.316 100.668 83.473 185.019 191.614 188.404z" fill="url(#f)"/><path d="M-50.904 767.116c104.585 3.273 186.841-72.687 188.94-163.922 2.099-91.234-76.547-172.23-181.132-175.503-104.585-3.273-186.841 72.687-188.94 163.921-2.099 91.235 76.547 172.231 181.132 175.504zm-.29 12.563c108.142 3.384 197.685-75.48 200.001-176.148 2.316-100.668-83.473-185.019-191.614-188.403-108.141-3.384-197.684 75.479-200 176.147-2.316 100.668 83.473 185.019 191.614 188.404z" fill="#fff" fill-opacity=".03"/></g><g filter="url(#g)"><path d="M466.14 152.387c-1.266 56.014-49.952 99.903-108.744 98.03-58.791-1.873-105.425-48.799-104.159-104.813 1.266-56.014 49.952-99.903 108.743-98.03 58.792 1.873 105.425 48.8 104.16 104.813z" fill="#0E49B4"/></g><g filter="url(#h)"><path fill-rule="evenodd" clip-rule="evenodd" d="M356.981 268.796c72.52 2.311 129.557-51.31 131.012-115.713 1.455-64.403-53.078-121.578-125.597-123.889-72.52-2.31-129.557 51.31-131.012 115.713-1.456 64.403 53.077 121.579 125.597 123.889zm-.2 8.868c74.985 2.389 137.075-53.281 138.681-124.343 1.606-71.062-57.88-130.606-132.866-132.995-74.985-2.39-137.075 53.281-138.681 124.343-1.606 71.062 57.88 130.606 132.866 132.995z" fill="#0E49B4"/></g><defs><filter id="a" x="175.009" y="755.316" width="469.868" height="454.187" filterUnits="userSpaceOnUse" color-interpolation-filters="sRGB"><feFlood flood-opacity="0" result="BackgroundImageFix"/><feColorMatrix in="SourceAlpha" values="0 0 0 0 0 0 0 0 0 0 0 0 0 0 0 0 0 0 127 0" result="hardAlpha"/><feOffset/><feGaussianBlur stdDeviation="10"/><feComposite in2="hardAlpha" operator="out"/><feColorMatrix values="0 0 0 0 0 0 0 0 0 0.0421667 0 0 0 0 0.191667 0 0 0 0.07 0"/><feBlend in2="BackgroundImageFix" result="effect1_dropShadow_840_2974"/><feBlend in="SourceGraphic" in2="effect1_dropShadow_840_2974" result="shape"/></filter><filter id="b" x="115.807" y="699.677" width="588.274" height="565.465" filterUnits="userSpaceOnUse" color-interpolation-filters="sRGB"><feFlood flood-opacity="0" result="BackgroundImageFix"/><feColorMatrix in="SourceAlpha" values="0 0 0 0 0 0 0 0 0 0 0 0 0 0 0 0 0 0 127 0" result="hardAlpha"/><feOffset/><feGaussianBlur stdDeviation="10"/><feComposite in2="hardAlpha" operator="out"/><feColorMatrix values="0 0 0 0 0 0 0 0 0 0.0421667 0 0 0 0 0.191667 0 0 0 0.07 0"/><feBlend in2="BackgroundImageFix" result="effect1_dropShadow_840_2974"/><feBlend in="SourceGraphic" in2="effect1_dropShadow_840_2974" result="shape"/></filter><filter id="c" x="-220.556" y="433.646" width="347.112" height="327.515" filterUnits="userSpaceOnUse" color-interpolation-filters="sRGB"><feFlood flood-opacity="0" result="BackgroundImageFix"/><feColorMatrix in="SourceAlpha" values="0 0 0 0 0 0 0 0 0 0 0 0 0 0 0 0 0 0 127 0" result="hardAlpha"/><feOffset/><feGaussianBlur stdDeviation="10"/><feComposite in2="hardAlpha" operator="out"/><feColorMatrix values="0 0 0 0 0 0 0 0 0 0.0421667 0 0 0 0 0.191667 0 0 0 0.07 0"/><feBlend in2="BackgroundImageFix" result="effect1_dropShadow_840_2974"/><feBlend in="SourceGraphic" in2="effect1_dropShadow_840_2974" result="shape"/></filter><filter id="e" x="-262.853" y="395.023" width="431.705" height="404.761" filterUnits="userSpaceOnUse" color-interpolation-filters="sRGB"><feFlood flood-opacity="0" result="BackgroundImageFix"/><feColorMatrix in="SourceAlpha" values="0 0 0 0 0 0 0 0 0 0 0 0 0 0 0 0 0 0 127 0" result="hardAlpha"/><feOffset/><feGaussianBlur stdDeviation="10"/><feComposite in2="hardAlpha" operator="out"/><feColorMatrix values="0 0 0 0 0 0 0 0 0 0.0421667 0 0 0 0 0.191667 0 0 0 0.07 0"/><feBlend in2="BackgroundImageFix" result="effect1_dropShadow_840_2974"/><feBlend in="SourceGraphic" in2="effect1_dropShadow_840_2974" result="shape"/></filter><filter id="g" x="233.212" y="27.516" width="252.953" height="242.959" filterUnits="userSpaceOnUse" color-interpolation-filters="sRGB"><feFlood flood-opacity="0" result="BackgroundImageFix"/><feColorMatrix in="SourceAlpha" values="0 0 0 0 0 0 0 0 0 0 0 0 0 0 0 0 0 0 127 0" result="hardAlpha"/><feOffset/><feGaussianBlur stdDeviation="10"/><feComposite in2="hardAlpha" operator="out"/><feColorMatrix values="0 0 0 0 0 0 0 0 0 0.0421667 0 0 0 0 0.191667 0 0 0 0.07 0"/><feBlend in2="BackgroundImageFix" result="effect1_dropShadow_840_2974"/><feBlend in="SourceGraphic" in2="effect1_dropShadow_840_2974" result="shape"/></filter><filter id="h" x="203.883" y=".252" width="311.61" height="297.487" filterUnits="userSpaceOnUse" color-interpolation-filters="sRGB"><feFlood flood-opacity="0" result="BackgroundImageFix"/><feColorMatrix in="SourceAlpha" values="0 0 0 0 0 0 0 0 0 0 0 0 0 0 0 0 0 0 127 0" result="hardAlpha"/><feOffset/><feGaussianBlur stdDeviation="10"/><feComposite in2="hardAlpha" operator="out"/><feColorMatrix values="0 0 0 0 0 0 0 0 0 0.0421667 0 0 0 0 0.191667 0 0 0 0.07 0"/><feBlend in2="BackgroundImageFix" result="effect1_dropShadow_840_2974"/><feBlend in="SourceGraphic" in2="effect1_dropShadow_840_2974" result="shape"/></filter><linearGradient id="d" x1="-43.695" y1="453.728" x2="-52.685" y2="741.005" gradientUnits="userSpaceOnUse"><stop stop-color="#1C59BF"/><stop offset="1" stop-color="#013BAB"/></linearGradient><linearGradient id="f" x1="-42.807" y1="415.128" x2="-54.213" y2="779.584" gradientUnits="userSpaceOnUse"><stop stop-color="#1C59BF"/><stop offset="1" stop-color="#013BAB"/></linearGradient></defs></svg>