<svg width="150" height="150" fill="none" xmlns="http://www.w3.org/2000/svg"><g clip-path="url(#a)"><path d="M150 20.432c0-11.02-8.914-19.963-19.934-20l-110-.365C8.995.03 0 8.995 0 20.067V130c0 11.046 8.954 20 20 20h110c11.046 0 20-8.954 20-20V20.432z" fill="#4E91E4" fill-opacity=".1"/><path d="M120 41h30v89c0 11.046-8.954 20-20 20h-10V41zM60 85a2 2 0 0 1 2-2h28v67H60V85zM90 15a2 2 0 0 1 2-2h26a2 2 0 0 1 2 2v135H90V15z" fill="#C0CCE2"/><path d="M146 142H-4l2.118 2.123A19.997 19.997 0 0 0 12.278 150H129.99a20 20 0 0 0 15.633-7.526L146 142z" fill="#4DA046"/><path fill="#EEF6FF" fill-opacity=".95" d="M123 44h6v4h-6z"/><path fill="#EEF6FF" fill-opacity=".5" d="M123 58h6v4h-6z"/><path fill="#EEF6FF" fill-opacity=".95" d="M123 72h6v4h-6z"/><path fill="#EEF6FF" fill-opacity=".5" d="M123 86h6v4h-6zM123 100h6v4h-6z"/><path fill="#EEF6FF" fill-opacity=".95" d="M123 114h6v4h-6zM123 128h6v4h-6zM123 135h6v4h-6zM123 51h4v4h-4zM123 65h4v4h-4z"/><path fill="#EEF6FF" fill-opacity=".5" d="M123 79h4v4h-4z"/><path fill="#EEF6FF" fill-opacity=".95" d="M123 93h4v4h-4zM123 107h4v4h-4zM123 121h4v4h-4z"/><path fill="#EEF6FF" fill-opacity=".5" d="M132 44h6v4h-6z"/><path fill="#EEF6FF" fill-opacity=".95" d="M132 58h6v4h-6z"/><path fill="#EEF6FF" fill-opacity=".5" d="M132 72h6v4h-6z"/><path fill="#EEF6FF" fill-opacity=".95" d="M132 86h6v4h-6z"/><path fill="#EEF6FF" fill-opacity=".5" d="M132 100h6v4h-6z"/><path fill="#EEF6FF" fill-opacity=".95" d="M132 114h6v4h-6zM132 128h6v4h-6z"/><path fill="#EEF6FF" fill-opacity=".5" d="M132 135h6v4h-6z"/><path fill="#EEF6FF" fill-opacity=".95" d="M130 51h10v4h-10zM130 65h10v4h-10zM130 79h10v4h-10zM130 93h10v4h-10z"/><path fill="#EEF6FF" fill-opacity=".5" d="M130 107h10v4h-10zM130 121h10v4h-10z"/><path fill="#EEF6FF" fill-opacity=".95" d="M141 44h6v4h-6z"/><path fill="#EEF6FF" fill-opacity=".5" d="M141 58h6v4h-6z"/><path fill="#EEF6FF" fill-opacity=".95" d="M141 72h6v4h-6z"/><path fill="#EEF6FF" fill-opacity=".5" d="M141 86h6v4h-6z"/><path fill="#EEF6FF" fill-opacity=".95" d="M141 100h6v4h-6z"/><path fill="#EEF6FF" fill-opacity=".5" d="M141 114h6v4h-6zM141 128h6v4h-6z"/><path fill="#EEF6FF" fill-opacity=".95" d="M143 51h4v4h-4zM143 65h4v4h-4zM143 79h4v4h-4zM143 93h4v4h-4zM143 107h4v4h-4zM143 121h4v4h-4zM93 16h6v4h-6z"/><path fill="#EEF6FF" fill-opacity=".5" d="M93 30h6v4h-6z"/><path fill="#EEF6FF" fill-opacity=".95" d="M93 44h6v4h-6z"/><path fill="#EEF6FF" fill-opacity=".5" d="M93 58h6v4h-6zM93 72h6v4h-6z"/><path fill="#EEF6FF" fill-opacity=".95" d="M93 86h6v4h-6zM93 100h6v4h-6z"/><path fill="#EEF6FF" fill-opacity=".5" d="M93 114h6v4h-6z"/><path fill="#EEF6FF" fill-opacity=".95" d="M93 128h6v4h-6zM93 23h4v4h-4zM93 37h4v4h-4z"/><path fill="#EEF6FF" fill-opacity=".5" d="M93 51h4v4h-4z"/><path fill="#EEF6FF" fill-opacity=".95" d="M93 65h4v4h-4zM93 79h4v4h-4zM93 93h4v4h-4zM93 107h4v4h-4zM93 121h4v4h-4z"/><path fill="#EEF6FF" fill-opacity=".5" d="M93 135h4v4h-4zM102 16h6v4h-6z"/><path fill="#EEF6FF" fill-opacity=".95" d="M102 30h6v4h-6z"/><path fill="#EEF6FF" fill-opacity=".5" d="M102 44h6v4h-6z"/><path fill="#EEF6FF" fill-opacity=".95" d="M102 58h6v4h-6z"/><path fill="#EEF6FF" fill-opacity=".5" d="M102 72h6v4h-6z"/><path fill="#EEF6FF" fill-opacity=".95" d="M102 86h6v4h-6zM102 100h6v4h-6zM102 114h6v4h-6zM102 128h6v4h-6zM100 23h10v4h-10zM100 37h10v4h-10zM100 51h10v4h-10zM100 65h10v4h-10z"/><path fill="#EEF6FF" fill-opacity=".5" d="M100 79h10v4h-10zM100 93h10v4h-10z"/><path fill="#EEF6FF" fill-opacity=".95" d="M100 107h10v4h-10z"/><path fill="#EEF6FF" fill-opacity=".5" d="M100 121h10v4h-10z"/><path fill="#EEF6FF" fill-opacity=".95" d="M100 135h10v4h-10zM111 16h6v4h-6z"/><path fill="#EEF6FF" fill-opacity=".5" d="M111 30h6v4h-6z"/><path fill="#EEF6FF" fill-opacity=".95" d="M111 44h6v4h-6z"/><path fill="#EEF6FF" fill-opacity=".5" d="M111 58h6v4h-6z"/><path fill="#EEF6FF" fill-opacity=".95" d="M111 72h6v4h-6z"/><path fill="#EEF6FF" fill-opacity=".5" d="M111 86h6v4h-6zM111 100h6v4h-6z"/><path fill="#EEF6FF" fill-opacity=".95" d="M111 114h6v4h-6z"/><path fill="#EEF6FF" fill-opacity=".5" d="M111 128h6v4h-6z"/><path fill="#EEF6FF" fill-opacity=".95" d="M113 23h4v4h-4zM113 37h4v4h-4zM113 51h4v4h-4zM113 65h4v4h-4zM113 79h4v4h-4zM113 93h4v4h-4zM113 107h4v4h-4zM113 121h4v4h-4zM113 135h4v4h-4zM63 86h6v4h-6z"/><path fill="#EEF6FF" fill-opacity=".5" d="M63 100h6v4h-6z"/><path fill="#EEF6FF" fill-opacity=".95" d="M63 114h6v4h-6z"/><path fill="#EEF6FF" fill-opacity=".5" d="M63 128h6v4h-6z"/><path fill="#EEF6FF" fill-opacity=".95" d="M63 93h4v4h-4zM63 107h4v4h-4z"/><path fill="#EEF6FF" fill-opacity=".5" d="M63 121h4v4h-4z"/><path fill="#EEF6FF" fill-opacity=".95" d="M63 135h4v4h-4z"/><path fill="#EEF6FF" fill-opacity=".5" d="M72 86h6v4h-6z"/><path fill="#EEF6FF" fill-opacity=".95" d="M72 100h6v4h-6z"/><path fill="#EEF6FF" fill-opacity=".5" d="M72 114h6v4h-6z"/><path fill="#EEF6FF" fill-opacity=".95" d="M72 128h6v4h-6zM70 93h10v4H70zM70 107h10v4H70zM70 121h10v4H70zM70 135h10v4H70zM81 86h6v4h-6z"/><path fill="#EEF6FF" fill-opacity=".5" d="M81 100h6v4h-6z"/><path fill="#EEF6FF" fill-opacity=".95" d="M81 114h6v4h-6z"/><path fill="#EEF6FF" fill-opacity=".5" d="M81 128h6v4h-6z"/><path fill="#EEF6FF" fill-opacity=".95" d="M83 93h4v4h-4zM83 107h4v4h-4zM83 121h4v4h-4zM83 135h4v4h-4z"/><path fill="#654321" d="M58 126h2v18h-2z"/><path d="m65 117-2 11.5-3.5 2-5-2.5 4.5-9.5" stroke="#654321" stroke-width=".8" stroke-linecap="round" stroke-linejoin="round"/><path d="M49.509 108.931c0 1.21-1.642 2.883-1.5 4 .158 1.247 2.865 4.923 3.175 6 .385 1.336 1.755.52 2.33 1.5 1.1 1.876-2.108 4-.583 4 1.525 0 6.978 2.876 8.078 1 .574-.98 3.115.336 3.5-1 .31-1.077 3.841-2.253 4-3.5.142-1.117 1.5-5.29 1.5-6.5 0-1.211-1.358-7.884-1.5-9-.183-1.443-1.616-3.791-2-5-.482-1.518-2.588-5.002-3.314-6-1.005-1.381-4.9 1-6.188 1-1.289 0-3.071 1.119-4.076 2.5-.684.94-2.953 1.594-3.422 3-.427 1.276.707 4.451.51 6-.141 1.116-.51.789-.51 2z" fill="#3B8535"/><path d="M48.509 109.931c0 1.21-1.642 2.883-1.5 4 .158 1.247 2.865 4.923 3.175 6 .385 1.336 1.755.52 2.33 1.5 1.1 1.876-2.108 4-.583 4 1.525 0 6.978 2.876 8.078 1 .574-.98 3.114.336 3.5-1 .31-1.077 3.841-2.253 4-3.5.142-1.117 1.5-5.29 1.5-6.5 0-1.211-1.358-7.884-1.5-9-.183-1.443-1.616-3.791-2-5-.482-1.518-2.588-5.002-3.314-6-1.005-1.381-4.9 1-6.188 1-1.289 0-3.071 1.119-4.076 2.5-.684.94-2.953 1.595-3.422 3-.427 1.276.707 4.451.51 6-.141 1.116-.51.789-.51 2z" fill="#4DA046"/><path fill="#654321" d="M3.123 117h3v29h-3z"/><path d="M.184 117.424 1.09 117l2.094 4.5v2.5l-3-6.576zM9.981 113.946l.933.36L6.123 127v-3l3.858-10.054z" fill="#654321"/><path d="M21.714 102.25c0 1.554.339 2.812 0 4.25-.288 1.222-.802 1.393-1.307 2.5-.617 1.356-.887 3.865-1.784 5-1.015 1.284-3.194.571-4.5 1.5-1.23.875-1.573 2.505-3 3-1.578.546-3.757 1.5-5.5 1.5-1.743 0-3.423-1.454-5-2-1.428-.495-3.27.875-4.5 0-1.307-.929-1.485-3.716-2.5-5-.898-1.135-2.383-1.144-3-2.5-.505-1.107.5-3-.98-4-1.02-1-.52-2.946-.52-4.5 0-1.375-.268-1.714 0-3 .291-1.403.427-4.743 1-6 .617-1.356 2.602-1.615 3.5-2.75 1.015-1.284 1.193-2.82 2.5-3.75 1.23-.875 3.072-.505 4.5-1 1.577-.546 3.257-1.5 5-1.5 1.743 0 3.422.954 5 1.5 1.427.495 2.77-.375 4 .5 1.306.93 3.485 2.216 4.5 3.5.897 1.135-.118 3.144.5 4.5.572 1.257 1.799 2.597 2.09 4 .268 1.286 0 2.875 0 4.25z" fill="#3B8535"/><path d="M21.98 102.743c0 1.511.32 2.734 0 4.132-.272 1.188-.756 1.354-1.232 2.431-.582 1.318-.837 3.757-1.684 4.861-.957 1.248-3.012.554-4.244 1.458-1.16.85-1.484 2.436-2.83 2.917-1.488.531-3.544 1.458-5.188 1.458-1.644 0-3.229-1.413-4.716-1.944-1.347-.481-3.085.85-4.245 0-1.232-.904-1.4-3.613-2.358-4.862-.847-1.103-2.247-1.112-2.83-2.43-.476-1.076.472-2.917-.924-3.889-.962-.972-.49-2.864-.49-4.375 0-1.337-.253-1.666 0-2.917.274-1.363.402-4.61.942-5.833.583-1.318 2.455-1.57 3.302-2.674.957-1.248 1.126-2.742 2.358-3.645 1.16-.85 2.898-.492 4.245-.973C3.573 85.928 5.158 85 6.802 85c1.644 0 3.229.927 4.716 1.458 1.347.481 2.614-.364 3.773.486 1.233.904 3.288 2.155 4.245 3.403.847 1.104-.11 3.057.472 4.375.54 1.222 1.697 2.526 1.972 3.89.253 1.25 0 2.794 0 4.131z" fill="#4DA046"/><path fill="#654321" d="M137.123 115h3v29h-3z"/><path d="m134.184 115.424.906-.424 2.094 4.5v2.5l-3-6.576zM143.981 111.946l.933.36L140.123 125v-3l3.858-10.054z" fill="#654321"/><path d="M155.714 100.25c0 1.554.339 2.812 0 4.25-.289 1.222-.802 1.393-1.307 2.5-.617 1.356-.887 3.865-1.784 5-1.015 1.284-3.194.571-4.5 1.5-1.23.875-1.573 2.505-3 3-1.578.546-3.757 1.5-5.5 1.5-1.743 0-3.423-1.454-5-2-1.428-.495-3.271.875-4.5 0-1.307-.929-1.485-3.716-2.5-5-.898-1.135-2.383-1.144-3-2.5-.505-1.107.5-3-.981-4-1.019-1-.519-2.946-.519-4.5 0-1.375-.268-1.714 0-3 .291-1.403.427-4.743 1-6 .617-1.356 2.602-1.615 3.5-2.75 1.015-1.284 1.193-2.82 2.5-3.75 1.229-.875 3.072-.505 4.5-1 1.577-.546 3.257-1.5 5-1.5 1.743 0 3.422.954 5 1.5 1.427.495 2.77-.375 4 .5 1.306.93 3.485 2.216 4.5 3.5.897 1.135-.118 3.144.5 4.5.572 1.257 1.799 2.597 2.091 4 .267 1.286 0 2.875 0 4.25z" fill="#3B8535"/><path d="M155.98 100.743c0 1.511.32 2.734 0 4.132-.272 1.188-.756 1.354-1.232 2.431-.582 1.318-.837 3.757-1.683 4.861-.958 1.248-3.013.554-4.245 1.458-1.16.85-1.484 2.436-2.83 2.917-1.488.531-3.544 1.458-5.188 1.458-1.644 0-3.229-1.413-4.716-1.944-1.347-.481-3.085.85-4.245 0-1.232-.904-1.401-3.613-2.358-4.862-.847-1.103-2.247-1.112-2.83-2.43-.476-1.076.472-2.917-.925-3.889-.961-.972-.49-2.864-.49-4.375 0-1.337-.252-1.666 0-2.917.275-1.363.403-4.61.943-5.833.583-1.318 2.455-1.57 3.302-2.674.957-1.248 1.126-2.742 2.358-3.645 1.16-.85 2.898-.492 4.245-.973 1.487-.53 3.072-1.458 4.716-1.458 1.644 0 3.229.927 4.716 1.458 1.347.481 2.614-.364 3.773.486 1.233.904 3.288 2.155 4.245 3.403.847 1.104-.111 3.057.472 4.375.54 1.222 1.697 2.526 1.972 3.89.253 1.25 0 2.794 0 4.131z" fill="#4DA046"/><path d="M59.234 30.192a5.854 5.854 0 0 1 1.656-3.478 5.754 5.754 0 0 1 7.178-.821 5.828 5.828 0 0 1 2.387 3.015 3.85 3.85 0 0 1 2.577 1.3 3.909 3.909 0 0 1-.22 5.385 3.845 3.845 0 0 1-2.675 1.083H59.199a3.205 3.205 0 0 1-2.269-.962 3.255 3.255 0 0 1-.93-2.298c.005-.86.348-1.682.955-2.287a3.204 3.204 0 0 1 2.28-.937zM14.234 24.192a5.854 5.854 0 0 1 1.656-3.478 5.754 5.754 0 0 1 7.178-.821 5.828 5.828 0 0 1 2.387 3.015 3.85 3.85 0 0 1 2.577 1.3 3.909 3.909 0 0 1-.22 5.385 3.845 3.845 0 0 1-2.675 1.083H14.199a3.205 3.205 0 0 1-2.269-.962 3.255 3.255 0 0 1-.93-2.298c.005-.86.348-1.682.954-2.287a3.204 3.204 0 0 1 2.28-.937zM25.558 58.528a11.87 11.87 0 0 1 3.357-7.052 11.669 11.669 0 0 1 14.556-1.665 11.817 11.817 0 0 1 4.84 6.114 7.806 7.806 0 0 1 5.226 2.637 7.926 7.926 0 0 1 1.956 5.55 7.916 7.916 0 0 1-2.403 5.369 7.796 7.796 0 0 1-5.424 2.195H25.488a6.498 6.498 0 0 1-4.602-1.95A6.6 6.6 0 0 1 19 65.065a6.599 6.599 0 0 1 1.936-4.638 6.497 6.497 0 0 1 4.622-1.9z" fill="#E8F1F6"/><path d="M11 141a1 1 0 0 1 1-1h40a1 1 0 0 1 1 1v2a1 1 0 0 1-1 1H12a1 1 0 0 1-1-1v-2z" fill="#F1F6FF"/><path d="M12 139a2 2 0 1 1 4 0v2h-4v-2zM48 139a2 2 0 1 1 4 0v2h-4v-2z" fill="#F1F6FF"/><path fill="#8EA4CB" d="M16 139h32v1H16z"/><path d="M29.6 117h4.8l.8 3h-.016c-.565 0-1.034.436-1.075 1l-.356 4.896a29 29 0 0 0 0 4.208l.356 4.896.145 2L36 139h-8l1.745-2 .146-2 .356-4.896a29 29 0 0 0 0-4.208L29.891 121c-.041-.564-.51-1-1.075-1H28.8l.8-3z" fill="#F1F6FF"/><rect x="23" y="116" width="18" height="4" rx="2" fill="#F1F6FF"/><path fill="#8A929E" fill-opacity=".9" d="M93 9h1v4h-1zM145 37h-2v4h2zM127.475 37h2v4h-2zM94 12h3v1h-3zM143 40h-3v1h3zM129.475 40h3v1h-3zM117 12h-16v1h16zM87 82H71v1h16z"/><path fill="#929AA5" d="M64 81h4v2h-4zM65 80h2v1h-2z"/><path d="M93.594 4.15c0 .279.105.531.277.714-.517.267-.871.843-.871 1.512V7h.415v-.624c0-.672.486-1.221 1.105-1.221v-.45c-.281 0-.511-.249-.511-.555h-.415z" fill="#E8F1F6"/><path d="M94.65 6.01h.423a.891.891 0 0 0 .656-.294 1.05 1.05 0 0 0 .27-.711 1.05 1.05 0 0 0-.27-.71.891.891 0 0 0-.656-.295v.45c.283 0 .512.219.512.525 0 .306-.23.6-.511.6h-.424a.951.951 0 0 0-.959.948V7h.415v-.375c0-.393.254-.615.544-.615zM65.99 74.2c0 .372.176.708.461.952-.861.356-1.451 1.124-1.451 2.016V78h.691v-.832c0-.896.811-1.628 1.843-1.628v-.6c-.47 0-.852-.332-.852-.74h-.692z" fill="#E8F1F6"/><path d="M67.75 76.68h.706c.41 0 .802-.141 1.092-.393.29-.25.452-.592.452-.947s-.163-.696-.452-.948A1.67 1.67 0 0 0 68.456 74v.6c.47 0 .852.292.852.7s-.382.8-.852.8h-.705c-.862 0-1.6.544-1.6 1.264V78h.692v-.5c0-.524.424-.82.908-.82zM144.69 33.727a.503.503 0 0 0-.002.316l.157.475-.578-.16-.052-.158a.997.997 0 0 1 .388-1.139.498.498 0 0 0 .189-.583l-.168-.459.033-.011.55.151.054.147a.998.998 0 0 1-.379 1.17.502.502 0 0 0-.192.25zM127.784 33.727a.497.497 0 0 1 .002.316l-.157.475.579-.16.052-.158a.997.997 0 0 0-.389-1.139.496.496 0 0 1-.188-.583l.168-.459-.033-.011-.55.151-.054.147a.998.998 0 0 0 .378 1.17c.09.06.157.148.192.25zM142.204 32.634a.5.5 0 0 0 .211.236l.436.247-.536.27-.146-.083a1.003 1.003 0 0 1-.476-1.105.492.492 0 0 0-.251-.559l-.433-.227.016-.03.51-.258.139.073a.992.992 0 0 1 .504 1.12.495.495 0 0 0 .026.316zM130.271 32.634a.5.5 0 0 1-.211.236l-.435.247.535.27.146-.083a1.003 1.003 0 0 0 .476-1.105.492.492 0 0 1 .251-.559l.433-.227-.016-.03-.51-.258-.139.073a.992.992 0 0 0-.504 1.12.495.495 0 0 1-.026.316zM111.205 11.348c.004.022-.013.045-.047.064L111 11.5h.342l.053-.03c.068-.038.101-.083.093-.129-.007-.045-.054-.089-.135-.124-.041-.018-.065-.04-.068-.063-.003-.024.016-.047.053-.066l.162-.084-.016-.004h-.326l-.052.027c-.074.038-.111.084-.105.131.006.047.054.092.136.128.04.017.064.039.068.062zM81.205 81.348c.004.023-.013.045-.047.064L81 81.5h.342l.053-.03c.068-.038.1-.083.094-.129-.008-.045-.055-.089-.136-.124-.041-.017-.065-.04-.068-.063-.002-.024.016-.047.053-.066l.162-.084-.016-.004h-.326l-.052.027c-.073.038-.11.084-.105.131.006.047.054.092.136.128.04.017.064.039.068.062zM114.205 11.348c.004.022-.013.045-.047.064L114 11.5h.342l.053-.03c.068-.038.101-.083.093-.129-.007-.045-.054-.089-.135-.124-.041-.018-.065-.04-.068-.063-.003-.024.016-.047.053-.066l.162-.084-.016-.004h-.326l-.052.027c-.074.038-.111.084-.105.131.006.047.054.092.136.128.04.017.064.039.068.062zM84.205 81.348c.004.023-.013.045-.047.064L84 81.5h.342l.053-.03c.068-.038.1-.083.094-.129-.008-.045-.055-.089-.136-.124-.041-.017-.065-.04-.068-.063-.002-.024.016-.047.053-.066l.162-.084-.016-.004h-.326l-.052.027c-.073.038-.11.084-.105.131.006.047.054.092.136.128.04.017.064.039.068.062zM113.205 11.348c.004.022-.013.045-.047.064L113 11.5h.342l.053-.03c.068-.038.101-.083.093-.129-.007-.045-.054-.089-.135-.124-.041-.018-.065-.04-.068-.063-.003-.024.016-.047.053-.066l.162-.084-.016-.004h-.326l-.052.027c-.074.038-.111.084-.105.131.006.047.054.092.136.128.04.017.064.039.068.062zM83.205 81.348c.004.023-.013.045-.047.064L83 81.5h.342l.053-.03c.068-.038.1-.083.094-.129-.008-.045-.055-.089-.136-.124-.041-.017-.065-.04-.068-.063-.002-.024.016-.047.053-.066l.162-.084-.016-.004h-.326l-.052.027c-.073.038-.11.084-.105.131.006.047.054.092.136.128.04.017.064.039.068.062zM105.205 11.348c.004.022-.013.045-.047.064L105 11.5h.342l.053-.03c.068-.038.101-.083.093-.129-.007-.045-.054-.089-.135-.124-.041-.018-.065-.04-.068-.063-.003-.024.016-.047.053-.066l.162-.084-.016-.004h-.326l-.052.027c-.074.038-.111.084-.105.131.006.047.054.092.136.128.04.017.064.039.068.062zM75.205 81.348c.004.023-.013.045-.047.064L75 81.5h.342l.053-.03c.068-.038.1-.083.094-.129-.008-.045-.055-.089-.136-.124-.041-.017-.065-.04-.068-.063-.002-.024.016-.047.053-.066l.162-.084-.016-.004h-.326l-.052.027c-.073.038-.11.084-.105.131.006.047.054.092.136.128.04.017.064.039.068.062zM106.205 11.348c.004.022-.013.045-.047.064L106 11.5h.342l.053-.03c.068-.038.101-.083.093-.129-.007-.045-.054-.089-.135-.124-.041-.018-.065-.04-.068-.063-.003-.024.016-.047.053-.066l.162-.084-.016-.004h-.326l-.052.027c-.074.038-.111.084-.105.131.006.047.054.092.136.128.04.017.064.039.068.062zM76.205 81.348c.004.023-.013.045-.047.064L76 81.5h.342l.053-.03c.068-.038.1-.083.094-.129-.008-.045-.055-.089-.136-.124-.041-.017-.065-.04-.068-.063-.002-.024.016-.047.053-.066l.162-.084-.016-.004h-.326l-.052.027c-.073.038-.11.084-.105.131.006.047.054.092.136.128.04.017.064.039.068.062zM108.205 11.348c.004.022-.013.045-.047.064L108 11.5h.342l.053-.03c.068-.038.101-.083.093-.129-.007-.045-.054-.089-.135-.124-.041-.018-.065-.04-.068-.063-.003-.024.016-.047.053-.066l.162-.084-.016-.004h-.326l-.052.027c-.074.038-.111.084-.105.131.006.047.054.092.136.128.04.017.064.039.068.062zM78.205 81.348c.004.023-.013.045-.047.064L78 81.5h.342l.053-.03c.068-.038.1-.083.094-.129-.008-.045-.055-.089-.136-.124-.041-.017-.065-.04-.068-.063-.002-.024.016-.047.053-.066l.162-.084-.016-.004h-.326l-.052.027c-.073.038-.11.084-.105.131.006.047.054.092.136.128.04.017.064.039.068.062z" fill="#E8F1F6"/><path d="M115.825 119.429h11.428v10.857a.571.571 0 0 1-.571.571h-10.286a.57.57 0 0 1-.571-.571v-10.857z" stroke="#5B4631" stroke-width="1.143" stroke-linejoin="round"/><path d="M117.539 131.429h1.143v12a.572.572 0 0 1-1.143 0v-12zM118.682 134.714h5.714v1.143h-5.714zM118.682 139.571h5.714v1.143h-5.714zM124.396 131.429h1.143v12a.572.572 0 0 1-1.143 0v-12zM125.539 125.714h2.286v4.572c0 .631-.512 1.143-1.143 1.143h-1.143v-5.715zM123.253 125.714h1.143v5.715h-1.143v-5.715zM120.968 125.714h1.142v5.715h-1.142v-5.715z" fill="#5B4631"/><path d="M117 126h10v5h-10v-5zM111.824 124.571h1.143v5.715h-1.143v-5.715zM108.396 124.571h1.143v5.715h-1.143v-5.715zM104.968 124.571h1.142v5.715h-1.142v-5.715zM101.539 124.571h1.143v5.715h-1.143v-5.715zM98.11 124.571h1.143v5.715H98.11v-5.715zM94.682 124.571h1.142v5.715h-1.142v-5.715z" fill="#5B4631"/><path d="M115.253 125.714h12.572v1.143h-12.572v-1.143zM116.396 130.857c0-.315.256-.571.571-.571h9.143a.572.572 0 1 1 0 1.143h-9.143a.572.572 0 0 1-.571-.572z" fill="#5B4631"/><path d="M115.253 125.714h2.286v5.715h-1.143a1.143 1.143 0 0 1-1.143-1.143v-4.572z" fill="#5B4631"/><path fill="#2051A1" d="M115.253 117.714h12.571V120h-12.571z"/><path d="M128.029 120.734a.229.229 0 0 1-.409 0l-.938-1.877h2.286l-.939 1.877zM125.743 120.734a.229.229 0 0 1-.409 0l-.938-1.877h2.286l-.939 1.877z" fill="#1B4589"/><path d="M123.458 120.734a.229.229 0 0 1-.409 0l-.939-1.877h2.286l-.938 1.877zM120.029 120.734a.229.229 0 0 1-.409 0l-.938-1.877h2.286l-.939 1.877zM117.743 120.734a.229.229 0 0 1-.409 0l-.938-1.877h2.286l-.939 1.877z" fill="#1B4589"/><path d="M115.458 120.734a.229.229 0 0 1-.409 0l-.939-1.877h2.286l-.938 1.877z" fill="#1B4589"/><path d="M120.563 105.601a1.144 1.144 0 0 1 1.952 0l7.367 12.09a1.143 1.143 0 0 1-.976 1.738h-14.735c-.892 0-1.44-.976-.976-1.738l7.368-12.09z" fill="#1B4589"/><path d="M83.825 119.429h11.428v10.857a.571.571 0 0 1-.571.571H84.396a.571.571 0 0 1-.571-.571v-10.857z" stroke="#5B4631" stroke-width="1.143" stroke-linejoin="round"/><path d="M85.539 131.429h1.143v12a.571.571 0 0 1-1.143 0v-12zM86.682 134.714h5.714v1.143h-5.714zM86.682 139.571h5.714v1.143h-5.714zM92.396 131.429h1.143v12a.571.571 0 0 1-1.143 0v-12zM93.539 125.714h2.285v4.572c0 .631-.511 1.143-1.142 1.143h-1.143v-5.715zM91.253 125.714h1.143v5.715h-1.143v-5.715zM88.968 125.714h1.142v5.715h-1.142v-5.715zM86.682 125.714h1.142v5.715h-1.142v-5.715z" fill="#5B4631"/><path d="M83.253 125.714h12.572v1.143H83.253v-1.143zM84.396 130.857c0-.315.256-.571.571-.571h9.143a.571.571 0 0 1 0 1.143h-9.143a.572.572 0 0 1-.571-.572z" fill="#5B4631"/><path d="M69.539 142.857c3.619-2.476 11.543-8.571 14.285-13.143v-2.857c-1.333 1.714-4 5.714-7.428 8.572-3.429 2.857-4 3.428-7.429 5.714-1.613 1.076-2.857 1.714-1.142 1.714h1.714z" fill="#2051A1" stroke="#1B4589" stroke-width=".914" stroke-linecap="round" stroke-linejoin="round"/><path d="M83.253 125.714h2.286v5.715h-1.143a1.143 1.143 0 0 1-1.143-1.143v-4.572z" fill="#5B4631"/><path fill="#2051A1" d="M83.253 117.714h12.571V120H83.253z"/><path d="M96.03 120.734a.229.229 0 0 1-.41 0l-.938-1.877h2.285l-.938 1.877zM93.743 120.734a.229.229 0 0 1-.409 0l-.938-1.877h2.286l-.939 1.877z" fill="#1B4589"/><path d="M91.458 120.734a.229.229 0 0 1-.41 0l-.938-1.877h2.286l-.938 1.877zM88.03 120.734a.229.229 0 0 1-.41 0l-.938-1.877h2.285l-.938 1.877zM85.743 120.734a.229.229 0 0 1-.409 0l-.938-1.877h2.286l-.939 1.877z" fill="#1B4589"/><path d="M83.458 120.734a.229.229 0 0 1-.41 0l-.938-1.877h2.286l-.938 1.877z" fill="#1B4589"/><path d="M88.563 105.601a1.144 1.144 0 0 1 1.952 0l7.367 12.09a1.143 1.143 0 0 1-.976 1.738H82.171c-.892 0-1.44-.976-.976-1.738l7.368-12.09z" fill="#1B4589"/><path fill="#5B4631" d="M94.682 130.286h21.714v1.143H94.682zM94.682 124.571h20.571v1.143H94.682z"/><path d="M117 128.5a.5.5 0 0 1 .5-.5h5.5v1h-5.5a.5.5 0 0 1-.5-.5z" fill="#C0CCE2"/><path d="M123 128h2.5a.5.5 0 0 1 0 1H123v-1z" fill="#ECF4FE"/><path d="m104 145-1 1m4-1 1 1" stroke="#654321"/><path d="m97 143.5 2.5 2 2-.237 2.5.737h3.5l.5-1 2.5.5 1-1V142l-2.5-1-1 1.5c-.833-.167-2.6-.6-3-1-.4-.4-1.5-.833-2-1l-1.5 1.5-2.5-.5-1 1-1 1z" fill="#3B8535"/><path d="m98 143 2.5 2 2-.237 2.5.737h3.5l.5-1 2.5.5 1-1v-2.5l-2.5-1-1 1.5c-.833-.167-2.6-.6-3-1-.4-.4-1.5-.833-2-1l-1.5 1.5-2.5-.5-1 1-1 1z" fill="#5DAE56"/></g><defs><clipPath id="a"><path fill="#fff" transform="matrix(-1 0 0 1 150 0)" d="M0 0h150v150H0z"/></clipPath></defs></svg>