<svg width="36" height="36" fill="none" xmlns="http://www.w3.org/2000/svg"><rect width="36" height="36" rx="18" fill="#6188D5"/><path fill-rule="evenodd" clip-rule="evenodd" d="m17.814 20.804 3.109-3.058a2.74 2.74 0 0 0 .528-3.202l-.176-.347a2.74 2.74 0 0 1 .529-3.203l3.855-3.79a.714.714 0 0 1 1.13.18l1.557 3.063a6.012 6.012 0 0 1-1.16 7.026l-8.462 8.322a7.749 7.749 0 0 1-7.835 1.818l-3.406-1.116a.691.691 0 0 1-.276-1.149l3.74-3.678a2.857 2.857 0 0 1 3.257-.52l.352.174a2.857 2.857 0 0 0 3.258-.52z" fill="#F5F7FC"/></svg>