<svg width="88" height="88" fill="none" xmlns="http://www.w3.org/2000/svg"><circle cx="44" cy="44" r="42.5" fill="#fff" stroke="#C4D3F0" stroke-width="3"/><circle cx="44" cy="44" r="35" fill="#3A6ACB"/><path fill-rule="evenodd" clip-rule="evenodd" d="M43.133 28.209c-.179.114-.799.668-1.378 1.229l-1.052 1.021-1.417-.284c-2.173-.435-2.305-.33-2.722 2.151l-.25 1.488-1.424.696c-.829.404-1.5.806-1.605.959-.312.457-.217.913.496 2.384l.675 1.393-.675 1.393c-1.038 2.14-.983 2.304 1.097 3.334l1.44.713.252 1.516c.396 2.392.567 2.513 2.97 2.11l1.605-.27 1.048 1.016c1.95 1.893 1.989 1.893 3.944-.004l1.053-1.022 1.649.278c2.435.409 2.573.31 2.951-2.124l.232-1.495 1.301-.64c1.78-.874 1.756-.858 1.894-1.287.16-.5.034-.803-.957-2.272-.426-.632-.774-1.197-.774-1.255 0-.058.293-.705.65-1.439.689-1.41.782-1.873.471-2.33-.103-.15-.788-.563-1.608-.968l-1.429-.706-.254-1.515c-.268-1.6-.408-1.919-.974-2.22-.275-.146-.473-.134-1.95.115l-1.645.277-1.048-1.017C44.519 28.29 44.12 28 43.729 28c-.149 0-.417.094-.596.209zM32.346 50.742c-1.303 2.709-2.36 4.937-2.346 4.95.013.014 1.217-.147 2.676-.358 1.458-.21 2.703-.384 2.765-.385.063 0 .745 1.135 1.516 2.525L38.358 60l2.028-4.224 2.028-4.225-.93-.898-.928-.897-1.205.202c-.665.11-1.4.171-1.639.134-.953-.147-1.806-.761-2.217-1.597-.15-.305-.547-2.2-.547-2.61 0-.426-.591.677-2.602 4.857zm20.458-3.677c-.358 1.534-.695 2.134-1.46 2.605-.742.457-1.256.511-2.643.28l-1.153-.192-.927.84c-.51.463-.918.904-.907.98.04.271 3.918 8.362 3.987 8.319.039-.025.646-1.061 1.349-2.303.702-1.241 1.33-2.316 1.396-2.389.09-.101.747-.041 2.814.256 1.483.214 2.715.368 2.74.343.039-.04-4.821-9.988-4.88-9.988-.013 0-.155.562-.316 1.25z" fill="#fff"/></svg>