<svg width="24" height="24" fill="none" xmlns="http://www.w3.org/2000/svg"><path d="M3.967 8.844c.259.179 1.04.709 2.344 1.59 1.303.882 2.302 1.561 2.995 2.037.077.052.239.166.486.34.248.176.454.317.618.425.163.108.362.229.594.363.233.133.452.234.658.3.206.068.396.101.571.101h.024c.175 0 .366-.033.571-.1.206-.067.425-.168.658-.301.232-.135.43-.255.594-.363.164-.108.37-.25.618-.424.247-.175.41-.289.486-.34.7-.477 2.485-1.686 5.35-3.628A5.367 5.367 0 0 0 21.93 7.47c.373-.536.56-1.097.56-1.685a1.69 1.69 0 0 0-.543-1.261A1.789 1.789 0 0 0 20.66 4H3.83c-.588 0-1.04.193-1.356.58C2.158 4.967 2 5.45 2 6.031c0 .469.21.977.629 1.524.419.547.865.976 1.338 1.289z" fill="#1C2229"/><path d="M21.346 10.003c-2.5 1.707-4.398 3.033-5.694 3.978a26.97 26.97 0 0 1-1.057.755c-.27.181-.63.365-1.08.554-.45.188-.87.282-1.258.282h-.023c-.39 0-.809-.094-1.258-.282a6.501 6.501 0 0 1-1.08-.554c-.271-.18-.624-.432-1.058-.755-1.03-.76-2.924-2.087-5.683-3.978A6.07 6.07 0 0 1 2 9v9.155c0 .508.18.942.537 1.303.359.361.79.542 1.293.542h16.83c.504 0 .934-.18 1.293-.542.358-.361.537-.795.537-1.303V9a6.32 6.32 0 0 1-1.144 1.003z" fill="#1C2229"/></svg>