<svg width="375" height="223" fill="none" xmlns="http://www.w3.org/2000/svg"><g clip-path="url(#a)"><path d="M0 27.778C0 12.437 12.437 0 27.778 0h319.444C362.563 0 375 12.437 375 27.778v166.666c0 15.342-12.437 27.778-27.778 27.778H27.778C12.437 222.222 0 209.786 0 194.444V27.778z" fill="#4E91E4" fill-opacity=".1"/><path d="M236.436 37.766a8.128 8.128 0 0 1 2.3-4.83 7.991 7.991 0 0 1 9.969-1.14 8.093 8.093 0 0 1 3.315 4.187 5.348 5.348 0 0 1 3.58 1.807 5.429 5.429 0 0 1 1.34 3.801 5.423 5.423 0 0 1-1.646 3.678 5.343 5.343 0 0 1-3.715 1.503h-15.191a4.45 4.45 0 0 1-3.152-1.336 4.525 4.525 0 0 1 .034-6.368 4.449 4.449 0 0 1 3.166-1.302zM349.077 20.486a5.876 5.876 0 0 1 1.661-3.489 5.771 5.771 0 0 1 7.2-.824 5.842 5.842 0 0 1 2.394 3.025 3.86 3.86 0 0 1 2.585 1.305 3.914 3.914 0 0 1 .968 2.745 3.914 3.914 0 0 1-1.189 2.656 3.854 3.854 0 0 1-2.682 1.085h-10.971a3.215 3.215 0 0 1-2.277-.964 3.268 3.268 0 0 1 .025-4.6 3.213 3.213 0 0 1 2.286-.94zM179.492 58.6a8.132 8.132 0 0 1 2.299-4.83 7.993 7.993 0 0 1 9.97-1.14 8.093 8.093 0 0 1 3.315 4.187 5.345 5.345 0 0 1 3.579 1.806 5.428 5.428 0 0 1 1.34 3.802 5.418 5.418 0 0 1-1.646 3.677 5.338 5.338 0 0 1-3.714 1.503h-15.191a4.45 4.45 0 0 1-3.152-1.336A4.52 4.52 0 0 1 175 63.08a4.516 4.516 0 0 1 1.326-3.178 4.448 4.448 0 0 1 3.166-1.301zM28.103 26.655a8.13 8.13 0 0 1 2.3-4.83 7.993 7.993 0 0 1 9.97-1.14 8.094 8.094 0 0 1 3.314 4.187 5.347 5.347 0 0 1 3.58 1.807 5.429 5.429 0 0 1 1.34 3.801 5.422 5.422 0 0 1-1.646 3.677 5.34 5.34 0 0 1-3.715 1.504h-15.19a4.45 4.45 0 0 1-3.153-1.336 4.521 4.521 0 0 1-1.292-3.191 4.52 4.52 0 0 1 1.326-3.177 4.45 4.45 0 0 1 3.166-1.302zM122.189 32.184a4.968 4.968 0 0 1 1.405-2.951 4.887 4.887 0 0 1 6.093-.697 4.95 4.95 0 0 1 2.026 2.559c.843.07 1.627.465 2.187 1.104a3.319 3.319 0 0 1-.187 4.57c-.611.59-1.424.92-2.27.919h-9.283a2.72 2.72 0 0 1-1.927-.817 2.763 2.763 0 0 1 .021-3.891 2.72 2.72 0 0 1 1.935-.796zM134.548 103.632a7.226 7.226 0 0 1 2.044-4.293 7.106 7.106 0 0 1 8.862-1.014 7.196 7.196 0 0 1 2.946 3.722 4.752 4.752 0 0 1 3.182 1.606 4.824 4.824 0 0 1 1.191 3.379 4.815 4.815 0 0 1-1.463 3.268 4.743 4.743 0 0 1-3.302 1.337h-13.503a3.957 3.957 0 0 1-2.802-1.188 4.017 4.017 0 0 1-1.148-2.836 4.018 4.018 0 0 1 1.179-2.824 3.95 3.95 0 0 1 2.814-1.157zM13.466 101.842a6.777 6.777 0 0 1 1.916-4.024 6.66 6.66 0 0 1 8.308-.95 6.744 6.744 0 0 1 2.762 3.489 4.452 4.452 0 0 1 2.983 1.505 4.524 4.524 0 0 1-.255 6.232 4.448 4.448 0 0 1-3.096 1.253H13.425a3.71 3.71 0 0 1-2.626-1.114 3.766 3.766 0 0 1-1.077-2.659 3.767 3.767 0 0 1 1.105-2.647 3.71 3.71 0 0 1 2.639-1.085zM98.936 21.1a8.13 8.13 0 0 1 2.3-4.83 7.991 7.991 0 0 1 9.969-1.14 8.093 8.093 0 0 1 3.315 4.187 5.348 5.348 0 0 1 3.58 1.806 5.429 5.429 0 0 1 1.34 3.802 5.423 5.423 0 0 1-1.646 3.677 5.342 5.342 0 0 1-3.715 1.503h-15.19a4.45 4.45 0 0 1-3.153-1.336 4.521 4.521 0 0 1-1.292-3.19A4.52 4.52 0 0 1 95.77 22.4a4.45 4.45 0 0 1 3.166-1.301z" fill="#E8F1F6"/><path d="M333.334 70.833h41.667v102.778h-41.667V70.833z" fill="#C0CCE2"/><path fill="#8A929E" fill-opacity=".9" d="M341.668 66.667h1.389v4.167h-1.389z"/><path fill="#8A929E" fill-opacity=".9" d="M343.056 69.445H350v1.389h-6.944z"/><path d="M342.493 57.153c0 .387.146.737.384.992-.718.37-1.21 1.17-1.21 2.1v.866h.576v-.866c0-.934.676-1.696 1.536-1.696v-.625c-.391 0-.71-.346-.71-.771h-.576z" fill="#E8F1F6"/><path d="M343.96 59.736h.588c.341 0 .668-.147.909-.409a1.46 1.46 0 0 0 .377-.987c0-.37-.136-.725-.377-.987a1.236 1.236 0 0 0-.909-.409v.625c.391 0 .71.305.71.73s-.319.833-.71.833h-.588c-.718 0-1.333.567-1.333 1.317v.662h.576v-.52c0-.547.354-.855.757-.855z" fill="#E8F1F6"/><path fill="#929AA5" d="M361.111 66.667h2.778v1.389h-2.778z"/><path d="M362.488 60c0 .517.244.983.64 1.322-1.197.495-2.016 1.561-2.016 2.8v1.156h.96v-1.156c0-1.244 1.127-2.26 2.56-2.26v-.834c-.652 0-1.184-.461-1.184-1.028h-.96z" fill="#E8F1F6"/><path d="M364.933 63.444h.98a2.32 2.32 0 0 0 1.516-.545c.402-.349.628-.822.628-1.316 0-.493-.226-.967-.628-1.316a2.321 2.321 0 0 0-1.516-.545v.834c.652 0 1.184.405 1.184.972 0 .566-.532 1.11-1.184 1.11h-.98c-1.197 0-2.221.757-2.221 1.756v.884h.96v-.695c0-.727.589-1.139 1.261-1.139z" fill="#E8F1F6"/><path fill="#EEF6FF" fill-opacity=".95" d="M337.501 75h8.333v5.556h-8.333z"/><path fill="#EEF6FF" fill-opacity=".5" d="M337.501 94.444h8.333V100h-8.333z"/><path fill="#EEF6FF" fill-opacity=".95" d="M337.501 113.889h8.333v5.556h-8.333z"/><path fill="#EEF6FF" fill-opacity=".5" d="M337.501 133.333h8.333v5.556h-8.333zM337.501 152.778h8.333v5.556h-8.333z"/><path fill="#EEF6FF" fill-opacity=".95" d="M337.501 84.722h5.556v5.556h-5.556zM337.501 104.167h5.556v5.556h-5.556z"/><path fill="#EEF6FF" fill-opacity=".5" d="M337.501 123.611h5.556v5.556h-5.556z"/><path fill="#EEF6FF" fill-opacity=".95" d="M337.501 143.056h5.556v5.556h-5.556zM337.501 162.5h5.556v5.556h-5.556z"/><path fill="#EEF6FF" fill-opacity=".5" d="M350 75h8.333v5.556H350z"/><path fill="#EEF6FF" fill-opacity=".95" d="M350 94.444h8.333V100H350z"/><path fill="#EEF6FF" fill-opacity=".5" d="M350 113.889h8.333v5.556H350z"/><path fill="#EEF6FF" fill-opacity=".95" d="M350 133.333h8.333v5.556H350z"/><path fill="#EEF6FF" fill-opacity=".5" d="M350 152.778h8.333v5.556H350z"/><path fill="#EEF6FF" fill-opacity=".95" d="M347.223 84.722h13.889v5.556h-13.889zM347.223 104.167h13.889v5.556h-13.889zM347.223 123.611h13.889v5.556h-13.889zM347.223 143.056h13.889v5.556h-13.889z"/><path fill="#EEF6FF" fill-opacity=".5" d="M347.223 162.5h13.889v5.556h-13.889z"/><path fill="#EEF6FF" fill-opacity=".95" d="M362.5 75h8.333v5.556H362.5z"/><path fill="#EEF6FF" fill-opacity=".5" d="M362.5 94.444h8.333V100H362.5z"/><path fill="#EEF6FF" fill-opacity=".95" d="M362.5 113.889h8.333v5.556H362.5z"/><path fill="#EEF6FF" fill-opacity=".5" d="M362.5 133.333h8.333v5.556H362.5z"/><path fill="#EEF6FF" fill-opacity=".95" d="M362.5 152.778h8.333v5.556H362.5zM365.278 84.722h5.556v5.556h-5.556zM365.278 104.167h5.556v5.556h-5.556zM365.278 123.611h5.556v5.556h-5.556zM365.278 143.056h5.556v5.556h-5.556zM365.278 162.5h5.556v5.556h-5.556z"/><path fill="#929AA5" d="M359.723 68.055h5.556v2.778h-5.556z"/><path d="M291.666 34.722a2.778 2.778 0 0 1 2.778-2.777h36.111a2.778 2.778 0 0 1 2.778 2.777v138.889h-41.667V34.722z" fill="#C0CCE2"/><path fill="#EEF6FF" fill-opacity=".95" d="M295.834 133.333h8.333v5.556h-8.333z"/><path fill="#EEF6FF" fill-opacity=".5" d="M295.834 152.778h8.333v5.556h-8.333z"/><path fill="#EEF6FF" fill-opacity=".95" d="M295.834 143.056h5.556v5.556h-5.556zM295.834 162.5h5.556v5.556h-5.556z"/><path fill="#EEF6FF" fill-opacity=".5" d="M308.333 133.333h8.333v5.556h-8.333z"/><path fill="#EEF6FF" fill-opacity=".95" d="M308.333 152.778h8.333v5.556h-8.333zM305.556 143.056h13.889v5.556h-13.889zM305.556 162.5h13.889v5.556h-13.889zM320.833 133.333h8.333v5.556h-8.333z"/><path fill="#EEF6FF" fill-opacity=".5" d="M320.833 152.778h8.333v5.556h-8.333z"/><path fill="#EEF6FF" fill-opacity=".95" d="M323.611 143.056h5.556v5.556h-5.556zM323.611 162.5h5.556v5.556h-5.556z"/><path fill="#8A929E" fill-opacity=".9" d="M319.443 30.556h-13.889v1.389h13.889z"/><path fill="#929AA5" d="M295.833 29.167h5.556v2.778h-5.556zM323.61 29.167h5.556v2.778h-5.556zM297.221 27.778h2.778v1.389h-2.778zM324.999 27.778h2.778v1.389h-2.778z"/><path d="M298.598 19.722c0 .517.243.984.64 1.322-1.197.495-2.016 1.562-2.016 2.8V25h.96v-1.155c0-1.245 1.126-2.262 2.56-2.262v-.833c-.653 0-1.184-.461-1.184-1.028h-.96z" fill="#E8F1F6"/><path d="M301.043 23.167h.979c.569 0 1.114-.196 1.516-.545.402-.35.628-.823.628-1.316 0-.494-.226-.967-.628-1.316a2.318 2.318 0 0 0-1.516-.545v.833c.653 0 1.184.405 1.184.972s-.531 1.111-1.184 1.111h-.979c-1.197 0-2.221.756-2.221 1.756V25h.96v-.694c0-.728.589-1.14 1.261-1.14zM326.401 18.333c0 .517-.243.984-.64 1.323 1.197.494 2.016 1.56 2.016 2.8v1.155h-.96v-1.155c0-1.245-1.126-2.261-2.56-2.261v-.834c.653 0 1.184-.461 1.184-1.028h.96z" fill="#E8F1F6"/><path d="M323.956 21.778h-.979a2.319 2.319 0 0 1-1.516-.545c-.402-.35-.628-.823-.628-1.316 0-.494.226-.967.628-1.316a2.319 2.319 0 0 1 1.516-.545v.833c-.653 0-1.184.405-1.184.972s.531 1.111 1.184 1.111h.979c1.197 0 2.221.756 2.221 1.756v.883h-.96v-.694c0-.728-.589-1.14-1.261-1.14z" fill="#E8F1F6"/><path fill="#EEF6FF" fill-opacity=".95" d="M295.834 36.111h8.333v5.556h-8.333z"/><path fill="#EEF6FF" fill-opacity=".5" d="M295.834 55.556h8.333v5.556h-8.333z"/><path fill="#EEF6FF" fill-opacity=".95" d="M295.834 75h8.333v5.556h-8.333z"/><path fill="#EEF6FF" fill-opacity=".5" d="M295.834 94.444h8.333V100h-8.333zM295.834 113.889h8.333v5.556h-8.333z"/><path fill="#EEF6FF" fill-opacity=".95" d="M295.834 45.833h5.556v5.556h-5.556zM295.834 65.278h5.556v5.556h-5.556z"/><path fill="#EEF6FF" fill-opacity=".5" d="M295.834 84.722h5.556v5.556h-5.556z"/><path fill="#EEF6FF" fill-opacity=".95" d="M295.834 104.167h5.556v5.556h-5.556zM295.834 123.611h5.556v5.556h-5.556z"/><path fill="#EEF6FF" fill-opacity=".5" d="M308.333 36.111h8.333v5.556h-8.333z"/><path fill="#EEF6FF" fill-opacity=".95" d="M308.333 55.556h8.333v5.556h-8.333z"/><path fill="#EEF6FF" fill-opacity=".5" d="M308.333 75h8.333v5.556h-8.333z"/><path fill="#EEF6FF" fill-opacity=".95" d="M308.333 94.444h8.333V100h-8.333z"/><path fill="#EEF6FF" fill-opacity=".5" d="M308.333 113.889h8.333v5.556h-8.333z"/><path fill="#EEF6FF" fill-opacity=".95" d="M305.556 45.833h13.889v5.556h-13.889zM305.556 65.278h13.889v5.556h-13.889zM305.556 84.722h13.889v5.556h-13.889zM305.556 104.167h13.889v5.556h-13.889z"/><path fill="#EEF6FF" fill-opacity=".5" d="M305.556 123.611h13.889v5.556h-13.889z"/><path fill="#EEF6FF" fill-opacity=".95" d="M320.833 36.111h8.333v5.556h-8.333z"/><path fill="#EEF6FF" fill-opacity=".5" d="M320.833 55.556h8.333v5.556h-8.333z"/><path fill="#EEF6FF" fill-opacity=".95" d="M320.833 75h8.333v5.556h-8.333z"/><path fill="#EEF6FF" fill-opacity=".5" d="M320.833 94.444h8.333V100h-8.333z"/><path fill="#EEF6FF" fill-opacity=".95" d="M320.833 113.889h8.333v5.556h-8.333zM323.611 45.833h5.556v5.556h-5.556zM323.611 65.278h5.556v5.556h-5.556zM323.611 84.722h5.556v5.556h-5.556zM323.611 104.167h5.556v5.556h-5.556zM323.611 123.611h5.556v5.556h-5.556z"/><path d="M206.944 81.945h38.889a2.778 2.778 0 0 1 2.778 2.777v88.889h-41.667V81.945z" fill="#C0CCE2"/><path fill="#EEF6FF" fill-opacity=".5" d="M244.443 86.111h-8.333v5.556h8.333z"/><path fill="#EEF6FF" fill-opacity=".95" d="M244.443 105.556h-8.333v5.556h8.333z"/><path fill="#EEF6FF" fill-opacity=".5" d="M244.443 125h-8.333v5.556h8.333zM244.443 144.444h-8.333V150h8.333zM244.443 163.889h-8.333v5.556h8.333z"/><path fill="#EEF6FF" fill-opacity=".95" d="M244.443 95.833h-5.556v5.556h5.556z"/><path fill="#EEF6FF" fill-opacity=".5" d="M244.443 115.278h-5.556v5.556h5.556z"/><path fill="#EEF6FF" fill-opacity=".95" d="M244.443 134.722h-5.556v5.556h5.556zM244.443 154.167h-5.556v5.556h5.556zM231.944 86.111h-8.333v5.556h8.333z"/><path fill="#EEF6FF" fill-opacity=".5" d="M231.944 105.556h-8.333v5.556h8.333z"/><path fill="#EEF6FF" fill-opacity=".95" d="M231.944 125h-8.333v5.556h8.333z"/><path fill="#EEF6FF" fill-opacity=".5" d="M231.944 144.444h-8.333V150h8.333zM231.944 163.889h-8.333v5.556h8.333z"/><path fill="#EEF6FF" fill-opacity=".95" d="M234.722 95.833h-13.889v5.556h13.889zM234.722 115.278h-13.889v5.556h13.889zM234.722 134.722h-13.889v5.556h13.889z"/><path fill="#EEF6FF" fill-opacity=".5" d="M234.722 154.167h-13.889v5.556h13.889zM219.444 86.111h-8.333v5.556h8.333z"/><path fill="#EEF6FF" fill-opacity=".95" d="M219.444 105.556h-8.333v5.556h8.333z"/><path fill="#EEF6FF" fill-opacity=".5" d="M219.444 125h-8.333v5.556h8.333z"/><path fill="#EEF6FF" fill-opacity=".95" d="M219.444 144.444h-8.333V150h8.333zM219.444 163.889h-8.333v5.556h8.333zM216.666 95.833h-5.556v5.556h5.556zM216.666 115.278h-5.556v5.556h5.556zM216.666 134.722h-5.556v5.556h5.556zM216.666 154.167h-5.556v5.556h5.556z"/><path fill="#929AA5" d="M238.889 79.167h-5.556v2.778h5.556zM220.833 79.167h-5.556v2.778h5.556zM237.5 77.778h-2.778v1.389h2.778zM219.444 77.778h-2.778v1.389h2.778z"/><path d="M236.099 66.944c0 .517.243.984.64 1.323-1.197.494-2.016 1.56-2.016 2.8v1.155h.96v-1.155c0-1.245 1.126-2.261 2.56-2.261v-.834c-.653 0-1.184-.46-1.184-1.028h-.96z" fill="#E8F1F6"/><path d="M238.544 70.389h.979c.569 0 1.114-.196 1.516-.545.402-.35.628-.823.628-1.316 0-.494-.226-.967-.628-1.316a2.319 2.319 0 0 0-1.516-.545v.833c.653 0 1.184.406 1.184.972 0 .567-.531 1.111-1.184 1.111h-.979c-1.197 0-2.221.756-2.221 1.756v.883h.96v-.694c0-.728.589-1.14 1.261-1.14zM218.067 69.722c0 .517-.243.984-.64 1.322 1.197.495 2.016 1.562 2.016 2.8V75h-.96v-1.156c0-1.244-1.126-2.26-2.56-2.26v-.834c.653 0 1.184-.461 1.184-1.028h.96z" fill="#E8F1F6"/><path d="M215.622 73.167h-.979a2.321 2.321 0 0 1-1.516-.546c-.402-.349-.628-.822-.628-1.316 0-.493.226-.967.628-1.316a2.321 2.321 0 0 1 1.516-.545v.834c-.653 0-1.184.405-1.184.972s.531 1.111 1.184 1.111h.979c1.197 0 2.221.756 2.221 1.756V75h-.96v-.695c0-.727-.589-1.138-1.261-1.138z" fill="#E8F1F6"/><path d="M206.944 34.722a2.777 2.777 0 0 0-2.777-2.777h-36.112a2.777 2.777 0 0 0-2.777 2.777v138.889h41.666V34.722z" fill="#C0CCE2"/><path fill="#EEF6FF" fill-opacity=".95" d="M202.777 133.333h-8.333v5.556h8.333z"/><path fill="#EEF6FF" fill-opacity=".5" d="M202.777 152.778h-8.333v5.556h8.333z"/><path fill="#EEF6FF" fill-opacity=".95" d="M202.777 143.056h-5.556v5.556h5.556zM202.777 162.5h-5.556v5.556h5.556z"/><path fill="#EEF6FF" fill-opacity=".5" d="M190.278 133.333h-8.333v5.556h8.333z"/><path fill="#EEF6FF" fill-opacity=".95" d="M190.278 152.778h-8.333v5.556h8.333zM193.056 143.056h-13.889v5.556h13.889zM193.056 162.5h-13.889v5.556h13.889zM177.778 133.333h-8.333v5.556h8.333z"/><path fill="#EEF6FF" fill-opacity=".5" d="M177.778 152.778h-8.333v5.556h8.333z"/><path fill="#EEF6FF" fill-opacity=".95" d="M175 143.056h-5.556v5.556H175zM175 162.5h-5.556v5.556H175z"/><path fill="#8A929E" fill-opacity=".9" d="M179.167 30.556h13.889v1.389h-13.889z"/><path fill="#929AA5" d="M202.777 29.167h-5.556v2.778h5.556zM175 29.167h-5.556v2.778H175zM201.39 27.778h-2.778v1.389h2.778zM173.611 27.778h-2.778v1.389h2.778z"/><path d="M200.013 19.722c0 .517-.244.984-.64 1.322 1.197.495 2.016 1.562 2.016 2.8V25h-.96v-1.155c0-1.245-1.127-2.262-2.56-2.262v-.833c.652 0 1.184-.461 1.184-1.028h.96z" fill="#E8F1F6"/><path d="M197.568 23.167h-.98a2.32 2.32 0 0 1-1.516-.545c-.402-.35-.628-.823-.628-1.316 0-.494.226-.967.628-1.316a2.321 2.321 0 0 1 1.516-.545v.833c-.652 0-1.184.405-1.184.972s.532 1.111 1.184 1.111h.98c1.197 0 2.221.756 2.221 1.756V25h-.96v-.694c0-.728-.589-1.14-1.261-1.14zM172.209 18.333c0 .517.243.984.64 1.323-1.197.494-2.016 1.56-2.016 2.8v1.155h.96v-1.155c0-1.245 1.126-2.261 2.56-2.261v-.834c-.653 0-1.184-.461-1.184-1.028h-.96z" fill="#E8F1F6"/><path d="M174.654 21.778h.979c.569 0 1.114-.196 1.516-.545.402-.35.628-.823.628-1.316 0-.494-.226-.967-.628-1.316a2.319 2.319 0 0 0-1.516-.545v.833c.653 0 1.184.405 1.184.972s-.531 1.111-1.184 1.111h-.979c-1.197 0-2.221.756-2.221 1.756v.883h.96v-.694c0-.728.589-1.14 1.261-1.14z" fill="#E8F1F6"/><path fill="#EEF6FF" fill-opacity=".95" d="M202.777 36.111h-8.333v5.556h8.333z"/><path fill="#EEF6FF" fill-opacity=".5" d="M202.777 55.556h-8.333v5.556h8.333z"/><path fill="#EEF6FF" fill-opacity=".95" d="M202.777 75h-8.333v5.556h8.333z"/><path fill="#EEF6FF" fill-opacity=".5" d="M202.777 94.444h-8.333V100h8.333zM202.777 113.889h-8.333v5.556h8.333z"/><path fill="#EEF6FF" fill-opacity=".95" d="M202.777 45.833h-5.556v5.556h5.556zM202.777 65.278h-5.556v5.556h5.556z"/><path fill="#EEF6FF" fill-opacity=".5" d="M202.777 84.722h-5.556v5.556h5.556z"/><path fill="#EEF6FF" fill-opacity=".95" d="M202.777 104.167h-5.556v5.556h5.556zM202.777 123.611h-5.556v5.556h5.556z"/><path fill="#EEF6FF" fill-opacity=".5" d="M190.278 36.111h-8.333v5.556h8.333z"/><path fill="#EEF6FF" fill-opacity=".95" d="M190.278 55.556h-8.333v5.556h8.333z"/><path fill="#EEF6FF" fill-opacity=".5" d="M190.278 75h-8.333v5.556h8.333z"/><path fill="#EEF6FF" fill-opacity=".95" d="M190.278 94.444h-8.333V100h8.333z"/><path fill="#EEF6FF" fill-opacity=".5" d="M190.278 113.889h-8.333v5.556h8.333z"/><path fill="#EEF6FF" fill-opacity=".95" d="M193.056 45.833h-13.889v5.556h13.889zM193.056 65.278h-13.889v5.556h13.889zM193.056 84.722h-13.889v5.556h13.889zM193.056 104.167h-13.889v5.556h13.889z"/><path fill="#EEF6FF" fill-opacity=".5" d="M193.056 123.611h-13.889v5.556h13.889z"/><path fill="#EEF6FF" fill-opacity=".95" d="M177.778 36.111h-8.333v5.556h8.333z"/><path fill="#EEF6FF" fill-opacity=".5" d="M177.778 55.556h-8.333v5.556h8.333z"/><path fill="#EEF6FF" fill-opacity=".95" d="M177.778 75h-8.333v5.556h8.333z"/><path fill="#EEF6FF" fill-opacity=".5" d="M177.778 94.444h-8.333V100h8.333z"/><path fill="#EEF6FF" fill-opacity=".95" d="M177.778 113.889h-8.333v5.556h8.333zM175 45.833h-5.556v5.556H175zM175 65.278h-5.556v5.556H175zM175 84.722h-5.556v5.556H175zM175 104.167h-5.556v5.556H175zM175 123.611h-5.556v5.556H175z"/><path d="M80.556 65.278a2.778 2.778 0 0 1 2.777-2.778h36.112a2.777 2.777 0 0 1 2.777 2.778V173.61H80.556V65.278z" fill="#C0CCE2"/><path fill="#EEF6FF" fill-opacity=".95" d="M84.723 66.667h8.333v5.556h-8.333z"/><path fill="#EEF6FF" fill-opacity=".5" d="M84.723 86.111h8.333v5.556h-8.333z"/><path fill="#EEF6FF" fill-opacity=".95" d="M84.723 105.556h8.333v5.556h-8.333z"/><path fill="#EEF6FF" fill-opacity=".5" d="M84.723 125h8.333v5.556h-8.333zM84.723 144.444h8.333V150h-8.333zM84.723 163.889h8.333v5.556h-8.333z"/><path fill="#EEF6FF" fill-opacity=".95" d="M84.723 76.389h5.556v5.556h-5.556zM84.723 95.833h5.556v5.556h-5.556z"/><path fill="#EEF6FF" fill-opacity=".5" d="M84.723 115.278h5.556v5.556h-5.556z"/><path fill="#EEF6FF" fill-opacity=".95" d="M84.723 134.722h5.556v5.556h-5.556zM84.723 154.167h5.556v5.556h-5.556z"/><path fill="#EEF6FF" fill-opacity=".5" d="M97.222 66.667h8.333v5.556h-8.333z"/><path fill="#EEF6FF" fill-opacity=".95" d="M97.222 86.111h8.333v5.556h-8.333z"/><path fill="#EEF6FF" fill-opacity=".5" d="M97.222 105.556h8.333v5.556h-8.333z"/><path fill="#EEF6FF" fill-opacity=".95" d="M97.222 125h8.333v5.556h-8.333z"/><path fill="#EEF6FF" fill-opacity=".5" d="M97.222 144.444h8.333V150h-8.333zM97.222 163.889h8.333v5.556h-8.333z"/><path fill="#EEF6FF" fill-opacity=".95" d="M94.444 76.389h13.889v5.556H94.444zM94.444 95.833h13.889v5.556H94.444zM94.444 115.278h13.889v5.556H94.444zM94.444 134.722h13.889v5.556H94.444z"/><path fill="#EEF6FF" fill-opacity=".5" d="M94.444 154.167h13.889v5.556H94.444z"/><path fill="#EEF6FF" fill-opacity=".95" d="M109.722 66.667h8.333v5.556h-8.333z"/><path fill="#EEF6FF" fill-opacity=".5" d="M109.722 86.111h8.333v5.556h-8.333z"/><path fill="#EEF6FF" fill-opacity=".95" d="M109.722 105.556h8.333v5.556h-8.333z"/><path fill="#EEF6FF" fill-opacity=".5" d="M109.722 125h8.333v5.556h-8.333z"/><path fill="#EEF6FF" fill-opacity=".95" d="M109.722 144.444h8.333V150h-8.333zM109.722 163.889h8.333v5.556h-8.333zM112.5 76.389h5.556v5.556H112.5zM112.5 95.833h5.556v5.556H112.5zM112.5 115.278h5.556v5.556H112.5zM112.5 134.722h5.556v5.556H112.5zM112.5 154.167h5.556v5.556H112.5z"/><path fill="#929AA5" d="M88.89 59.722h5.556V62.5H88.89zM106.944 59.722h5.556V62.5h-5.556zM90.277 58.333h2.778v1.389h-2.778zM108.334 58.333h2.778v1.389h-2.778z"/><path d="M91.68 47.5c0 .517-.244.983-.64 1.322 1.197.495 2.016 1.561 2.016 2.8v1.156h-.96v-1.156c0-1.244-1.127-2.26-2.56-2.26v-.834c.652 0 1.184-.461 1.184-1.028h.96z" fill="#E8F1F6"/><path d="M89.235 50.944h-.98a2.32 2.32 0 0 1-1.516-.545c-.402-.349-.628-.822-.628-1.316 0-.493.226-.967.628-1.316a2.32 2.32 0 0 1 1.516-.545v.834c-.652 0-1.184.405-1.184.972 0 .566.532 1.11 1.184 1.11h.98c1.197 0 2.22.757 2.22 1.757v.883h-.96v-.695c0-.727-.588-1.139-1.26-1.139zM109.71 50.278c0 .516.243.983.64 1.322-1.197.494-2.016 1.561-2.016 2.8v1.156h.96V54.4c0-1.244 1.126-2.261 2.56-2.261v-.833c-.653 0-1.184-.462-1.184-1.028h-.96z" fill="#E8F1F6"/><path d="M112.155 53.722h.979c.569 0 1.114-.196 1.516-.545.402-.349.628-.822.628-1.316 0-.493-.226-.967-.628-1.316a2.319 2.319 0 0 0-1.516-.545v.833c.653 0 1.184.406 1.184.973 0 .566-.531 1.11-1.184 1.11h-.979c-1.197 0-2.221.756-2.221 1.756v.884h.96v-.695c0-.728.589-1.139 1.261-1.139z" fill="#E8F1F6"/><path d="M38.89 123.611a2.778 2.778 0 0 1 2.777-2.778h38.89v52.778H38.89v-50z" fill="#C0CCE2"/><path fill="#EEF6FF" fill-opacity=".5" d="M43.057 125h8.333v5.556h-8.333zM43.057 144.444h8.333V150h-8.333zM43.057 163.889h8.333v5.556h-8.333z"/><path fill="#EEF6FF" fill-opacity=".95" d="M43.057 134.722h5.556v5.556h-5.556zM43.057 154.167h5.556v5.556h-5.556zM55.556 125h8.333v5.556h-8.333z"/><path fill="#EEF6FF" fill-opacity=".5" d="M55.556 144.444h8.333V150h-8.333zM55.556 163.889h8.333v5.556h-8.333z"/><path fill="#EEF6FF" fill-opacity=".95" d="M52.778 134.722h13.889v5.556H52.778z"/><path fill="#EEF6FF" fill-opacity=".5" d="M52.778 154.167h13.889v5.556H52.778zM68.056 125h8.333v5.556h-8.333z"/><path fill="#EEF6FF" fill-opacity=".95" d="M68.056 144.444h8.333V150h-8.333zM68.056 163.889h8.333v5.556h-8.333zM70.834 134.722h5.556v5.556h-5.556zM70.834 154.167h5.556v5.556h-5.556z"/><path fill="#929AA5" d="M47.224 118.055h5.556v2.778h-5.556zM65.278 118.055h5.556v2.778h-5.556z"/><path fill="#929AA5" d="M48.611 116.667h2.778v1.389h-2.778zM66.667 116.667h2.778v1.389h-2.778z"/><path d="M50.013 105.833c0 .517-.243.984-.64 1.322 1.197.495 2.016 1.562 2.016 2.8v1.156h-.96v-1.156c0-1.244-1.127-2.261-2.56-2.261v-.833c.652 0 1.184-.461 1.184-1.028h.96z" fill="#E8F1F6"/><path d="M47.568 109.278h-.98a2.32 2.32 0 0 1-1.516-.545c-.402-.349-.628-.823-.628-1.316 0-.494.226-.967.628-1.316a2.321 2.321 0 0 1 1.517-.546v.834c-.653 0-1.185.405-1.185.972s.532 1.111 1.184 1.111h.98c1.197 0 2.22.756 2.22 1.756v.883h-.96v-.694c0-.728-.588-1.139-1.26-1.139zM68.044 108.611c0 .517.243.983.64 1.322-1.197.495-2.016 1.561-2.016 2.8v1.156h.96v-1.156c0-1.244 1.126-2.261 2.56-2.261v-.833c-.653 0-1.184-.461-1.184-1.028h-.96z" fill="#E8F1F6"/><path d="M70.489 112.055h.98a2.32 2.32 0 0 0 1.515-.545c.402-.349.628-.822.628-1.316 0-.493-.226-.967-.628-1.316a2.32 2.32 0 0 0-1.516-.545v.834c.653 0 1.184.405 1.184.972 0 .566-.531 1.111-1.184 1.111h-.98c-1.196 0-2.22.755-2.22 1.755v.884h.96v-.695c0-.727.589-1.139 1.26-1.139z" fill="#E8F1F6"/><path d="M39.097 61.111c-6.24 0-11.319 5.078-11.319 11.312-.04 9.118 10.89 16.68 11.32 16.985 0 0 11.359-7.867 11.318-16.978 0-6.241-5.078-11.319-11.319-11.319zm0 16.978a5.658 5.658 0 0 1-5.66-5.66 5.658 5.658 0 0 1 5.66-5.659 5.658 5.658 0 0 1 5.66 5.66 5.658 5.658 0 0 1-5.66 5.66zM141.875 127.778c-6.241 0-11.319 5.078-11.319 11.311-.041 9.119 10.888 16.68 11.319 16.986 0 0 11.359-7.867 11.318-16.978 0-6.241-5.078-11.319-11.318-11.319zm0 16.978a5.658 5.658 0 0 1-5.66-5.659 5.659 5.659 0 0 1 5.66-5.66 5.658 5.658 0 0 1 5.659 5.66 5.658 5.658 0 0 1-5.659 5.659zM271.042 61.111c-6.241 0-11.319 5.078-11.319 11.312-.041 9.118 10.888 16.68 11.319 16.985 0 0 11.359-7.867 11.318-16.978 0-6.241-5.078-11.319-11.318-11.319zm0 16.978a5.658 5.658 0 0 1-5.66-5.66 5.658 5.658 0 0 1 5.66-5.659 5.658 5.658 0 0 1 5.659 5.66 5.658 5.658 0 0 1-5.659 5.66zM272.431 127.778c-6.241 0-11.319 5.078-11.319 11.311-.041 9.119 10.889 16.68 11.319 16.986 0 0 11.36-7.867 11.319-16.978 0-6.241-5.078-11.319-11.319-11.319zm0 16.978a5.658 5.658 0 0 1-5.659-5.659 5.658 5.658 0 0 1 5.659-5.66 5.659 5.659 0 0 1 5.66 5.66 5.658 5.658 0 0 1-5.66 5.659z" fill="#1B4589"/><path d="M61.111 74.306H250M159.723 140.972h93.055" stroke="#1B4589" stroke-width="1.389" stroke-linecap="round" stroke-linejoin="round" stroke-dasharray="8.33 8.33"/><path d="M0 173.611h375v27.778c0 11.506-9.327 20.833-20.833 20.833H27.777C12.438 222.222 0 209.786 0 194.444v-20.833z" fill="#1C2229"/><path d="M0 173.611h375v4.167H0v-4.167z" fill="#272E37"/><path d="M142 173.5h129.5L269 178H146l-4-4.5z" fill="#D0AA72"/><path fill="#252C34" d="M127.798 151.636h-1.578v6.42h1.578zM121.484 154.445h.789v3.611h-.789zM129.967 148.426l-1.183-.802-2.565 4.012h1.578l2.17-3.21z"/><path fill="#252C34" d="M123.062 154.846v-.803h-2.367v.803z"/><path d="M115.294 147.841a7.523 7.523 0 0 0-7.429-6.336h-8.122a2.006 2.006 0 0 0-2.007 2.006v11.034h18.63l-1.072-6.704z" fill="#D7E1F1" fill-opacity=".9" stroke="#1B4589" stroke-width="3.009" stroke-linejoin="round"/><path d="M134.505 159.561a3.511 3.511 0 0 0-3.511-3.511h-34.26a.502.502 0 0 0-.502.502v13.542h38.273v-10.533z" fill="#1B4589"/><ellipse rx="13.895" ry="14.13" transform="matrix(-1 0 0 1 97.894 169.27)" fill="#252C34"/><ellipse rx="6.947" ry="7.065" transform="matrix(-1 0 0 1 97.894 169.27)" fill="#8A929E"/><ellipse cx="123.7" cy="163.214" rx="3.97" ry="4.037" fill="#2051A1"/><ellipse rx="8.878" ry="9.028" transform="matrix(-1 0 0 1 126.415 174.307)" fill="#252C34"/><ellipse rx="2.977" ry="3.028" transform="matrix(-1 0 0 1 126.677 174.316)" fill="#8A929E"/><path fill="#252C34" d="M119.511 170.094h-11.442v7.223h11.442zM124.777 162.27a1.206 1.206 0 0 0-1.657.476 1.25 1.25 0 0 0 .432 1.651l18.647 11.716 1.603-3.13-19.025-10.713z"/><path fill="#C4C4C4" d="M145.157 164.075h-4.735v14.445h4.735z"/><path d="m148.512 179.323-8.088-.803 3.156 4.013h8.898c.383 0 .523-.505.195-.703l-4.161-2.507zM145.224 164.372a.379.379 0 0 0-.369-.297h-4.052a.38.38 0 0 0-.379.379v14.066l8.089.803-3.289-14.951z" fill="#252C34"/><path fill="#1C2229" d="M304.707 148.22h2.415v18.512h-2.415zM329.629 149.024h2.415v17.707h-2.415zM306.312 167.537h22.536v2.415h-22.536z"/><path d="M328.048 166.61c0-.377.306-.683.684-.683h.926v3.219h-1.61v-2.536zM325.63 168.341h2.414v2.415h-.804v.805h-1.61v-3.22z" fill="#1C2229"/><path d="m324.8 171.85 5.794-6.726 1.45 1.205V167.161l-5.634 6.009-1.61-1.32z" fill="#1C2229"/><path fill="#1C2229" d="M329.654 167.537h.805v.805h-.805zM306.312 165.927h.805v1.61h-.805z"/><path d="M302.206 146.247a2.052 2.052 0 0 1 1.887-1.247h28.586c.822 0 1.564.491 1.887 1.247l.715 1.679a1.366 1.366 0 0 1-1.257 1.903h-31.276a1.367 1.367 0 0 1-1.258-1.903l.716-1.679z" fill="#EC2941"/><path d="M308.728 158.22c0-.189.153-.342.341-.342h.926c.189 0 .342.153.342.342v1.268h-1.268a.342.342 0 0 1-.341-.342v-.926z" fill="#1C2229"/><path d="M309.507 158.683h1.268c.189 0 .342.153.342.342v1.268h-1.61v-1.61z" fill="#1C2229"/><rect x="309.507" y="159.488" width="1.61" height="2.415" rx=".342" fill="#1C2229"/><rect x="310.351" y="160.433" width="1.473" height="5.854" rx=".342" transform="rotate(50.988 310.351 160.433)" fill="#1C2229"/><path d="M322.385 155.463h1.731c.377 0 .683.306.683.684v8.975h-.804v.805h-1.61v-10.464z" fill="#1C2229"/><path fill="#1C2229" d="M319.996 165.122h2.415v2.415h-2.415z"/><path fill="#1C2229" d="M318.386 165.122h2.415v2.415h-2.415z"/><path d="M311.146 159.366c0-.377.306-.683.683-.683h4.146v.805h-4.829v-.122z" fill="#E8C7BE"/><path fill="#444656" d="M316.751 156.268h3.219v1.61h-3.219z"/><path d="m316.378 158.683.373-1.61 4.858 3.22h-8.077l-2.012-1.61h4.858z" fill="#E8C7BE"/><path fill="#E8C7BE" d="M316.751 157.073h1.61v.805h-1.61z"/><path fill="#E8C7BE" d="M317.556 157.878h1.61v1.61h-1.61zM311.146 159.488h2.414v.805h-2.414v-.805z"/><path fill="#C4C4C4" d="M319.19 157.878h.805v2.415h-.805z"/><path d="M312.756 165.927h3.219v1.609h-3.219v-1.609z" fill="#1C2229"/><path d="M311.139 167.315a1.367 1.367 0 0 1 1.367-1.388h1.831l.025 1.609h-3.22l-.003-.221z" fill="#1C2229"/><path fill="#EC2941" d="M318.386 161.098h4.024v4.024h-4.024z"/><path d="M313.557 163.049c0-.189.153-.342.341-.342h8.512v2.415h-8.853v-2.073z" fill="#EC2941"/><path d="M312.756 164.659c0-.189.153-.342.342-.342h2.877v1.61h-3.219v-1.268z" fill="#EC2941"/><path d="M317.585 155.463h4.829v5.634h-4.829v-5.634z" fill="#444656"/><path d="M315.946 163.17c0 .189.153.342.342.342h2.878v-.805h-3.22v.463z" fill="#EC2941"/><path d="M317.581 151.318c0-.378.306-.684.684-.684h4.145v4.829h-4.829v-4.145z" fill="#EDBF9F"/><path d="M318.386 150.634h4.145c.378 0 .684.306.684.684v.121h-4.829v-.805zM322.41 151.439h.805v4.829h-.805z" fill="#F4E2CC"/><path d="M295.85 165.927h9.779c.378 0 .684.306.684.683v5.756H295.85v-6.439z" fill="#EC2941"/><path d="M306.312 169.951h19.292l.83 3.22h-20.122v-3.22z" fill="#EC2941"/><path d="m314.214 181.441 11.391-11.49 3.452.4-10.292 10.95a3.22 3.22 0 0 1-4.551.14z" fill="#EC2941"/><path fill="#EC2941" d="M306.312 170.756h18.512v3.219h-18.512z"/><path fill="#EC2941" d="M305.508 171.561h18.512v3.219h-18.512z"/><path fill="#EC2941" d="M304.703 172.366h18.512v3.219h-18.512z"/><path fill="#EC2941" d="M304.703 173.17h17.707v3.219h-17.707z"/><path fill="#EC2941" d="M304.703 173.976h16.902v3.219h-16.902z"/><path fill="#EC2941" d="M304.703 174.78H320.8v3.219h-16.097z"/><path fill="#EC2941" d="M304.703 175.585h15.293v3.219h-15.293z"/><path fill="#EC2941" d="M304.703 176.39h14.488v3.219h-14.488z"/><path fill="#EC2941" d="M304.703 177.195h12.878v3.219h-12.878z"/><path fill="#EC2941" d="M294.239 178.805h22.536v3.219h-22.536z"/><path fill="#EC2941" d="M292.63 179.609h22.536v3.219H292.63z"/><path d="M291.852 180.414h20.904v3.22h-20.927l.023-3.22zM271.707 185.244h21.732v1.852c0 .755-.612 1.367-1.368 1.367h-21.169l.805-3.219z" fill="#EC2941"/><path d="M262.854 183.634h30.585v3.219h-30.585v-3.219zM295.85 173.17h8.049v4.829h-8.049z" fill="#EC2941"/><path d="M270.471 188.463c10.837 0 26.992-2.055 21.76-10.506 0-2.741 6.407-9.805 4.83-11.67-1.61-1.61-1.61-1.208-22.134-.805-6.171.121-11.336.888-14.99 2.324-5.755 2.261-4.114 9.363-.696 14.516l.364.55.061.102c1.061 1.805 2.257 3.513 3.992 4.684 1.581.848 1.911.805 6.813.805z" fill="#EC2941"/><path fill="#EC2941" d="M293.435 165.122h11.268v.805h-11.268zM291.825 170.756h15.293v12.073h-15.293zM312.727 182.024h4.024l2.817-1.61-.774.885a6.836 6.836 0 0 1-5.145 2.335h-.922v-1.61z"/><path d="M295.85 173.17v-.804h8.049v.804h.804V178h-.804v.805h-8.049V178h-.805v-4.83h.805z" fill="#BD2134"/><path d="M294.215 183.231h-.524a.684.684 0 0 0-.683.684v.524" stroke="#EC2941" stroke-width=".684"/><path d="M318.16 156.832h.524c.377 0 .683.306.683.683v.524" stroke="#444656" stroke-width=".342"/><rect x="265.61" y="188.805" width="54.048" height="8.975" rx="4.487" fill="#8A929E" stroke="#252C34" stroke-width=".684"/><circle cx="270.902" cy="193.292" r="2.415" fill="#252C34"/><circle cx="314.366" cy="193.292" r="2.415" fill="#252C34"/><path fill="#444656" d="M298.268 183.634h3.219v4.829h-3.219zM326.438 181.098c0-.378.307-.684.684-.684h11.511c.377 0 .683.306.683.684v7.365h-12.878v-7.365z"/><path d="M319.194 182.708c0-.378.306-.684.684-.684h6.56v4.829h-6.56a.683.683 0 0 1-.684-.683v-3.462z" fill="#444656"/><path fill="#444656" d="M314.365 184.439h4.829v1.61h-4.829z"/><path d="M312.756 185.122c0-.377.306-.683.684-.683h.926v4.024h-1.61v-3.341z" fill="#444656"/><path fill="#252C34" d="M322.414 188.463h17.707v9.658h-17.707z"/><path fill="#444656" d="M300.683 188.463h-1.61v3.219h1.61zM309.536 191.683h-10.463v.242c0 .755.612 1.367 1.367 1.367h9.096v-1.609z"/><path d="m312.756 187.658-4.024 4.025.804 1.609 4.83-4.829-1.61-.805z" fill="#444656"/><path d="M293.761 167.819c-.088.345-.58.343-.664-.004l-.703-2.886h2.1l-.733 2.89z" fill="#BFCCE2"/><path fill="#444656" d="M300.683 188.463h-1.61v3.219h1.61zM309.536 191.683h-10.463v.242c0 .755.612 1.367 1.367 1.367h9.096v-1.609z"/><path d="m312.756 187.658-4.024 4.025.804 1.609 4.83-4.829-1.61-.805z" fill="#444656"/><path d="M293.761 167.819c-.088.345-.58.343-.664-.004l-.703-2.886h2.1l-.733 2.89z" fill="#BFCCE2"/></g><defs><clipPath id="a"><path fill="#fff" d="M0 0h375v222.222H0z"/></clipPath></defs></svg>