<svg width="88" height="88" fill="none" xmlns="http://www.w3.org/2000/svg"><circle cx="44" cy="44" r="42.5" fill="#fff" stroke="#C4D3F0" stroke-width="3"/><circle cx="44" cy="44" r="35" fill="#3A6ACB"/><path fill-rule="evenodd" clip-rule="evenodd" d="M42.114 33.215c-5.389 5.443-5.453 5.514-5.681 6.228-.098.308-.104.748-.104 8.703v8.379l.125.333c.339.911 1.065 1.649 1.917 1.948.548.192.634.194 7.968.194 7.335 0 7.42-.002 7.969-.194.393-.138.784-.393 1.145-.748.35-.343.455-.494.697-1.007.157-.332.285-.617.285-.635 0-.016.06-.166.136-.331.074-.166.205-.468.289-.672.084-.204.214-.506.29-.671.074-.166.135-.313.135-.327 0-.014.077-.193.17-.398.094-.206.17-.385.17-.399 0-.014.062-.16.136-.326.075-.166.206-.468.29-.672.084-.203.214-.506.29-.671a3.41 3.41 0 0 0 .135-.326c0-.014.061-.16.136-.326.114-.255.443-1.016.75-1.74.171-.404.252-.593.33-.77.046-.102.24-.557.431-1.011.192-.455.401-.942.465-1.084.064-.14.182-.423.264-.627l.148-.37v-2.194c0-2.448-.008-2.508-.404-3.174a3.245 3.245 0 0 0-1.638-1.368l-.397-.156-5.203-.02c-2.862-.01-5.204-.031-5.204-.047 0-.03.25-1.195.346-1.62a99.86 99.86 0 0 0 .331-1.495c.03-.134.07-.332.091-.442.021-.11.058-.29.083-.399l.107-.485c.033-.156.098-.451.143-.655.496-2.232.499-2.687.022-3.641-.148-.296-.358-.546-1-1.188-.448-.448-.856-.813-.908-.811-.051.002-2.416 2.348-5.255 5.215zM27 49.655v9.29l.128.031c.07.017 1.467.024 3.105.015l2.977-.016.014-9.304.015-9.305H27v9.29z" fill="#fff"/></svg>