<svg width="47" height="44" fill="none" xmlns="http://www.w3.org/2000/svg"><path d="M.5 22c0-12.15 9.85-22 22-22h2c12.15 0 22 9.85 22 22s-9.85 22-22 22h-2c-12.15 0-22-9.85-22-22z" fill="#3A6ACB"/><path d="M16.242 28h2.281v-5.055c0-.937.586-1.593 1.454-1.593.843 0 1.351.53 1.351 1.43V28h2.195v-5.086c0-.93.57-1.562 1.438-1.562.883 0 1.367.53 1.367 1.5V28h2.281v-5.719c0-1.687-1.101-2.812-2.742-2.812-1.226 0-2.226.664-2.601 1.718h-.047c-.282-1.093-1.125-1.718-2.336-1.718-1.14 0-2.04.664-2.39 1.672h-.048v-1.516h-2.203V28zm13.313-12.297v.04h1.64v-.04c0-.344.258-.601.602-.601s.578.203.578.492c0 .219-.117.414-.445.719l-2.266 1.937v1.195h4.516v-1.343h-2.203v-.032l1.14-.976c.742-.625 1-1.055 1-1.649 0-.992-.89-1.656-2.234-1.656-1.414 0-2.328.75-2.328 1.914z" fill="#fff"/></svg>