<svg width="372" height="220" fill="none" xmlns="http://www.w3.org/2000/svg"><path d="M0 27.5C0 12.312 12.312 0 27.5 0h316.25c15.188 0 27.5 12.312 27.5 27.5v165c0 15.188-12.312 27.5-27.5 27.5H27.5C12.312 220 0 207.688 0 192.5v-165z" fill="#4E91E4" fill-opacity=".1"/><path d="M0 171.875h371.25v27.5c0 11.391-9.234 20.625-20.625 20.625H27.5C12.312 220 0 207.688 0 192.5v-20.625z" fill="#272E37"/><path d="M1 199.375h370.25c0 11.391-9.234 20.625-20.625 20.625H27.845A27.784 27.784 0 0 1 1 199.375z" fill="#1C2229"/><path d="M0 171.875h371.25V176H0v-4.125z" fill="#D0AA72"/><path d="M0 176h371.25v4.125H0V176z" fill="#ACA39D"/><path d="M131.678 69.014a8.052 8.052 0 0 0-2.276-4.782 7.912 7.912 0 0 0-9.87-1.13 8.01 8.01 0 0 0-3.282 4.147 5.294 5.294 0 0 0-3.544 1.788 5.37 5.37 0 0 0-1.326 3.763 5.366 5.366 0 0 0 1.629 3.64 5.286 5.286 0 0 0 3.678 1.49h15.039a4.405 4.405 0 0 0 3.12-1.324 4.478 4.478 0 0 0 1.279-3.159 4.473 4.473 0 0 0-1.312-3.145 4.406 4.406 0 0 0-3.135-1.288zM56.497 28.07a11.496 11.496 0 0 0-3.25-6.828 11.3 11.3 0 0 0-14.097-1.613 11.445 11.445 0 0 0-4.688 5.92 7.56 7.56 0 0 0-5.06 2.555 7.676 7.676 0 0 0-1.896 5.375 7.667 7.667 0 0 0 2.328 5.2 7.55 7.55 0 0 0 5.253 2.125h21.479a6.294 6.294 0 0 0 4.457-1.889 6.393 6.393 0 0 0 1.826-4.512 6.391 6.391 0 0 0-1.875-4.492 6.292 6.292 0 0 0-4.477-1.84zM308.312 27.579A9.395 9.395 0 0 0 305.656 22a9.233 9.233 0 0 0-11.515-1.317 9.353 9.353 0 0 0-3.829 4.836 6.176 6.176 0 0 0-4.134 2.087 6.27 6.27 0 0 0-1.548 4.39 6.26 6.26 0 0 0 1.902 4.247 6.166 6.166 0 0 0 4.29 1.737h17.545a5.14 5.14 0 0 0 3.641-1.543 5.222 5.222 0 0 0 1.492-3.686 5.22 5.22 0 0 0-1.531-3.67 5.14 5.14 0 0 0-3.657-1.502zM211.686 113.976a7.586 7.586 0 0 0-2.145-4.505 7.458 7.458 0 0 0-9.299-1.064 7.55 7.55 0 0 0-3.092 3.906 4.983 4.983 0 0 0-3.338 1.684 5.067 5.067 0 0 0 .285 6.976 4.98 4.98 0 0 0 3.465 1.402h14.169a4.152 4.152 0 0 0 2.94-1.246 4.218 4.218 0 0 0 1.204-2.976 4.214 4.214 0 0 0-1.236-2.963 4.148 4.148 0 0 0-2.953-1.214z" fill="#F8FCFF"/><path d="M39.753 97.476a7.583 7.583 0 0 0-2.145-4.505 7.454 7.454 0 0 0-9.299-1.064 7.549 7.549 0 0 0-3.091 3.906 4.987 4.987 0 0 0-3.339 1.684 5.064 5.064 0 0 0-1.25 3.546 5.058 5.058 0 0 0 1.536 3.43 4.979 4.979 0 0 0 3.464 1.402h14.169a4.15 4.15 0 0 0 2.94-1.246 4.218 4.218 0 0 0 1.205-2.976 4.216 4.216 0 0 0-1.237-2.963 4.15 4.15 0 0 0-2.953-1.214z" fill="#E8F1F6"/><path d="M205.481 31.323A8.966 8.966 0 0 0 202.946 26a8.81 8.81 0 0 0-10.989-1.257 8.918 8.918 0 0 0-3.654 4.615 5.895 5.895 0 0 0-3.946 1.991 5.982 5.982 0 0 0-1.477 4.19 5.975 5.975 0 0 0 1.815 4.054 5.883 5.883 0 0 0 4.094 1.657h16.745a4.908 4.908 0 0 0 3.475-1.473 4.985 4.985 0 0 0 1.423-3.517 4.98 4.98 0 0 0-1.461-3.502 4.906 4.906 0 0 0-3.49-1.435zM179.558 21.544a4.134 4.134 0 0 0-1.169-2.458 4.064 4.064 0 0 0-5.072-.58 4.114 4.114 0 0 0-1.687 2.13 2.721 2.721 0 0 0-1.821.92 2.765 2.765 0 0 0 .156 3.804 2.715 2.715 0 0 0 1.89.765h7.728a2.265 2.265 0 0 0 1.604-.68 2.3 2.3 0 0 0-.018-3.24 2.264 2.264 0 0 0-1.611-.661z" fill="#F8FCFF"/><path d="M288.75 81.125H330v90.75h-41.25v-90.75z" fill="#C0CCE2"/><path fill="#EEF6FF" fill-opacity=".5" d="M325.875 85.25h-8.25v5.5h8.25z"/><path fill="#EEF6FF" fill-opacity=".95" d="M325.875 104.5h-8.25v5.5h8.25z"/><path fill="#EEF6FF" fill-opacity=".5" d="M325.875 123.75h-8.25v5.5h8.25zM325.875 143h-8.25v5.5h8.25zM325.875 162.25h-8.25v5.5h8.25z"/><path fill="#EEF6FF" fill-opacity=".95" d="M325.875 94.875h-5.5v5.5h5.5z"/><path fill="#EEF6FF" fill-opacity=".5" d="M325.875 114.125h-5.5v5.5h5.5z"/><path fill="#EEF6FF" fill-opacity=".95" d="M325.875 133.375h-5.5v5.5h5.5zM325.875 152.625h-5.5v5.5h5.5zM313.5 85.25h-8.25v5.5h8.25z"/><path fill="#EEF6FF" fill-opacity=".5" d="M313.5 104.5h-8.25v5.5h8.25z"/><path fill="#EEF6FF" fill-opacity=".95" d="M313.5 123.75h-8.25v5.5h8.25z"/><path fill="#EEF6FF" fill-opacity=".5" d="M313.5 143h-8.25v5.5h8.25zM313.5 162.25h-8.25v5.5h8.25z"/><path fill="#EEF6FF" fill-opacity=".95" d="M316.25 94.875H302.5v5.5h13.75zM316.25 114.125H302.5v5.5h13.75zM316.25 133.375H302.5v5.5h13.75z"/><path fill="#EEF6FF" fill-opacity=".5" d="M316.25 152.625H302.5v5.5h13.75zM301.125 85.25h-8.25v5.5h8.25z"/><path fill="#EEF6FF" fill-opacity=".95" d="M301.125 104.5h-8.25v5.5h8.25z"/><path fill="#EEF6FF" fill-opacity=".5" d="M301.125 123.75h-8.25v5.5h8.25z"/><path fill="#EEF6FF" fill-opacity=".95" d="M301.125 143h-8.25v5.5h8.25zM301.125 162.25h-8.25v5.5h8.25zM298.375 94.875h-5.5v5.5h5.5zM298.375 114.125h-5.5v5.5h5.5zM298.375 133.375h-5.5v5.5h5.5zM298.375 152.625h-5.5v5.5h5.5z"/><path fill="#929AA5" d="M320.375 78.375h-5.5v2.75h5.5zM303.875 78.375h-5.5v2.75h5.5zM319 77h-2.75v1.375H319zM302.5 77h-2.75v1.375h2.75z"/><path d="M317.612 66.275c0 .511.241.974.634 1.309-1.185.49-1.996 1.545-1.996 2.772V71.5h.95v-1.144c0-1.232 1.116-2.238 2.535-2.238v-.825c-.646 0-1.172-.457-1.172-1.018h-.951z" fill="#F8FCFF"/><path d="M320.033 69.685h.969c.563 0 1.103-.194 1.501-.54.398-.345.622-.814.622-1.302 0-.49-.224-.958-.622-1.303a2.296 2.296 0 0 0-1.501-.54v.825c.647 0 1.173.401 1.173.962 0 .561-.526 1.1-1.173 1.1h-.969c-1.185 0-2.199.748-2.199 1.739v.874h.951v-.688c0-.72.583-1.127 1.248-1.127zM301.138 69.025c0 .511-.241.974-.634 1.309 1.185.49 1.996 1.545 1.996 2.772v1.144h-.95v-1.144c0-1.232-1.116-2.238-2.535-2.238v-.825c.646 0 1.172-.457 1.172-1.018h.951z" fill="#F8FCFF"/><path d="M298.717 72.435h-.969a2.296 2.296 0 0 1-1.501-.54c-.398-.345-.622-.814-.622-1.302 0-.49.224-.958.622-1.303.398-.346.938-.54 1.501-.54v.825c-.647 0-1.173.401-1.173.962 0 .561.526 1.1 1.173 1.1h.969c1.185 0 2.199.748 2.199 1.739v.874h-.951v-.688c0-.72-.583-1.127-1.248-1.127z" fill="#F8FCFF"/><path d="M371.25 34.375a2.75 2.75 0 0 0-2.75-2.75h-35.75a2.75 2.75 0 0 0-2.75 2.75v137.5h41.25v-137.5z" fill="#C0CCE2"/><path fill="#EEF6FF" fill-opacity=".95" d="M367.125 132h-8.25v5.5h8.25z"/><path fill="#EEF6FF" fill-opacity=".5" d="M367.125 151.25h-8.25v5.5h8.25z"/><path fill="#EEF6FF" fill-opacity=".95" d="M367.125 141.625h-5.5v5.5h5.5z"/><path fill="#EEF6FF" fill-opacity=".5" d="M367.125 160.875h-5.5v5.5h5.5zM354.75 132h-8.25v5.5h8.25zM354.75 151.25h-8.25v5.5h8.25zM357.5 141.625h-13.75v5.5h13.75z"/><path fill="#EEF6FF" fill-opacity=".95" d="M357.5 160.875h-13.75v5.5h13.75zM342.375 132h-8.25v5.5h8.25z"/><path fill="#EEF6FF" fill-opacity=".5" d="M342.375 151.25h-8.25v5.5h8.25z"/><path fill="#EEF6FF" fill-opacity=".95" d="M339.625 141.625h-5.5v5.5h5.5zM339.625 160.875h-5.5v5.5h5.5z"/><path fill="#8A929E" fill-opacity=".9" d="M343.75 30.25h13.75v1.375h-13.75z"/><path fill="#929AA5" d="M367.125 28.875h-5.5v2.75h5.5zM339.625 28.875h-5.5v2.75h5.5zM365.75 27.5H363v1.375h2.75zM338.25 27.5h-2.75v1.375h2.75z"/><path d="M364.388 19.525c0 .512-.241.974-.634 1.309 1.185.49 1.996 1.546 1.996 2.772v1.144h-.95v-1.144c0-1.232-1.116-2.239-2.535-2.239v-.825c.646 0 1.172-.456 1.172-1.017h.951z" fill="#F8FCFF"/><path d="M361.967 22.935h-.969a2.296 2.296 0 0 1-1.501-.54c-.398-.345-.622-.814-.622-1.302 0-.49.224-.958.622-1.303.398-.346.938-.54 1.501-.54v.825c-.647 0-1.173.402-1.173.963 0 .56.526 1.1 1.173 1.1h.969c1.185 0 2.199.747 2.199 1.737v.875h-.951v-.688c0-.72-.583-1.127-1.248-1.127zM336.862 18.15c0 .512.241.974.634 1.309-1.185.49-1.996 1.546-1.996 2.772v1.144h.95v-1.144c0-1.232 1.116-2.239 2.535-2.239v-.825c-.646 0-1.172-.456-1.172-1.017h-.951z" fill="#F8FCFF"/><path d="M339.283 21.56h.969c.563 0 1.103-.194 1.501-.54.398-.345.622-.814.622-1.302 0-.49-.224-.958-.622-1.303a2.296 2.296 0 0 0-1.501-.54v.825c.647 0 1.173.402 1.173.963 0 .56-.526 1.1-1.173 1.1h-.969c-1.185 0-2.199.747-2.199 1.737v.875h.951v-.688c0-.72.583-1.127 1.248-1.127z" fill="#F8FCFF"/><path fill="#EEF6FF" fill-opacity=".5" d="M367.125 35.75h-8.25v5.5h8.25z"/><path fill="#EEF6FF" fill-opacity=".95" d="M367.125 55h-8.25v5.5h8.25zM367.125 74.25h-8.25v5.5h8.25z"/><path fill="#EEF6FF" fill-opacity=".5" d="M367.125 93.5h-8.25V99h8.25z"/><path fill="#EEF6FF" fill-opacity=".95" d="M367.125 112.75h-8.25v5.5h8.25zM367.125 45.375h-5.5v5.5h5.5zM367.125 64.625h-5.5v5.5h5.5z"/><path fill="#EEF6FF" fill-opacity=".5" d="M367.125 83.875h-5.5v5.5h5.5z"/><path fill="#EEF6FF" fill-opacity=".95" d="M367.125 103.125h-5.5v5.5h5.5zM367.125 122.375h-5.5v5.5h5.5z"/><path fill="#EEF6FF" fill-opacity=".5" d="M354.75 35.75h-8.25v5.5h8.25z"/><path fill="#EEF6FF" fill-opacity=".95" d="M354.75 55h-8.25v5.5h8.25zM354.75 74.25h-8.25v5.5h8.25zM354.75 93.5h-8.25V99h8.25z"/><path fill="#EEF6FF" fill-opacity=".5" d="M354.75 112.75h-8.25v5.5h8.25z"/><path fill="#EEF6FF" fill-opacity=".95" d="M357.5 45.375h-13.75v5.5h13.75zM357.5 64.625h-13.75v5.5h13.75zM357.5 83.875h-13.75v5.5h13.75zM357.5 103.125h-13.75v5.5h13.75zM357.5 122.375h-13.75v5.5h13.75zM342.375 35.75h-8.25v5.5h8.25z"/><path fill="#EEF6FF" fill-opacity=".5" d="M342.375 55h-8.25v5.5h8.25zM342.375 74.25h-8.25v5.5h8.25zM342.375 93.5h-8.25V99h8.25z"/><path fill="#EEF6FF" fill-opacity=".95" d="M342.375 112.75h-8.25v5.5h8.25zM339.625 45.375h-5.5v5.5h5.5zM339.625 64.625h-5.5v5.5h5.5zM339.625 83.875h-5.5v5.5h5.5zM339.625 103.125h-5.5v5.5h5.5zM339.625 122.375h-5.5v5.5h5.5z"/><path d="M288.75 64.625a2.75 2.75 0 0 0-2.75-2.75h-35.75a2.75 2.75 0 0 0-2.75 2.75v107.25h41.25V64.625z" fill="#C0CCE2"/><path fill="#EEF6FF" fill-opacity=".95" d="M284.625 66h-8.25v5.5h8.25z"/><path fill="#EEF6FF" fill-opacity=".5" d="M284.625 85.25h-8.25v5.5h8.25z"/><path fill="#EEF6FF" fill-opacity=".95" d="M284.625 104.5h-8.25v5.5h8.25z"/><path fill="#EEF6FF" fill-opacity=".5" d="M284.625 123.75h-8.25v5.5h8.25zM284.625 143h-8.25v5.5h8.25zM284.625 162.25h-8.25v5.5h8.25z"/><path fill="#EEF6FF" fill-opacity=".95" d="M284.625 75.625h-5.5v5.5h5.5zM284.625 94.875h-5.5v5.5h5.5z"/><path fill="#EEF6FF" fill-opacity=".5" d="M284.625 114.125h-5.5v5.5h5.5z"/><path fill="#EEF6FF" fill-opacity=".95" d="M284.625 133.375h-5.5v5.5h5.5zM284.625 152.625h-5.5v5.5h5.5z"/><path fill="#EEF6FF" fill-opacity=".5" d="M272.25 66H264v5.5h8.25z"/><path fill="#EEF6FF" fill-opacity=".95" d="M272.25 85.25H264v5.5h8.25z"/><path fill="#EEF6FF" fill-opacity=".5" d="M272.25 104.5H264v5.5h8.25z"/><path fill="#EEF6FF" fill-opacity=".95" d="M272.25 123.75H264v5.5h8.25z"/><path fill="#EEF6FF" fill-opacity=".5" d="M272.25 143H264v5.5h8.25zM272.25 162.25H264v5.5h8.25z"/><path fill="#EEF6FF" fill-opacity=".95" d="M275 75.625h-13.75v5.5H275zM275 94.875h-13.75v5.5H275zM275 114.125h-13.75v5.5H275zM275 133.375h-13.75v5.5H275z"/><path fill="#EEF6FF" fill-opacity=".5" d="M275 152.625h-13.75v5.5H275z"/><path fill="#EEF6FF" fill-opacity=".95" d="M259.875 66h-8.25v5.5h8.25z"/><path fill="#EEF6FF" fill-opacity=".5" d="M259.875 85.25h-8.25v5.5h8.25z"/><path fill="#EEF6FF" fill-opacity=".95" d="M259.875 104.5h-8.25v5.5h8.25z"/><path fill="#EEF6FF" fill-opacity=".5" d="M259.875 123.75h-8.25v5.5h8.25z"/><path fill="#EEF6FF" fill-opacity=".95" d="M259.875 143h-8.25v5.5h8.25zM259.875 162.25h-8.25v5.5h8.25zM257.125 75.625h-5.5v5.5h5.5zM257.125 94.875h-5.5v5.5h5.5zM257.125 114.125h-5.5v5.5h5.5zM257.125 133.375h-5.5v5.5h5.5zM257.125 152.625h-5.5v5.5h5.5z"/><path fill="#929AA5" d="M279.125 59.125h-5.5v2.75h5.5zM262.625 59.125h-5.5v2.75h5.5zM277.75 57.75H275v1.375h2.75zM261.25 57.75h-2.75v1.375h2.75z"/><path d="M276.362 47.025c0 .511.241.974.634 1.309-1.185.49-1.996 1.545-1.996 2.772v1.144h.95v-1.144c0-1.232 1.116-2.239 2.535-2.239v-.825c-.646 0-1.172-.456-1.172-1.017h-.951z" fill="#F8FCFF"/><path d="M278.783 50.435h.969c.563 0 1.103-.194 1.501-.54.398-.345.622-.814.622-1.303 0-.488-.224-.957-.622-1.302a2.296 2.296 0 0 0-1.501-.54v.825c.647 0 1.173.401 1.173.962 0 .562-.526 1.1-1.173 1.1h-.969c-1.185 0-2.199.748-2.199 1.739v.874h.951v-.688c0-.72.583-1.127 1.248-1.127zM259.888 49.775c0 .511-.241.974-.634 1.309 1.185.49 1.996 1.545 1.996 2.772V55h-.95v-1.144c0-1.232-1.116-2.239-2.535-2.239v-.825c.646 0 1.172-.456 1.172-1.017h.951z" fill="#F8FCFF"/><path d="M257.467 53.185h-.969a2.296 2.296 0 0 1-1.501-.54c-.398-.345-.622-.814-.622-1.303 0-.488.224-.957.622-1.302.398-.346.938-.54 1.501-.54v.825c-.647 0-1.173.401-1.173.962 0 .562.526 1.1 1.173 1.1h.969c1.185 0 2.199.748 2.199 1.739V55h-.951v-.688c0-.72-.583-1.127-1.248-1.127z" fill="#F8FCFF"/><path d="M281.413 161.655a.243.243 0 0 1 .323-.121c.123.056.177.2.121.323l-4.339 9.555-.445-.202 4.34-9.555z" fill="#654321"/><path d="m276.185 170.807 2.222 1.009-.808 1.778a.976.976 0 0 1-1.292.485l-.445-.202a.977.977 0 0 1-.485-1.293l.808-1.777z" fill="#C5C9C7"/><path d="M125.032 161.361a.244.244 0 1 0-.448.194l4.169 9.631.448-.194-4.169-9.631z" fill="#654321"/><path d="m130.097 170.604-2.24.97.776 1.791a.976.976 0 0 0 1.284.508l.447-.194a.975.975 0 0 0 .508-1.283l-.775-1.792z" fill="#C5C9C7"/><path d="M310.75 172.562c0-.379.308-.687.688-.687h6.874c.38 0 .688.308.688.687v.688h-8.25v-.688z" fill="#8A929E"/><path d="M312.125 171.188c0-.38.308-.688.687-.688h4.126c.379 0 .687.308.687.688v.687h-5.5v-.687z" fill="#444656"/><path d="M310.75 169.812c0-.379.308-.687.688-.687h6.874c.38 0 .688.308.688.687v.688h-8.25v-.688z" fill="#8A929E"/><path d="M312.125 168.438c0-.38.308-.688.687-.688h4.126c.379 0 .687.308.687.688v.687h-5.5v-.687z" fill="#444656"/><path d="M310.75 167.062c0-.379.308-.687.688-.687h6.874c.38 0 .688.308.688.687v.688h-8.25v-.688z" fill="#8A929E"/><path d="M312.125 165.688c0-.38.308-.688.687-.688h4.126c.379 0 .687.308.687.688v.687h-5.5v-.687z" fill="#444656"/><path d="M310.75 164.312c0-.379.308-.687.688-.687h6.874c.38 0 .688.308.688.687V165h-8.25v-.688z" fill="#8A929E"/><path d="M312.125 162.938c0-.38.308-.688.687-.688h4.126c.379 0 .687.308.687.688v.687h-5.5v-.687z" fill="#444656"/><path d="M310.75 161.562c0-.379.308-.687.688-.687h6.874c.38 0 .688.308.688.687v.688h-8.25v-.688z" fill="#8A929E"/><path d="M312.125 160.188c0-.38.308-.688.687-.688h4.126c.379 0 .687.308.687.688v.687h-5.5v-.687z" fill="#444656"/><path d="M310.75 158.812c0-.379.308-.687.688-.687h6.874c.38 0 .688.308.688.687v.688h-8.25v-.688z" fill="#8A929E"/><path d="M312.125 157.438c0-.38.308-.688.687-.688h4.126c.379 0 .687.308.687.688v.687h-5.5v-.687z" fill="#444656"/><path d="M310.75 156.062c0-.379.308-.687.688-.687h6.874c.38 0 .688.308.688.687v.688h-8.25v-.688z" fill="#8A929E"/><path d="M312.125 154.688c0-.38.308-.688.687-.688h4.126c.379 0 .687.308.687.688v.687h-5.5v-.687z" fill="#444656"/><path d="M301.125 161.562c0-.379.308-.687.687-.687h6.876c.379 0 .687.308.687.687v.688h-8.25v-.688z" fill="#8A929E"/><path d="M302.5 160.188c0-.38.308-.688.688-.688h4.124c.38 0 .688.308.688.688v.687h-5.5v-.687z" fill="#444656"/><path d="M301.125 158.812c0-.379.308-.687.687-.687h6.876c.379 0 .687.308.687.687v.688h-8.25v-.688z" fill="#8A929E"/><path d="M302.5 157.438c0-.38.308-.688.688-.688h4.124c.38 0 .688.308.688.688v.687h-5.5v-.687z" fill="#444656"/><path d="M301.125 156.062c0-.379.308-.687.687-.687h6.876c.379 0 .687.308.687.687v.688h-8.25v-.688z" fill="#8A929E"/><path d="M302.5 154.688c0-.38.308-.688.688-.688h4.124c.38 0 .688.308.688.688v.687h-5.5v-.687z" fill="#444656"/><path d="M301.125 164.312c0-.379.308-.687.687-.687h6.876c.379 0 .687.308.687.687V165h-8.25v-.688z" fill="#8A929E"/><path d="M302.5 162.938c0-.38.308-.688.688-.688h4.124c.38 0 .688.308.688.688v.687h-5.5v-.687z" fill="#444656"/><path d="M301.125 167.062c0-.379.308-.687.687-.687h6.876c.379 0 .687.308.687.687v.688h-8.25v-.688z" fill="#8A929E"/><path d="M302.5 165.688c0-.38.308-.688.688-.688h4.124c.38 0 .688.308.688.688v.687h-5.5v-.687z" fill="#444656"/><path d="M301.125 169.812c0-.379.308-.687.687-.687h6.876c.379 0 .687.308.687.687v.688h-8.25v-.688z" fill="#8A929E"/><path d="M302.5 168.438c0-.38.308-.688.688-.688h4.124c.38 0 .688.308.688.688v.687h-5.5v-.687z" fill="#444656"/><path d="M301.125 172.562c0-.379.308-.687.687-.687h6.876c.379 0 .687.308.687.687v.688h-8.25v-.688z" fill="#8A929E"/><path d="M302.5 171.188c0-.38.308-.688.688-.688h4.124c.38 0 .688.308.688.688v.687h-5.5v-.687z" fill="#444656"/><path d="M291.5 172.562c0-.379.308-.687.688-.687h6.874c.38 0 .688.308.688.687v.688h-8.25v-.688z" fill="#8A929E"/><path d="M292.875 171.188c0-.38.308-.688.687-.688h4.126c.379 0 .687.308.687.688v.687h-5.5v-.687z" fill="#444656"/><path d="M291.5 169.812c0-.379.308-.687.688-.687h6.874c.38 0 .688.308.688.687v.688h-8.25v-.688z" fill="#8A929E"/><path d="M292.875 168.438c0-.38.308-.688.687-.688h4.126c.379 0 .687.308.687.688v.687h-5.5v-.687z" fill="#444656"/><path d="M291.5 167.062c0-.379.308-.687.688-.687h6.874c.38 0 .688.308.688.687v.688h-8.25v-.688z" fill="#8A929E"/><path d="M292.875 165.688c0-.38.308-.688.687-.688h4.126c.379 0 .687.308.687.688v.687h-5.5v-.687z" fill="#444656"/><path d="M291.5 164.312c0-.379.308-.687.688-.687h6.874c.38 0 .688.308.688.687V165h-8.25v-.688z" fill="#8A929E"/><path d="M292.875 162.938c0-.38.308-.688.687-.688h4.126c.379 0 .687.308.687.688v.687h-5.5v-.687z" fill="#444656"/><path d="M291.5 161.562c0-.379.308-.687.688-.687h6.874c.38 0 .688.308.688.687v.688h-8.25v-.688z" fill="#8A929E"/><path d="M292.875 160.188c0-.38.308-.688.687-.688h4.126c.379 0 .687.308.687.688v.687h-5.5v-.687z" fill="#444656"/><path d="M291.5 158.812c0-.379.308-.687.688-.687h6.874c.38 0 .688.308.688.687v.688h-8.25v-.688z" fill="#8A929E"/><path d="M292.875 157.438c0-.38.308-.688.687-.688h4.126c.379 0 .687.308.687.688v.687h-5.5v-.687z" fill="#444656"/><path d="M291.5 156.062c0-.379.308-.687.688-.687h6.874c.38 0 .688.308.688.687v.688h-8.25v-.688z" fill="#8A929E"/><path d="M292.875 154.688c0-.38.308-.688.687-.688h4.126c.379 0 .687.308.687.688v.687h-5.5v-.687z" fill="#444656"/><path d="M281.875 172.562c0-.379.308-.687.687-.687h6.876c.379 0 .687.308.687.687v.688h-8.25v-.688z" fill="#8A929E"/><path d="M283.25 171.188c0-.38.308-.688.688-.688h4.124c.38 0 .688.308.688.688v.687h-5.5v-.687z" fill="#444656"/><path d="M281.875 169.812c0-.379.308-.687.687-.687h6.876c.379 0 .687.308.687.687v.688h-8.25v-.688z" fill="#8A929E"/><path d="M283.25 168.438c0-.38.308-.688.688-.688h4.124c.38 0 .688.308.688.688v.687h-5.5v-.687z" fill="#444656"/><path d="M281.875 167.062c0-.379.308-.687.687-.687h6.876c.379 0 .687.308.687.687v.688h-8.25v-.688z" fill="#8A929E"/><path d="M283.25 165.688c0-.38.308-.688.688-.688h4.124c.38 0 .688.308.688.688v.687h-5.5v-.687z" fill="#444656"/><path d="M281.875 164.312c0-.379.308-.687.687-.687h6.876c.379 0 .687.308.687.687V165h-8.25v-.688z" fill="#8A929E"/><path d="M283.25 162.938c0-.38.308-.688.688-.688h4.124c.38 0 .688.308.688.688v.687h-5.5v-.687z" fill="#444656"/><path d="M281.875 161.562c0-.379.308-.687.687-.687h6.876c.379 0 .687.308.687.687v.688h-8.25v-.688z" fill="#8A929E"/><path d="M283.25 160.188c0-.38.308-.688.688-.688h4.124c.38 0 .688.308.688.688v.687h-5.5v-.687z" fill="#444656"/><path d="M281.875 158.812c0-.379.308-.687.687-.687h6.876c.379 0 .687.308.687.687v.688h-8.25v-.688z" fill="#8A929E"/><path d="M283.25 157.438c0-.38.308-.688.688-.688h4.124c.38 0 .688.308.688.688v.687h-5.5v-.687z" fill="#444656"/><path d="M281.875 156.062c0-.379.308-.687.687-.687h6.876c.379 0 .687.308.687.687v.688h-8.25v-.688z" fill="#8A929E"/><path d="M283.25 154.688c0-.38.308-.688.688-.688h4.124c.38 0 .688.308.688.688v.687h-5.5v-.687z" fill="#444656"/><path fill="#654321" d="M51.044 132h4.125v39.875h-4.125z"/><path d="m47.004 132.582 1.245-.582 2.88 6.187v3.438l-4.125-9.043zM60.475 127.801l1.282.495-6.588 17.454v-4.125l5.306-13.824z" fill="#654321"/><path d="M76.606 111.719c0 2.136.467 3.866 0 5.843-.396 1.68-1.102 1.916-1.796 3.438-.849 1.864-1.22 5.314-2.454 6.875-1.396 1.765-4.39.785-6.188 2.063-1.69 1.202-2.162 3.445-4.125 4.124-2.168.752-5.165 2.063-7.562 2.063-2.397 0-4.706-1.999-6.875-2.75-1.962-.68-4.497 1.203-6.188 0-1.796-1.278-2.041-5.11-3.437-6.875-1.234-1.561-3.276-1.573-4.125-3.438-.693-1.521.688-4.124-1.348-5.5-1.402-1.374-.715-4.05-.715-6.187 0-1.89-.367-2.356 0-4.125.402-1.929.588-6.522 1.376-8.25.849-1.864 3.578-2.22 4.812-3.781 1.396-1.765 1.641-3.879 3.438-5.156 1.69-1.203 4.225-.695 6.187-1.376 2.169-.75 4.478-2.062 6.875-2.062 2.397 0 4.706 1.311 6.875 2.063 1.962.68 3.81-.516 5.5.687 1.797 1.278 4.792 3.047 6.188 4.813 1.234 1.56-.162 4.323.687 6.187.787 1.728 2.474 3.571 2.875 5.5.368 1.769 0 3.953 0 5.844z" fill="#3B8535"/><path d="M76.973 112.397c0 2.077.44 3.758 0 5.681-.374 1.633-1.04 1.863-1.694 3.342-.801 1.813-1.151 5.167-2.315 6.684-1.317 1.717-4.142.763-5.837 2.005-1.595 1.17-2.04 3.35-3.89 4.011-2.046.73-4.874 2.005-7.134 2.005-2.26 0-4.44-1.943-6.485-2.674-1.851-.661-4.242 1.17-5.837 0-1.694-1.242-1.926-4.967-3.242-6.684-1.164-1.517-3.09-1.529-3.891-3.342-.654-1.479.648-4.01-1.271-5.347-1.323-1.337-.675-3.938-.675-6.016 0-1.837-.347-2.29 0-4.01.379-1.875.555-6.34 1.297-8.021.801-1.812 3.376-2.158 4.54-3.676 1.316-1.716 1.548-3.77 3.242-5.013 1.595-1.17 3.986-.676 5.837-1.337 2.045-.73 4.224-2.005 6.485-2.005 2.26 0 4.44 1.275 6.485 2.005 1.85.661 3.593-.5 5.188.669 1.694 1.242 4.52 2.962 5.836 4.678 1.164 1.518-.152 4.204.649 6.016.742 1.68 2.334 3.472 2.712 5.347.347 1.72 0 3.844 0 5.682z" fill="#4DA046"/><path d="M56.375 170.5h-22v2.75h22v-2.75zM56.375 166.375h-22v2.75h22v-2.75zM56.375 162.25h-22V165h22v-2.75z" fill="#8A929E"/><path d="M56.375 169.812a.688.688 0 0 0-.688-.687H35.064a.688.688 0 0 0-.688.687v.688h22v-.688zM56.375 165.688a.688.688 0 0 0-.688-.688H35.064a.688.688 0 0 0-.688.688v.687h22v-.687zM56.375 161.562a.688.688 0 0 0-.688-.687H35.064a.688.688 0 0 0-.688.687v.688h22v-.688z" fill="#444656"/><path d="M218.625 170.93c0-.427.346-.774.773-.774h7.735c.427 0 .773.347.773.774v2.32h-9.281v-2.32zM206.25 170.93c0-.427.346-.774.773-.774h7.735c.427 0 .773.347.773.774v2.32h-9.281v-2.32zM193.875 170.93c0-.427.346-.774.773-.774h7.735c.427 0 .773.347.773.774v2.32h-9.281v-2.32zM200.062 167.836c0-.427.347-.774.774-.774h7.734c.427 0 .774.347.774.774v2.32h-9.282v-2.32zM212.438 167.836c0-.427.346-.774.773-.774h7.734c.427 0 .774.347.774.774v2.32h-9.281v-2.32zM206.25 164.742c0-.427.346-.773.773-.773h7.735c.427 0 .773.346.773.773v2.32h-9.281v-2.32zM181.5 170.93c0-.427.346-.774.773-.774h7.735c.427 0 .773.347.773.774v2.32H181.5v-2.32zM187.688 167.836c0-.427.346-.774.773-.774h7.734c.427 0 .774.347.774.774v2.32h-9.281v-2.32zM193.875 164.742c0-.427.346-.773.773-.773h7.735c.427 0 .773.346.773.773v2.32h-9.281v-2.32zM200.062 161.648c0-.427.347-.773.774-.773h7.734c.427 0 .774.346.774.773v2.321h-9.282v-2.321zM78.375 171.188c0-.38.308-.688.688-.688h6.874c.38 0 .688.308.688.688v2.062h-8.25v-2.062zM89.375 171.188c0-.38.308-.688.688-.688h6.874c.38 0 .688.308.688.688v2.062h-8.25v-2.062zM100.375 171.188c0-.38.308-.688.687-.688h6.876c.379 0 .687.308.687.688v2.062h-8.25v-2.062zM111.375 171.188c0-.38.308-.688.687-.688h6.876c.379 0 .687.308.687.688v2.062h-8.25v-2.062zM111.375 168.438c0-.38.308-.688.687-.688h6.876c.379 0 .687.308.687.688v2.062h-8.25v-2.062zM111.375 165.688c0-.38.308-.688.687-.688h6.876c.379 0 .687.308.687.688v2.062h-8.25v-2.062zM111.375 162.938c0-.38.308-.688.687-.688h6.876c.379 0 .687.308.687.688V165h-8.25v-2.062zM100.375 168.438c0-.38.308-.688.687-.688h6.876c.379 0 .687.308.687.688v2.062h-8.25v-2.062zM100.375 165.688c0-.38.308-.688.687-.688h6.876c.379 0 .687.308.687.688v2.062h-8.25v-2.062zM100.375 162.938c0-.38.308-.688.687-.688h6.876c.379 0 .687.308.687.688V165h-8.25v-2.062zM89.375 168.438c0-.38.308-.688.688-.688h6.874c.38 0 .688.308.688.688v2.062h-8.25v-2.062zM89.375 165.688c0-.38.308-.688.688-.688h6.874c.38 0 .688.308.688.688v2.062h-8.25v-2.062zM89.375 162.938c0-.38.308-.688.688-.688h6.874c.38 0 .688.308.688.688V165h-8.25v-2.062zM78.375 168.438c0-.38.308-.688.688-.688h6.874c.38 0 .688.308.688.688v2.062h-8.25v-2.062zM78.375 165.688c0-.38.308-.688.688-.688h6.874c.38 0 .688.308.688.688v2.062h-8.25v-2.062zM78.375 162.938c0-.38.308-.688.688-.688h6.874c.38 0 .688.308.688.688V165h-8.25v-2.062z" fill="#8A929E"/><path d="M321.658 163.424a1.948 1.948 0 0 1 3.277 0l24.659 38.357H297l24.658-38.357z" fill="#353535"/><path d="M298.334 172.849a1.948 1.948 0 0 1 3.176 0l24.709 34.776h-52.594l24.709-34.776z" fill="#424141"/><circle cx="297.974" cy="183.276" r=".974" fill="#DDD" fill-opacity=".25"/><circle cx="290.182" cy="191.068" r=".974" fill="#DDD" fill-opacity=".25"/><circle cx="299.349" cy="196.224" r=".974" fill="#DDD" fill-opacity=".25"/><circle cx="286.974" cy="200.349" r=".974" fill="#DDD" fill-opacity=".25"/><circle cx="306.224" cy="203.099" r=".974" fill="#DDD" fill-opacity=".25"/><circle cx="303.818" cy="189.12" r=".974" fill="#DDD" fill-opacity=".25"/><circle cx="313.557" cy="196.911" r=".974" fill="#DDD" fill-opacity=".25"/><circle cx="317.453" cy="183.276" r=".974" fill="#DDD" fill-opacity=".25"/><circle cx="323.297" cy="169.641" r=".974" fill="#DDD" fill-opacity=".25"/><circle cx="329.141" cy="179.38" r=".974" fill="#DDD" fill-opacity=".25"/><circle cx="319.401" cy="175.484" r=".974" fill="#DDD" fill-opacity=".25"/><circle cx="340.828" cy="193.016" r=".974" fill="#DDD" fill-opacity=".25"/><circle cx="327.193" cy="191.068" r=".974" fill="#DDD" fill-opacity=".25"/><circle cx="319.401" cy="193.016" r=".974" fill="#DDD" fill-opacity=".25"/><circle cx="334.985" cy="198.859" r=".974" fill="#DDD" fill-opacity=".25"/><path d="M152.362 145.614c.7-1.178 2.405-1.178 3.104 0l32.737 55.136h-68.578l32.737-55.136z" fill="#8A929E"/><path d="M185.156 175.049a1.375 1.375 0 0 1 2.313 0l17.406 27.076H167.75l17.406-27.076z" fill="#353535"/><path d="M168.692 181.703a1.374 1.374 0 0 1 2.241 0l17.442 24.547H151.25l17.442-24.547z" fill="#424141"/><circle cx="149.188" cy="168.438" r=".688" fill="#DDD" fill-opacity=".25"/><circle cx="157.438" cy="171.188" r=".688" fill="#DDD" fill-opacity=".25"/><circle cx="142.312" cy="178.062" r=".688" fill="#DDD" fill-opacity=".25"/><circle cx="153.312" cy="156.062" r=".688" fill="#DDD" fill-opacity=".25"/><circle cx="157.438" cy="187.688" r=".688" fill="#DDD" fill-opacity=".25"/><circle cx="154.688" cy="179.438" r=".688" fill="#DDD" fill-opacity=".25"/><circle cx="134.062" cy="195.938" r=".688" fill="#DDD" fill-opacity=".25"/><circle cx="145.062" cy="187.688" r=".688" fill="#DDD" fill-opacity=".25"/><circle cx="167.062" cy="176.688" r=".688" fill="#DDD" fill-opacity=".25"/><circle cx="151.938" cy="198.688" r=".688" fill="#DDD" fill-opacity=".25"/><circle cx="168.438" cy="189.062" r=".688" fill="#DDD" fill-opacity=".25"/><circle cx="162.938" cy="194.562" r=".688" fill="#DDD" fill-opacity=".25"/><circle cx="168.438" cy="198.688" r=".688" fill="#DDD" fill-opacity=".25"/><circle cx="160.188" cy="202.812" r=".688" fill="#DDD" fill-opacity=".25"/><circle cx="173.938" cy="204.188" r=".688" fill="#DDD" fill-opacity=".25"/><circle cx="172.562" cy="193.188" r=".688" fill="#DDD" fill-opacity=".25"/><circle cx="179.438" cy="198.688" r=".688" fill="#DDD" fill-opacity=".25"/><circle cx="182.188" cy="189.062" r=".688" fill="#DDD" fill-opacity=".25"/><circle cx="186.312" cy="179.438" r=".688" fill="#DDD" fill-opacity=".25"/><circle cx="190.438" cy="186.312" r=".688" fill="#DDD" fill-opacity=".25"/><circle cx="183.562" cy="183.562" r=".688" fill="#DDD" fill-opacity=".25"/><circle cx="198.688" cy="195.938" r=".688" fill="#DDD" fill-opacity=".25"/><circle cx="189.062" cy="194.562" r=".688" fill="#DDD" fill-opacity=".25"/><circle cx="183.562" cy="195.938" r=".688" fill="#DDD" fill-opacity=".25"/><circle cx="194.562" cy="200.062" r=".688" fill="#DDD" fill-opacity=".25"/></svg>