<svg width="88" height="88" fill="none" xmlns="http://www.w3.org/2000/svg"><circle cx="44" cy="44" r="42.5" fill="#fff" stroke="#C4D3F0" stroke-width="3"/><circle cx="44" cy="44" r="35" fill="#3A6ACB"/><path fill-rule="evenodd" clip-rule="evenodd" d="M31.21 32.368c-.211.05-.43.109-.486.129-1.5.537-2.635 1.676-3.118 3.127-.323.969-.333 2.394-.024 3.27.106.298.134.364.326.747a4.937 4.937 0 0 0 2.18 2.164c.212.105.431.205.486.221.858.258.908.266 1.762.266.649 0 .922-.02 1.178-.09 1.571-.43 2.677-1.322 3.34-2.695.19-.393.199-.42.35-1 .185-.707.182-1.884-.006-2.502-.143-.47-.271-.816-.377-1.016a4.055 4.055 0 0 0-.53-.824c-.732-.942-1.67-1.534-2.88-1.819-.475-.112-1.694-.1-2.2.022zm11.8-.041a7.663 7.663 0 0 0-.819.245c-.78.337-1.168.587-1.682 1.083-1.99 1.92-2.019 5.227-.061 7.201.652.658 1.387 1.073 2.383 1.345.256.07.53.091 1.178.091.856 0 .897-.006 1.766-.267.243-.073.932-.456 1.246-.693 1.492-1.127 2.257-3.068 1.924-4.884-.262-1.425-.992-2.589-2.095-3.34-.558-.38-.978-.56-1.731-.744-.442-.108-1.723-.13-2.109-.037zm11.57.022a7.648 7.648 0 0 0-.614.184c-1.29.456-2.48 1.586-2.919 2.776-.047.128-.105.279-.128.335-.205.49-.306 1.626-.21 2.349a4.97 4.97 0 0 0 2.706 3.808c.345.174.57.258 1.089.4.506.14 1.883.13 2.406-.017 1.866-.523 3.15-1.826 3.614-3.665.21-.834.163-2.088-.107-2.875a4.981 4.981 0 0 0-1.111-1.841c-.73-.771-1.525-1.218-2.586-1.455-.473-.105-1.704-.104-2.14.001zM43.062 45.68c-3.445.167-6.146 1.054-7.749 2.548-.488.454-.977 1.203-1.13 1.729a9.59 9.59 0 0 1-.12.386c-.06.17-.12 5.046-.067 5.263l.032.127h19.964V53.13c0-2.744-.004-2.796-.245-3.407-.096-.242-.305-.639-.368-.696a3.38 3.38 0 0 1-.176-.232c-.317-.444-1.034-1.062-1.67-1.44-.328-.194-1.208-.615-1.509-.721-.14-.05-.302-.11-.358-.133-.19-.078-.817-.253-1.357-.378a16.914 16.914 0 0 0-3.174-.422 40.076 40.076 0 0 1-.998-.047 15.22 15.22 0 0 0-1.075.026zm11.902.062c0 .027.184.244.408.483a7.29 7.29 0 0 1 1.569 2.587c.335.995.342 1.067.374 4.11l.03 2.785H64v-2.604c0-2.58-.001-2.608-.118-2.966-.24-.738-.472-1.14-.968-1.68-.634-.689-1.713-1.376-2.78-1.77-.21-.079-.43-.161-.486-.185-.27-.111-1.143-.343-1.715-.455-.699-.137-.883-.167-1.484-.239-.837-.1-1.485-.128-1.485-.066zm-23.447.065c-1.29.18-2.603.47-3.148.695-.056.024-.275.106-.486.184-1.737.642-3.148 1.835-3.626 3.064-.257.662-.267.799-.253 3.466l.013 2.491h6.656l.03-2.81c.031-3.006.015-2.788.292-3.869.214-.832.914-2.02 1.66-2.814.22-.232.398-.437.398-.455 0-.055-1.03-.023-1.536.048z" fill="#fff"/></svg>