<svg width="1920" height="517" fill="none" xmlns="http://www.w3.org/2000/svg"><g filter="url(#a)"><path d="M1877.45 606.266c-4.87 215.379-192.05 384.14-418.08 376.938-226.03-7.202-405.33-187.64-400.46-403.02 4.87-215.379 192.05-384.14 418.08-376.937 226.03 7.202 405.33 187.64 400.46 403.019z" fill="#033DAE"/></g><g filter="url(#b)"><path fill-rule="evenodd" clip-rule="evenodd" d="M1457.77 1053.87c278.82 8.89 498.1-197.291 503.7-444.928 5.59-247.638-204.07-467.484-482.88-476.368-278.81-8.884-498.101 197.294-503.697 444.932-5.595 247.637 204.067 467.484 482.877 476.364zm-.77 34.1c288.3 9.19 527.01-204.871 533.18-478.113 6.18-273.243-222.53-502.196-510.82-511.382-288.29-9.186-527.007 204.873-533.181 478.116C940.005 849.833 1168.71 1078.79 1457 1087.97z" fill="#033DAE"/></g><g filter="url(#c)"><path d="M380.499 267.459c-3.127 145.506-123.386 259.517-268.606 254.651-145.22-4.865-260.41-126.766-257.284-272.272C-142.264 104.332-22.005-9.679 123.215-4.813 268.436.052 383.625 121.953 380.499 267.459z" fill="url(#d)"/><path d="M380.499 267.459c-3.127 145.506-123.386 259.517-268.606 254.651-145.22-4.865-260.41-126.766-257.284-272.272C-142.264 104.332-22.005-9.679 123.215-4.813 268.436.052 383.625 121.953 380.499 267.459z" fill="#fff" fill-opacity=".03"/></g><g filter="url(#e)" fill-rule="evenodd" clip-rule="evenodd"><path d="M110.868 569.854c179.13 6.001 320.016-133.289 323.611-300.588 3.595-167.299-131.107-315.822-310.237-321.824C-54.889-58.56-195.775 80.73-199.369 248.029c-3.595 167.299 131.106 315.823 310.237 321.825zm-.495 23.036c185.221 6.206 338.588-138.408 342.554-323.006 3.967-184.597-142.969-339.273-328.19-345.48C-60.484-81.8-213.851 62.815-217.818 247.412c-3.966 184.597 142.97 339.273 328.191 345.479z" fill="url(#f)"/><path d="M110.868 569.854c179.13 6.001 320.016-133.289 323.611-300.588 3.595-167.299-131.107-315.822-310.237-321.824C-54.889-58.56-195.775 80.73-199.369 248.029c-3.595 167.299 131.106 315.823 310.237 321.825zm-.495 23.036c185.221 6.206 338.588-138.408 342.554-323.006 3.967-184.597-142.969-339.273-328.19-345.48C-60.484-81.8-213.851 62.815-217.818 247.412c-3.966 184.597 142.97 339.273 328.191 345.479z" fill="#fff" fill-opacity=".03"/></g><g filter="url(#g)"><path d="M2129.32 54.59c-3.1 137.192-122.33 244.69-266.31 240.102-143.98-4.588-258.18-119.523-255.08-256.716 3.1-137.193 122.33-244.69 266.31-240.103 143.98 4.588 258.18 119.524 255.08 256.716z" fill="#0E49B4"/></g><g filter="url(#h)"><path fill-rule="evenodd" clip-rule="evenodd" d="M1862 339.707c177.6 5.659 317.28-125.673 320.84-283.413 3.57-157.741-129.98-297.779-307.58-303.438-177.6-5.659-317.28 125.673-320.85 283.414-3.56 157.74 129.99 297.778 307.59 303.437zm-.49 21.721c183.63 5.851 335.69-130.501 339.62-304.551 3.94-174.051-141.74-319.89-325.38-325.742-183.64-5.851-335.7 130.501-339.63 304.552-3.93 174.05 141.75 319.889 325.39 325.741z" fill="#0E49B4"/></g><g filter="url(#i)"><path d="M764.18-174.657c-4.705 208.233-185.676 371.394-404.209 364.431C141.437 182.811-31.906 8.36-27.2-199.873c4.704-208.234 185.675-371.395 404.209-364.432 218.533 6.963 391.876 181.415 387.171 389.648z" fill="#215FC3"/></g><g filter="url(#j)"><path fill-rule="evenodd" clip-rule="evenodd" d="M358.428 258.099c269.563 8.589 481.574-190.748 486.983-430.169 5.41-239.421-197.294-451.973-466.857-460.562-269.564-8.59-481.575 190.748-486.984 430.169-5.41 239.42 197.294 451.973 466.858 460.562zm-.745 32.968c278.728 8.881 509.521-198.076 515.49-462.253 5.969-264.176-215.146-485.533-493.874-494.415-278.729-8.881-509.522 198.077-515.491 462.253-5.969 264.177 215.146 485.534 493.875 494.415z" fill="#215FC3"/></g><defs><filter id="a" x="1038.81" y="183.024" width="858.732" height="820.402" filterUnits="userSpaceOnUse" color-interpolation-filters="sRGB"><feFlood flood-opacity="0" result="BackgroundImageFix"/><feColorMatrix in="SourceAlpha" values="0 0 0 0 0 0 0 0 0 0 0 0 0 0 0 0 0 0 127 0" result="hardAlpha"/><feOffset/><feGaussianBlur stdDeviation="10"/><feComposite in2="hardAlpha" operator="out"/><feColorMatrix values="0 0 0 0 0 0 0 0 0 0.0421667 0 0 0 0 0.191667 0 0 0 0.07 0"/><feBlend in2="BackgroundImageFix" result="effect1_dropShadow_453_395"/><feBlend in="SourceGraphic" in2="effect1_dropShadow_453_395" result="shape"/></filter><filter id="b" x="926.057" y="78.19" width="1084.25" height="1030.07" filterUnits="userSpaceOnUse" color-interpolation-filters="sRGB"><feFlood flood-opacity="0" result="BackgroundImageFix"/><feColorMatrix in="SourceAlpha" values="0 0 0 0 0 0 0 0 0 0 0 0 0 0 0 0 0 0 127 0" result="hardAlpha"/><feOffset/><feGaussianBlur stdDeviation="10"/><feComposite in2="hardAlpha" operator="out"/><feColorMatrix values="0 0 0 0 0 0 0 0 0 0.0421667 0 0 0 0 0.191667 0 0 0 0.07 0"/><feBlend in2="BackgroundImageFix" result="effect1_dropShadow_453_395"/><feBlend in="SourceGraphic" in2="effect1_dropShadow_453_395" result="shape"/></filter><filter id="c" x="-165.453" y="-24.964" width="566.014" height="567.224" filterUnits="userSpaceOnUse" color-interpolation-filters="sRGB"><feFlood flood-opacity="0" result="BackgroundImageFix"/><feColorMatrix in="SourceAlpha" values="0 0 0 0 0 0 0 0 0 0 0 0 0 0 0 0 0 0 127 0" result="hardAlpha"/><feOffset/><feGaussianBlur stdDeviation="10"/><feComposite in2="hardAlpha" operator="out"/><feColorMatrix values="0 0 0 0 0 0 0 0 0 0.0421667 0 0 0 0 0.191667 0 0 0 0.07 0"/><feBlend in2="BackgroundImageFix" result="effect1_dropShadow_453_395"/><feBlend in="SourceGraphic" in2="effect1_dropShadow_453_395" result="shape"/></filter><filter id="e" x="-237.896" y="-95.788" width="710.902" height="708.871" filterUnits="userSpaceOnUse" color-interpolation-filters="sRGB"><feFlood flood-opacity="0" result="BackgroundImageFix"/><feColorMatrix in="SourceAlpha" values="0 0 0 0 0 0 0 0 0 0 0 0 0 0 0 0 0 0 127 0" result="hardAlpha"/><feOffset/><feGaussianBlur stdDeviation="10"/><feComposite in2="hardAlpha" operator="out"/><feColorMatrix values="0 0 0 0 0 0 0 0 0 0.0421667 0 0 0 0 0.191667 0 0 0 0.07 0"/><feBlend in2="BackgroundImageFix" result="effect1_dropShadow_453_395"/><feBlend in="SourceGraphic" in2="effect1_dropShadow_453_395" result="shape"/></filter><filter id="g" x="1587.87" y="-222.268" width="561.518" height="537.102" filterUnits="userSpaceOnUse" color-interpolation-filters="sRGB"><feFlood flood-opacity="0" result="BackgroundImageFix"/><feColorMatrix in="SourceAlpha" values="0 0 0 0 0 0 0 0 0 0 0 0 0 0 0 0 0 0 127 0" result="hardAlpha"/><feOffset/><feGaussianBlur stdDeviation="10"/><feComposite in2="hardAlpha" operator="out"/><feColorMatrix values="0 0 0 0 0 0 0 0 0 0.0421667 0 0 0 0 0.191667 0 0 0 0.07 0"/><feBlend in2="BackgroundImageFix" result="effect1_dropShadow_453_395"/><feBlend in="SourceGraphic" in2="effect1_dropShadow_453_395" result="shape"/></filter><filter id="h" x="1516.04" y="-289.046" width="705.168" height="670.655" filterUnits="userSpaceOnUse" color-interpolation-filters="sRGB"><feFlood flood-opacity="0" result="BackgroundImageFix"/><feColorMatrix in="SourceAlpha" values="0 0 0 0 0 0 0 0 0 0 0 0 0 0 0 0 0 0 127 0" result="hardAlpha"/><feOffset/><feGaussianBlur stdDeviation="10"/><feComposite in2="hardAlpha" operator="out"/><feColorMatrix values="0 0 0 0 0 0 0 0 0 0.0421667 0 0 0 0 0.191667 0 0 0 0.07 0"/><feBlend in2="BackgroundImageFix" result="effect1_dropShadow_453_395"/><feBlend in="SourceGraphic" in2="effect1_dropShadow_453_395" result="shape"/></filter><filter id="i" x="-47.294" y="-584.52" width="831.568" height="794.509" filterUnits="userSpaceOnUse" color-interpolation-filters="sRGB"><feFlood flood-opacity="0" result="BackgroundImageFix"/><feColorMatrix in="SourceAlpha" values="0 0 0 0 0 0 0 0 0 0 0 0 0 0 0 0 0 0 127 0" result="hardAlpha"/><feOffset/><feGaussianBlur stdDeviation="10"/><feComposite in2="hardAlpha" operator="out"/><feColorMatrix values="0 0 0 0 0 0 0 0 0 0.0421667 0 0 0 0 0.191667 0 0 0 0.07 0"/><feBlend in2="BackgroundImageFix" result="effect1_dropShadow_453_395"/><feBlend in="SourceGraphic" in2="effect1_dropShadow_453_395" result="shape"/></filter><filter id="j" x="-156.31" y="-685.876" width="1049.6" height="997.219" filterUnits="userSpaceOnUse" color-interpolation-filters="sRGB"><feFlood flood-opacity="0" result="BackgroundImageFix"/><feColorMatrix in="SourceAlpha" values="0 0 0 0 0 0 0 0 0 0 0 0 0 0 0 0 0 0 127 0" result="hardAlpha"/><feOffset/><feGaussianBlur stdDeviation="10"/><feComposite in2="hardAlpha" operator="out"/><feColorMatrix values="0 0 0 0 0 0 0 0 0 0.0421667 0 0 0 0 0.191667 0 0 0 0.07 0"/><feBlend in2="BackgroundImageFix" result="effect1_dropShadow_453_395"/><feBlend in="SourceGraphic" in2="effect1_dropShadow_453_395" result="shape"/></filter><linearGradient id="d" x1="123.215" y1="-4.813" x2="105.568" y2="521.898" gradientUnits="userSpaceOnUse"><stop stop-color="#1C59BF"/><stop offset="1" stop-color="#013BAB"/></linearGradient><linearGradient id="f" x1="124.737" y1="-75.595" x2="102.348" y2="592.622" gradientUnits="userSpaceOnUse"><stop stop-color="#1C59BF"/><stop offset="1" stop-color="#013BAB"/></linearGradient></defs></svg>