<svg width="376" height="223" fill="none" xmlns="http://www.w3.org/2000/svg"><path d="M.25 27.833C.25 12.461 12.711 0 28.083 0h320.084C363.539 0 376 12.461 376 27.833v167c0 15.372-12.461 27.834-27.833 27.834H28.083C12.711 222.667.25 210.205.25 194.833v-167z" fill="#4E91E4" fill-opacity=".1"/><path d="M376 62.625h-38.967a2.783 2.783 0 0 0-2.783 2.783v108.55H376V62.625z" fill="#C0CCE2"/><path fill="#EEF6FF" fill-opacity=".95" d="M371.824 66.8h-8.35v5.567h8.35z"/><path fill="#EEF6FF" fill-opacity=".5" d="M371.824 86.283h-8.35v5.567h8.35z"/><path fill="#EEF6FF" fill-opacity=".95" d="M371.824 105.767h-8.35v5.567h8.35z"/><path fill="#EEF6FF" fill-opacity=".5" d="M371.824 125.25h-8.35v5.567h8.35zM371.824 144.733h-8.35v5.567h8.35zM371.824 164.217h-8.35v5.567h8.35z"/><path fill="#EEF6FF" fill-opacity=".95" d="M371.824 76.542h-5.567v5.567h5.567zM371.824 96.025h-5.567v5.567h5.567z"/><path fill="#EEF6FF" fill-opacity=".5" d="M371.824 115.508h-5.567v5.567h5.567z"/><path fill="#EEF6FF" fill-opacity=".95" d="M371.824 134.992h-5.567v5.567h5.567zM371.824 154.475h-5.567v5.567h5.567z"/><path fill="#EEF6FF" fill-opacity=".5" d="M359.299 66.8h-8.35v5.567h8.35z"/><path fill="#EEF6FF" fill-opacity=".95" d="M359.299 86.283h-8.35v5.567h8.35z"/><path fill="#EEF6FF" fill-opacity=".5" d="M359.299 105.767h-8.35v5.567h8.35z"/><path fill="#EEF6FF" fill-opacity=".95" d="M359.299 125.25h-8.35v5.567h8.35z"/><path fill="#EEF6FF" fill-opacity=".5" d="M359.299 144.733h-8.35v5.567h8.35zM359.299 164.217h-8.35v5.567h8.35z"/><path fill="#EEF6FF" fill-opacity=".95" d="M362.082 76.542h-13.917v5.567h13.917zM362.082 96.025h-13.917v5.567h13.917zM362.082 115.508h-13.917v5.567h13.917zM362.082 134.992h-13.917v5.567h13.917z"/><path fill="#EEF6FF" fill-opacity=".5" d="M362.082 154.475h-13.917v5.567h13.917z"/><path fill="#EEF6FF" fill-opacity=".95" d="M346.773 66.8h-8.35v5.567h8.35z"/><path fill="#EEF6FF" fill-opacity=".5" d="M346.773 86.283h-8.35v5.567h8.35z"/><path fill="#EEF6FF" fill-opacity=".95" d="M346.773 105.767h-8.35v5.567h8.35z"/><path fill="#EEF6FF" fill-opacity=".5" d="M346.773 125.25h-8.35v5.567h8.35z"/><path fill="#EEF6FF" fill-opacity=".95" d="M346.773 144.733h-8.35v5.567h8.35zM346.773 164.217h-8.35v5.567h8.35zM343.991 76.542h-5.567v5.567h5.567zM343.991 96.025h-5.567v5.567h5.567zM343.991 115.508h-5.567v5.567h5.567zM343.991 134.992h-5.567v5.567h5.567zM343.991 154.475h-5.567v5.567h5.567z"/><path fill="#929AA5" d="M367.65 59.842h-5.567v2.783h5.567zM349.559 59.842h-5.567v2.783h5.567z"/><path fill="#929AA5" d="M366.259 58.45h-2.783v1.392h2.783zM348.167 58.45h-2.783v1.392h2.783z"/><path d="M364.854 47.595c0 .518.244.985.641 1.325-1.199.495-2.02 1.564-2.02 2.805v1.158h.962v-1.158c0-1.247 1.129-2.265 2.566-2.265v-.835c-.655 0-1.187-.462-1.187-1.03h-.962z" fill="#E8F1F6"/><path d="M367.304 51.046h.981c.57 0 1.116-.196 1.519-.546.403-.35.63-.824.63-1.319 0-.494-.227-.968-.63-1.318a2.324 2.324 0 0 0-1.519-.546v.835c.654 0 1.187.406 1.187.974s-.533 1.113-1.187 1.113h-.981c-1.199 0-2.225.757-2.225 1.76v.884h.962v-.696c0-.729.59-1.14 1.263-1.14zM346.788 50.378c0 .518-.244.986-.642 1.325 1.199.496 2.02 1.564 2.02 2.806v1.158h-.962v-1.158c0-1.247-1.128-2.266-2.565-2.266v-.835c.654 0 1.187-.462 1.187-1.03h.962z" fill="#E8F1F6"/><path d="M344.338 53.83h-.982a2.326 2.326 0 0 1-1.519-.547c-.403-.35-.629-.824-.629-1.318 0-.495.226-.97.629-1.319.403-.35.95-.546 1.519-.546v.835c-.654 0-1.186.406-1.186.974s.532 1.114 1.186 1.114h.982c1.199 0 2.225.756 2.225 1.758v.886h-.962v-.696c0-.73-.59-1.141-1.263-1.141z" fill="#E8F1F6"/><path d="M186.733 123.858a2.784 2.784 0 0 1 2.784-2.783H225.7a2.783 2.783 0 0 1 2.783 2.783v50.1h-41.75v-50.1z" fill="#C0CCE2"/><path fill="#EEF6FF" fill-opacity=".5" d="M190.908 125.25h8.35v5.567h-8.35zM190.908 144.733h8.35v5.567h-8.35zM190.908 164.217h8.35v5.567h-8.35z"/><path fill="#EEF6FF" fill-opacity=".95" d="M190.908 134.992h5.567v5.567h-5.567zM190.908 154.475h5.567v5.567h-5.567zM203.434 125.25h8.35v5.567h-8.35z"/><path fill="#EEF6FF" fill-opacity=".5" d="M203.434 144.733h8.35v5.567h-8.35zM203.434 164.217h8.35v5.567h-8.35z"/><path fill="#EEF6FF" fill-opacity=".95" d="M200.65 134.992h13.917v5.567H200.65z"/><path fill="#EEF6FF" fill-opacity=".5" d="M200.65 154.475h13.917v5.567H200.65zM215.959 125.25h8.35v5.567h-8.35z"/><path fill="#EEF6FF" fill-opacity=".95" d="M215.959 144.733h8.35v5.567h-8.35zM215.959 164.217h8.35v5.567h-8.35zM218.741 134.992h5.567v5.567h-5.567zM218.741 154.475h5.567v5.567h-5.567z"/><path fill="#929AA5" d="M195.083 118.292h5.567v2.783h-5.567zM213.175 118.292h5.567v2.783h-5.567zM196.475 116.9h2.783v1.392h-2.783zM214.566 116.9h2.783v1.392h-2.783z"/><path d="M197.879 106.045c0 .518-.243.985-.641 1.325 1.199.495 2.02 1.564 2.02 2.806v1.157h-.962v-1.157c0-1.247-1.129-2.266-2.565-2.266v-.835c.654 0 1.186-.462 1.186-1.03h.962z" fill="#E8F1F6"/><path d="M195.429 109.496h-.981c-.57 0-1.116-.196-1.519-.546-.403-.35-.629-.824-.629-1.318 0-.495.226-.969.629-1.319s.949-.546 1.519-.546v.835c-.654 0-1.186.406-1.186.974s.532 1.113 1.186 1.113h.981c1.2 0 2.226.757 2.226 1.759v.885h-.962v-.695c0-.73-.59-1.142-1.264-1.142zM215.946 108.828c0 .518.244.986.641 1.325-1.199.496-2.02 1.564-2.02 2.806v1.158h.962v-1.158c0-1.247 1.129-2.266 2.565-2.266v-.835c-.654 0-1.186-.462-1.186-1.03h-.962z" fill="#E8F1F6"/><path d="M218.396 112.28h.981c.57 0 1.116-.197 1.519-.546.403-.35.629-.825.629-1.319 0-.495-.226-.969-.629-1.319a2.328 2.328 0 0 0-1.519-.546v.835c.654 0 1.186.406 1.186.974s-.532 1.114-1.186 1.114h-.981c-1.2 0-2.226.757-2.226 1.759v.885h.962v-.696c0-.729.59-1.141 1.264-1.141z" fill="#E8F1F6"/><path d="M96.275 34.792a2.783 2.783 0 0 1 2.784-2.784h36.183a2.783 2.783 0 0 1 2.783 2.784v139.166h-41.75V34.792z" fill="#C0CCE2"/><path fill="#EEF6FF" fill-opacity=".95" d="M100.451 133.6h8.35v5.567h-8.35z"/><path fill="#EEF6FF" fill-opacity=".5" d="M100.451 153.083h8.35v5.567h-8.35z"/><path fill="#EEF6FF" fill-opacity=".95" d="M100.451 143.342h5.567v5.567h-5.567zM100.451 162.825h5.567v5.567h-5.567z"/><path fill="#EEF6FF" fill-opacity=".5" d="M112.977 133.6h8.35v5.567h-8.35z"/><path fill="#EEF6FF" fill-opacity=".95" d="M112.977 153.083h8.35v5.567h-8.35zM110.193 143.342h13.917v5.567h-13.917zM110.193 162.825h13.917v5.567h-13.917zM125.502 133.6h8.35v5.567h-8.35z"/><path fill="#EEF6FF" fill-opacity=".5" d="M125.502 153.083h8.35v5.567h-8.35z"/><path fill="#EEF6FF" fill-opacity=".95" d="M128.284 143.342h5.567v5.567h-5.567zM128.284 162.825h5.567v5.567h-5.567z"/><path fill="#8A929E" fill-opacity=".9" d="M124.108 30.617h-13.917v1.392h13.917z"/><path fill="#929AA5" d="M100.451 29.225h5.567v2.783h-5.567zM128.284 29.225h5.567v2.783h-5.567zM101.842 27.833h2.783v1.392h-2.783zM129.676 27.833h2.783v1.392h-2.783z"/><path d="M103.221 19.762c0 .517.244.985.642 1.325-1.2.495-2.021 1.564-2.021 2.805v1.158h.962v-1.158c0-1.247 1.129-2.265 2.566-2.265v-.835c-.654 0-1.187-.463-1.187-1.03h-.962z" fill="#E8F1F6"/><path d="M105.671 23.213h.981c.57 0 1.117-.197 1.52-.546.402-.35.629-.824.629-1.319 0-.494-.227-.969-.629-1.319a2.327 2.327 0 0 0-1.52-.546v.835c.655 0 1.187.407 1.187.974 0 .568-.532 1.114-1.187 1.114h-.981c-1.199 0-2.225.757-2.225 1.759v.885h.962v-.696c0-.73.59-1.141 1.263-1.141zM131.079 18.37c0 .518-.243.985-.641 1.325 1.199.495 2.02 1.564 2.02 2.805v1.158h-.962V22.5c0-1.247-1.128-2.265-2.565-2.265V19.4c.654 0 1.187-.462 1.187-1.03h.961z" fill="#E8F1F6"/><path d="M128.63 21.821h-.982a2.326 2.326 0 0 1-1.519-.546c-.403-.35-.629-.824-.629-1.319 0-.494.226-.968.629-1.318.403-.35.95-.546 1.519-.546v.835c-.654 0-1.186.406-1.186.974s.532 1.113 1.186 1.113h.982c1.199 0 2.225.757 2.225 1.76v.884h-.962v-.696c0-.729-.59-1.14-1.263-1.14z" fill="#E8F1F6"/><path fill="#EEF6FF" fill-opacity=".95" d="M100.451 36.183h8.35v5.567h-8.35z"/><path fill="#EEF6FF" fill-opacity=".5" d="M100.451 55.667h8.35v5.567h-8.35z"/><path fill="#EEF6FF" fill-opacity=".95" d="M100.451 75.15h8.35v5.567h-8.35z"/><path fill="#EEF6FF" fill-opacity=".5" d="M100.451 94.633h8.35v5.567h-8.35zM100.451 114.117h8.35v5.567h-8.35z"/><path fill="#EEF6FF" fill-opacity=".95" d="M100.451 45.925h5.567v5.567h-5.567zM100.451 65.408h5.567v5.567h-5.567z"/><path fill="#EEF6FF" fill-opacity=".5" d="M100.451 84.892h5.567v5.567h-5.567z"/><path fill="#EEF6FF" fill-opacity=".95" d="M100.451 104.375h5.567v5.567h-5.567zM100.451 123.858h5.567v5.567h-5.567z"/><path fill="#EEF6FF" fill-opacity=".5" d="M112.977 36.183h8.35v5.567h-8.35z"/><path fill="#EEF6FF" fill-opacity=".95" d="M112.977 55.667h8.35v5.567h-8.35z"/><path fill="#EEF6FF" fill-opacity=".5" d="M112.977 75.15h8.35v5.567h-8.35z"/><path fill="#EEF6FF" fill-opacity=".95" d="M112.977 94.633h8.35v5.567h-8.35z"/><path fill="#EEF6FF" fill-opacity=".5" d="M112.977 114.117h8.35v5.567h-8.35z"/><path fill="#EEF6FF" fill-opacity=".95" d="M110.193 45.925h13.917v5.567h-13.917zM110.193 65.408h13.917v5.567h-13.917zM110.193 84.892h13.917v5.567h-13.917zM110.193 104.375h13.917v5.567h-13.917z"/><path fill="#EEF6FF" fill-opacity=".5" d="M110.193 123.858h13.917v5.567h-13.917z"/><path fill="#EEF6FF" fill-opacity=".95" d="M125.502 36.183h8.35v5.567h-8.35z"/><path fill="#EEF6FF" fill-opacity=".5" d="M125.502 55.667h8.35v5.567h-8.35z"/><path fill="#EEF6FF" fill-opacity=".95" d="M125.502 75.15h8.35v5.567h-8.35z"/><path fill="#EEF6FF" fill-opacity=".5" d="M125.502 94.633h8.35v5.567h-8.35z"/><path fill="#EEF6FF" fill-opacity=".95" d="M125.502 114.117h8.35v5.567h-8.35zM128.284 45.925h5.567v5.567h-5.567zM128.284 65.408h5.567v5.567h-5.567zM128.284 84.892h5.567v5.567h-5.567zM128.284 104.375h5.567v5.567h-5.567zM128.284 123.858h5.567v5.567h-5.567z"/><path d="M54.525 104.375a2.783 2.783 0 0 1 2.784-2.783h38.966v72.366h-41.75v-69.583z" fill="#C0CCE2"/><path fill="#EEF6FF" fill-opacity=".95" d="M58.701 105.767h8.35v5.567h-8.35z"/><path fill="#EEF6FF" fill-opacity=".5" d="M58.701 125.25h8.35v5.567h-8.35z"/><path fill="#EEF6FF" fill-opacity=".95" d="M58.701 144.733h8.35v5.567h-8.35z"/><path fill="#EEF6FF" fill-opacity=".5" d="M58.701 164.217h8.35v5.567h-8.35z"/><path fill="#EEF6FF" fill-opacity=".95" d="M58.701 115.508h5.567v5.567h-5.567zM58.701 134.992h5.567v5.567h-5.567z"/><path fill="#EEF6FF" fill-opacity=".5" d="M58.701 154.475h5.567v5.567h-5.567zM71.227 105.767h8.35v5.567h-8.35z"/><path fill="#EEF6FF" fill-opacity=".95" d="M71.227 125.25h8.35v5.567h-8.35z"/><path fill="#EEF6FF" fill-opacity=".5" d="M71.227 144.733h8.35v5.567h-8.35z"/><path fill="#EEF6FF" fill-opacity=".95" d="M71.227 164.217h8.35v5.567h-8.35zM68.443 115.508H82.36v5.567H68.443zM68.443 134.992H82.36v5.567H68.443zM68.443 154.475H82.36v5.567H68.443zM83.752 105.767h8.35v5.567h-8.35z"/><path fill="#EEF6FF" fill-opacity=".5" d="M83.752 125.25h8.35v5.567h-8.35z"/><path fill="#EEF6FF" fill-opacity=".95" d="M83.752 144.733h8.35v5.567h-8.35z"/><path fill="#EEF6FF" fill-opacity=".5" d="M83.752 164.217h8.35v5.567h-8.35z"/><path fill="#EEF6FF" fill-opacity=".95" d="M86.534 115.508h5.567v5.567h-5.567zM86.534 134.992h5.567v5.567h-5.567zM86.534 154.475h5.567v5.567h-5.567z"/><path fill="#929AA5" d="M62.875 98.808h5.567v2.783h-5.567zM80.967 98.808h5.567v2.783h-5.567z"/><path fill="#929AA5" d="M64.267 97.417h2.783v1.392h-2.783zM82.358 97.417h2.783v1.392h-2.783z"/><path d="M65.671 86.562c0 .517-.243.985-.641 1.325 1.2.495 2.02 1.564 2.02 2.805v1.158h-.962v-1.158c0-1.247-1.129-2.265-2.565-2.265v-.836c.654 0 1.186-.462 1.186-1.03h.962z" fill="#E8F1F6"/><path d="M63.221 90.013h-.98c-.57 0-1.117-.197-1.52-.546-.403-.35-.63-.824-.63-1.319 0-.494.227-.969.63-1.319s.95-.546 1.52-.546v.835c-.655 0-1.187.407-1.187.975 0 .567.532 1.113 1.186 1.113h.981c1.2 0 2.226.757 2.226 1.759v.885h-.962v-.696c0-.73-.59-1.141-1.264-1.141zM83.738 89.345c0 .518.244.985.641 1.325-1.2.495-2.02 1.564-2.02 2.805v1.158h.962v-1.157c0-1.248 1.129-2.266 2.565-2.266v-.835c-.654 0-1.186-.462-1.186-1.03h-.962z" fill="#E8F1F6"/><path d="M86.188 92.796h.981c.57 0 1.116-.196 1.52-.546.402-.35.628-.824.628-1.319 0-.494-.226-.968-.629-1.318a2.325 2.325 0 0 0-1.519-.546v.835c.654 0 1.186.406 1.186.974s-.532 1.113-1.186 1.113h-.981c-1.2 0-2.226.757-2.226 1.76v.884h.962v-.695c0-.73.59-1.142 1.264-1.142z" fill="#E8F1F6"/><path d="M.25 173.958H376v27.834c0 11.529-9.346 20.875-20.875 20.875H28.083C12.711 222.667.25 210.205.25 194.833v-20.875z" fill="#1C2229"/><path d="M.25 173.958H376v4.175H.25v-4.175z" fill="#D0AA72"/><path d="M.25 178.133H376v4.175H.25v-4.175z" fill="#ACA39D"/><path d="M43.392 63.32a.696.696 0 1 1 1.391 0v110.638h-1.391V63.321zM320.333 63.32a.696.696 0 0 1 1.392 0v110.638h-1.392V63.321z" fill="#1B4589" fill-opacity=".9"/><path d="M52.438 90.458h260.241" stroke="#1B4589" stroke-opacity=".9" stroke-width="1.392" stroke-linecap="round" stroke-linejoin="round" stroke-dasharray="8.35 8.35"/><path fill="#1C2229" d="M315.651 134.739h1.898v14.549h-1.898zM335.238 135.371h1.898v13.917h-1.898zM316.913 149.921h17.712v1.898h-17.712z"/><path d="M333.996 149.288c0-.349.283-.633.633-.633h.632v2.531h-1.265v-1.898zM332.095 150.553h1.897v1.898h-.632v.632h-1.265v-2.53z" fill="#1C2229"/><path d="m331.442 153.311 4.554-5.287 1.14.948v.653l-4.428 4.724-1.266-1.038z" fill="#1C2229"/><path fill="#1C2229" d="M335.259 149.921h.634v.634h-.634zM316.913 148.655h.633v1.265h-.633z"/><path d="M313.612 133.362c.298-.7.985-1.154 1.745-1.154h22.09c.76 0 1.447.454 1.745 1.154l.376.88a1.266 1.266 0 0 1-1.164 1.762H314.4c-.907 0-1.52-.927-1.164-1.762l.376-.88z" fill="#1B4589"/><path d="M318.812 142.646c0-.175.141-.316.316-.316h.632c.175 0 .317.141.317.316v.949h-.949a.316.316 0 0 1-.316-.316v-.633z" fill="#1C2229"/><path d="M319.424 142.962h.949c.174 0 .316.142.316.316v.949h-1.265v-1.265z" fill="#1C2229"/><rect x="319.424" y="143.595" width="1.265" height="1.898" rx=".316" fill="#1C2229"/><rect x="320.086" y="144.338" width="1.158" height="4.601" rx=".316" transform="rotate(50.988 320.086 144.338)" fill="#1C2229"/><path d="M329.546 140.432h1.265c.349 0 .633.283.633.632v6.959h-.633v.632h-1.265v-8.223z" fill="#1C2229"/><path fill="#1C2229" d="M327.666 148.023h1.898v1.898h-1.898z"/><path fill="#1C2229" d="M326.401 148.023h1.898v1.898h-1.898z"/><path d="M320.711 143.595c0-.35.283-.633.633-.633h3.162v.633h-3.795z" fill="#E8C7BE"/><path fill="#444656" d="M325.117 141.064h2.53v1.265h-2.53z"/><path d="m324.823 142.962.294-1.265 3.818 2.53H322.586l-1.581-1.265h3.818z" fill="#E8C7BE"/><path fill="#E8C7BE" d="M325.117 141.697h1.265v.633h-1.265zM325.749 142.33h1.265v1.265h-1.265zM320.711 143.595h1.898v.632h-1.898v-.632z"/><path fill="#C4C4C4" d="M327.034 142.33h.633v1.898h-.633z"/><path d="M321.977 148.655h2.53v1.266h-2.53v-1.266z" fill="#1C2229"/><path d="M320.709 149.921a1.246 1.246 0 0 1 1.246-1.266h1.265l.02 1.266h-2.531z" fill="#1C2229"/><path fill="#1B4589" d="M326.401 144.86h3.163v3.163h-3.163z"/><path d="M322.607 146.442c0-.175.142-.317.317-.317h6.642v1.898h-6.959v-1.581z" fill="#1B4589"/><path d="M321.977 147.707c0-.175.141-.317.316-.317h2.214v1.265h-2.53v-.948z" fill="#1B4589"/><path d="M325.772 140.432h3.796v4.428h-3.796v-4.428z" fill="#444656"/><path d="M324.483 146.441c0 .175.142.317.317.317h2.214v-.633h-2.531v.316z" fill="#1B4589"/><path d="M325.77 137.269c0-.349.283-.633.632-.633h3.163v3.796h-3.795v-3.163z" fill="#EDBF9F"/><path d="M326.401 136.636h3.163c.35 0 .633.284.633.633h-3.796v-.633zM329.566 137.269h.633v3.795h-.633z" fill="#F4E2CC"/><path d="M308.691 148.655h7.591c.35 0 .633.284.633.633v4.428h-8.224v-5.061z" fill="#1B4589"/><path d="M316.913 151.818h15.162l.652 2.531h-15.814v-2.531z" fill="#1B4589"/><path d="m323.122 160.849 8.953-9.031 2.713.315-8.089 8.605a2.531 2.531 0 0 1-3.577.111z" fill="#1B4589"/><path fill="#1B4589" d="M316.913 152.451h14.549v2.53h-14.549z"/><path fill="#1B4589" d="M316.281 153.083h14.549v2.53h-14.549z"/><path fill="#1B4589" d="M315.649 153.716h14.549v2.53h-14.549z"/><path fill="#1B4589" d="M315.649 154.349h13.917v2.53h-13.917z"/><path fill="#1B4589" d="M315.649 154.981h13.284v2.53h-13.284z"/><path fill="#1B4589" d="M315.649 155.614h12.652v2.53h-12.652z"/><path fill="#1B4589" d="M315.649 156.246h12.019v2.53h-12.019z"/><path fill="#1B4589" d="M315.649 156.879h11.386v2.53h-11.386z"/><path fill="#1B4589" d="M315.649 157.511h10.121v2.53h-10.121z"/><path fill="#1B4589" d="M307.426 158.777h17.712v2.53h-17.712z"/><path fill="#1B4589" d="M306.159 159.409h17.712v2.53h-17.712z"/><path d="M305.548 160.042h16.428v2.53h-16.447l.019-2.53zM289.717 163.837h17.079v1.265c0 .699-.566 1.265-1.265 1.265h-16.447l.633-2.53z" fill="#1B4589"/><path d="M282.757 162.572h24.038v2.53h-24.038v-2.53zM308.691 154.349h6.326v3.795h-6.326z" fill="#1B4589"/><path d="M288.744 166.368c8.517 0 21.214-1.615 17.102-8.257 0-2.155 5.035-7.706 3.796-9.173-1.266-1.265-1.266-.949-17.396-.632-4.582.09-8.458.633-11.295 1.644-4.896 1.746-3.62 7.691-.747 12.023l.048.081c.834 1.418 1.774 2.761 3.138 3.681 1.242.666 1.501.633 5.354.633z" fill="#1B4589"/><path fill="#1B4589" d="M306.791 148.023h8.856v.633h-8.856zM305.526 152.451h12.019v9.489h-12.019zM321.955 161.307h3.163l2.214-1.265-.324.37a6.327 6.327 0 0 1-4.76 2.16h-.293v-1.265z"/><path d="M308.69 154.348v-.632h6.326v.632h.633v3.796h-.633v.632h-6.326v-.632h-.632v-3.796h.632z" fill="#2051A2"/><path d="M307.405 162.256h-.316a.632.632 0 0 0-.633.632v.317" stroke="#1B4589" stroke-width=".633"/><path d="M326.225 141.507h.316c.35 0 .633.283.633.633v.316" stroke="#444656" stroke-width=".316"/><rect x="284.971" y="166.684" width="42.383" height="6.958" rx="3.479" fill="#8A929E" stroke="#252C34" stroke-width=".633"/><circle cx="289.082" cy="170.163" r="1.898" fill="#252C34"/><circle cx="323.241" cy="170.163" r="1.898" fill="#252C34"/><path fill="#444656" d="M310.591 162.572h2.53v3.795h-2.53zM332.731 160.674c0-.349.284-.632.633-.632h8.856c.349 0 .633.283.633.632v5.693h-10.122v-5.693zM327.037 161.94c0-.35.283-.633.633-.633h5.06v3.795h-5.06a.632.632 0 0 1-.633-.632v-2.53zM323.241 163.205h3.795v1.265h-3.795z"/><path d="M321.977 163.837c0-.349.283-.632.632-.632h.633v3.163h-1.265v-2.531z" fill="#444656"/><path fill="#252C34" d="M329.568 166.368h13.917v7.591h-13.917z"/><path fill="#444656" d="M312.488 166.368h-1.265v2.53h1.265zM319.446 168.898h-8.223c0 .698.566 1.265 1.265 1.265h6.958v-1.265z"/><path d="m321.977 165.735-3.163 3.163.633 1.265 3.796-3.795-1.266-.633z" fill="#444656"/><path d="M307.095 149.957c-.081.319-.536.317-.614-.003l-.507-2.083h1.65l-.529 2.086z" fill="#BFCCE2"/><path fill="#444656" d="M312.488 166.368h-1.265v2.53h1.265zM319.446 168.898h-8.223c0 .698.566 1.265 1.265 1.265h6.958v-1.265z"/><path d="m321.977 165.735-3.163 3.163.633 1.265 3.796-3.795-1.266-.633z" fill="#444656"/><path d="M307.095 149.957c-.081.319-.536.317-.614-.003l-.507-2.083h1.65l-.529 2.086z" fill="#BFCCE2"/><path fill="#1C2229" d="M158.659 142.785h-4.406v23.498h4.406zM132.224 142.785h-4.406v23.498h4.406zM157.19 166.283h-27.904v4.406h27.904z"/><path d="M161.729 141.765a3.123 3.123 0 0 0-2.881-1.918h-31.043a3.122 3.122 0 0 0-2.88 1.918l-.306.729a2.082 2.082 0 0 0 1.921 2.886h33.574a2.082 2.082 0 0 0 1.92-2.886l-.305-.729z" fill="#1B4589"/><path d="M152.715 155.055a.52.52 0 0 0-.521-.521h-.769a.52.52 0 0 0-.521.521v1.323h1.29a.52.52 0 0 0 .521-.52v-.803z" fill="#1C2229"/><path d="M151.838 155.456h-1.29a.52.52 0 0 0-.521.521v1.323h1.811v-1.844z" fill="#1C2229"/><rect width="1.81" height="2.766" rx=".521" transform="matrix(-1 0 0 1 151.838 156.378)" fill="#1C2229"/><rect width="1.676" height="6.633" rx=".521" transform="matrix(-.62247 .78264 .7713 .63647 150.89 157.461)" fill="#1C2229"/><path d="M138.829 151.834h-1.675c-.575 0-1.041.467-1.041 1.042v10.023h.906v.922h1.81v-11.987z" fill="#1C2229"/><path fill="#1C2229" d="M141.517 162.899h-2.716v2.766h2.716z"/><path fill="#1C2229" d="M143.327 162.899h-2.716v2.766h2.716z"/><path fill="#444656" d="M145.166 152.756h-3.621v1.844h3.621z"/><path d="m145.658 155.268-.435-2.203-5.657 4.406h10.281l.09-.27a1.469 1.469 0 0 0-1.394-1.933h-2.885z" fill="#E8C7BE"/><path d="M149.66 163.821h-3.621v1.845h3.621v-1.845z" fill="#1C2229"/><path d="M151.475 165.666a1.817 1.817 0 0 0-1.816-1.845h-1.777l-.028 1.845h3.621z" fill="#1C2229"/><path fill="#1B4589" d="M143.327 158.289h-4.526v4.61h4.526z"/><path d="M148.759 160.654a.52.52 0 0 0-.521-.521h-9.437v2.766h9.958v-2.245z" fill="#1B4589"/><path d="M149.66 162.498a.52.52 0 0 0-.52-.521h-3.101v1.844h3.621v-1.323z" fill="#1B4589"/><path d="M144.228 151.834h-5.432v6.455h5.432v-6.455z" fill="#444656"/><path d="M144.231 147.343a1.04 1.04 0 0 0-1.041-1.041h-4.39v5.532h5.431v-4.491z" fill="#EDBF9F"/><path d="M143.327 146.302h-4.509a.922.922 0 0 0-.922.922h5.431v-.922zM138.801 147.224h-.905v5.532h.905z" fill="#F4E2CC"/><path d="M149.159 169.537h-11.69v6.804h11.69v-6.804zM137.083 174.29h-20.821v3.688h20.821z" fill="#1B4589"/><path fill="#1B4589" d="M137.987 175.212h-20.821v3.688h20.821z"/><path fill="#1B4589" d="M138.893 176.134h-20.821v3.688h20.821z"/><path fill="#1B4589" d="M138.893 177.056h-19.915v3.688h19.915z"/><path fill="#1B4589" d="M138.893 177.979h-19.01v3.688h19.01z"/><path fill="#1B4589" d="M138.893 178.901h-18.105v3.688h18.105z"/><path fill="#1B4589" d="M138.893 179.823h-17.2v3.688h17.2z"/><path fill="#1B4589" d="M138.893 180.745h-16.294v3.688h16.294z"/><path fill="#1B4589" d="M138.893 181.667h-14.484v3.688h14.484z"/><path fill="#1B4589" d="M150.661 183.511h-25.347v3.688h25.347z"/><path fill="#1B4589" d="M152.473 184.433h-25.347v3.688h25.347z"/><path d="M153.348 185.355h-23.51v3.688h23.536l-.026-3.688z" fill="#1B4589"/><path d="M158.274 188.249h-24.441v1.606c0 1.15.932 2.082 2.082 2.082h23.265l-.906-3.688z" fill="#1B4589"/><path d="M167.53 191.651h-34.399l.164 3.402H169.2l-1.67-3.402zM148.851 177.056h-9.052v5.532h9.052z" fill="#1B4589"/><path d="M165.427 195.052c-7.917 0-19.72-2.372-15.898-12.128 0-3.164-4.681-11.319-3.528-13.472 1.176-1.859-3.523-1.616 18.188-1.616h1.031c10.082.007 11.507 10.272 8.431 19.872l-.285.889-.198.535c-.664 1.812-1.444 3.584-2.764 4.991-1.155.978-1.396.929-4.977.929zM123.149 194.979c7.917 0 19.72-2.372 15.898-12.128 0-3.164 4.681-11.319 3.528-13.473-1.176-1.858 3.523-1.616-18.187-1.616h-.001l-1.031.001c-10.082.006-11.507 10.271-8.43 19.872l.285.889.198.535c.664 1.811 1.443 3.583 2.763 4.991 1.155.978 1.396.929 4.977.929z" fill="#1B4589"/><path fill="#1B4589" d="M150.828 167.836h-13.36v1.701h13.36zM153.378 174.29h-17.2v13.831h17.2zM129.869 187.199h-4.526l-3.168-1.844.219.255a9.855 9.855 0 0 0 7.475 3.433v-1.844z"/><path d="m166.001 175.462-3.672-1.835h-36.716l-3.672 1.835v11.015h3.672v1.836h36.716v-1.836h3.672v-11.015z" fill="#2051A2"/><rect x="113.2" y="180.524" width="23.489" height="23.954" rx="11.744" fill="#8A929E" stroke="#252C34" stroke-width="1.562"/><ellipse cx="124.944" cy="192.501" rx="2.505" ry="2.552" fill="#252C34"/><rect x="153.564" y="180.282" width="23.489" height="23.954" rx="11.744" fill="#8A929E" stroke="#252C34" stroke-width="1.562"/><ellipse cx="165.309" cy="192.259" rx="2.505" ry="2.552" fill="#252C34"/><path d="M271.299 112.992a8.147 8.147 0 0 0-2.304-4.839 8.026 8.026 0 0 0-4.796-2.334 8.004 8.004 0 0 0-5.193 1.191 8.102 8.102 0 0 0-3.322 4.195 5.36 5.36 0 0 0-3.587 1.81 5.44 5.44 0 0 0-1.342 3.809 5.432 5.432 0 0 0 1.649 3.685 5.348 5.348 0 0 0 3.722 1.506h15.221a4.46 4.46 0 0 0 3.159-1.338 4.533 4.533 0 0 0 1.294-3.198 4.53 4.53 0 0 0-1.328-3.183 4.464 4.464 0 0 0-3.173-1.304z" fill="#E8F1F6"/><path d="M58.233 27.485a5.883 5.883 0 0 0-1.664-3.495 5.783 5.783 0 0 0-7.215-.825 5.857 5.857 0 0 0-2.399 3.03 3.87 3.87 0 0 0-2.59 1.307 3.928 3.928 0 0 0 .221 5.412 3.864 3.864 0 0 0 2.688 1.088h10.993a3.221 3.221 0 0 0 2.282-.967c.603-.614.939-1.445.934-2.31a3.271 3.271 0 0 0-.96-2.298 3.22 3.22 0 0 0-2.29-.942zM182.232 26.709a8.15 8.15 0 0 0-2.304-4.84 8.01 8.01 0 0 0-9.99-1.143 8.108 8.108 0 0 0-3.321 4.196 5.359 5.359 0 0 0-3.587 1.81 5.44 5.44 0 0 0-1.343 3.809 5.43 5.43 0 0 0 1.65 3.685 5.35 5.35 0 0 0 3.722 1.506h15.221a4.46 4.46 0 0 0 3.158-1.339 4.533 4.533 0 0 0-.034-6.38 4.457 4.457 0 0 0-3.172-1.304zM29.149 71.242a8.147 8.147 0 0 0-2.304-4.84 8.008 8.008 0 0 0-9.99-1.143 8.11 8.11 0 0 0-3.322 4.196 5.358 5.358 0 0 0-3.586 1.81 5.44 5.44 0 0 0-1.343 3.81 5.433 5.433 0 0 0 1.65 3.684 5.35 5.35 0 0 0 3.722 1.506h15.22a4.46 4.46 0 0 0 3.16-1.338c.834-.851 1.3-2.001 1.294-3.198a4.529 4.529 0 0 0-1.329-3.183 4.459 4.459 0 0 0-3.172-1.304zM340.882 26.709a8.144 8.144 0 0 0-2.304-4.84 8.007 8.007 0 0 0-9.989-1.143 8.105 8.105 0 0 0-3.322 4.196 5.359 5.359 0 0 0-3.587 1.81 5.439 5.439 0 0 0-1.342 3.809 5.433 5.433 0 0 0 1.649 3.685 5.35 5.35 0 0 0 3.722 1.506h15.221a4.46 4.46 0 0 0 3.159-1.339c.835-.85 1.3-2 1.294-3.197a4.527 4.527 0 0 0-1.328-3.183 4.46 4.46 0 0 0-3.173-1.304zM242.433 41.99a4.98 4.98 0 0 0-1.408-2.957 4.895 4.895 0 0 0-6.105-.698 4.96 4.96 0 0 0-2.03 2.564c-.845.07-1.63.466-2.192 1.106a3.325 3.325 0 0 0 .188 4.58 3.27 3.27 0 0 0 2.274.92h9.302a2.724 2.724 0 0 0 1.93-.818 2.771 2.771 0 0 0-.02-3.9 2.726 2.726 0 0 0-1.939-.797zM170.207 106.623a7.237 7.237 0 0 0-2.048-4.302 7.122 7.122 0 0 0-8.879-1.016 7.21 7.21 0 0 0-2.953 3.729 4.765 4.765 0 0 0-3.188 1.609 4.84 4.84 0 0 0 .273 6.661c.89.86 2.075 1.34 3.308 1.339h13.53a3.963 3.963 0 0 0 2.808-1.19 4.025 4.025 0 0 0 1.15-2.842 4.025 4.025 0 0 0-1.181-2.829 3.96 3.96 0 0 0-2.82-1.159zM295.707 68.646a6.79 6.79 0 0 0-1.92-4.033 6.672 6.672 0 0 0-8.324-.952 6.75 6.75 0 0 0-2.768 3.496 4.462 4.462 0 0 0-2.989 1.509 4.53 4.53 0 0 0-1.119 3.174 4.526 4.526 0 0 0 1.374 3.07 4.46 4.46 0 0 0 3.102 1.255h12.684a3.717 3.717 0 0 0 2.633-1.115 3.78 3.78 0 0 0-.029-5.317 3.715 3.715 0 0 0-2.644-1.087zM265.732 30.884a8.15 8.15 0 0 0-2.304-4.84 8.01 8.01 0 0 0-9.99-1.143 8.107 8.107 0 0 0-3.321 4.196 5.358 5.358 0 0 0-3.587 1.81 5.44 5.44 0 0 0-1.343 3.81 5.43 5.43 0 0 0 1.65 3.684 5.35 5.35 0 0 0 3.722 1.506h15.221a4.46 4.46 0 0 0 3.158-1.339 4.533 4.533 0 0 0-.034-6.38 4.458 4.458 0 0 0-3.172-1.304z" fill="#F8FCFF"/></svg>