<svg width="88" height="88" fill="none" xmlns="http://www.w3.org/2000/svg"><circle cx="44" cy="44" r="42.5" fill="#fff" stroke="#C4D3F0" stroke-width="3"/><circle cx="44" cy="44" r="35" fill="#3A6ACB"/><path fill-rule="evenodd" clip-rule="evenodd" d="M50.24 27.312c-.565.026-1.21.068-1.434.093-.963.107-1.969.305-2.312.455a.631.631 0 0 1-.182.054c-.032 0-.07.016-.081.035-.013.02-.079.049-.148.064-.069.015-.178.05-.242.077l-.426.178c-.17.07-.394.177-.496.236-.102.06-.192.108-.2.108-.048 0-.473.316-.705.525-.448.404-.634.72-1.026 1.747-.049.128-.103.25-.12.27a.165.165 0 0 0-.03.091c0 .03-.025.11-.054.177-.056.13-.119.29-.261.666-.05.128-.103.25-.12.27a.176.176 0 0 0-.031.097c0 .033-.027.11-.059.172-.095.182-.048.235.314.356.182.06.34.124.35.141.011.017.045.032.076.032.03 0 .164.05.298.111.386.178.37.178.45-.006.071-.162.16-.385.258-.65.165-.442.231-.605.259-.638a.164.164 0 0 0 .03-.091c0-.03.025-.11.054-.177.03-.067.092-.218.138-.336a10.522 10.522 0 0 1 .237-.563c.091-.212.354-.507.604-.677.176-.12.876-.468.943-.468a.29.29 0 0 0 .109-.039c.083-.047.382-.154.513-.183a.433.433 0 0 0 .14-.055.785.785 0 0 1 .213-.07l.344-.075c.786-.169 1.76-.264 3.237-.318a24.459 24.459 0 0 1 2.597.018c.746.035 1.435.08 1.53.1.097.02.245.037.33.037.33.003 1.276.204 1.744.37.15.053.298.097.33.098.032 0 .108.027.169.059a.535.535 0 0 0 .15.058c.044 0 .207.071.611.267.18.087.374.222.51.354.205.2.26.294.438.738l.101.252c.04.097.18.455.258.66a25.211 25.211 0 0 1 .264.68c.17.45.245.642.314.802a.64.64 0 0 1 .053.182c0 .033.013.068.03.078.015.01.07.146.121.303.051.157.107.32.125.363.186.454.262.913.194 1.166-.033.122-.082.18-.235.281-.107.07-.286.146-.399.169l-.36.075c-.085.018-3.158.034-6.828.035-4.078.001-6.683.016-6.697.038-.012.02.003.094.034.165l.116.27a.762.762 0 0 1 .062.197c0 .03.014.07.03.09.029.034.094.197.26.64.163.44.293.776.354.917l.053.122 1.851.02c1.018.01 2.052.039 2.297.063a166.435 166.435 0 0 1 1.53.157c.15.015.36.047.466.07.106.024.298.063.426.087.393.075.96.219 1.058.268.036.018.171.064.299.103.128.038.285.09.349.116.064.026.203.078.31.115.106.037.409.173.672.302l.478.235.21-.236c.146-.164.285-.273.455-.356l.245-.12h1.172c1.071 0 1.185.007 1.334.075.313.143.468.385.465.726-.003.323-.109.488-.465.725-.33.22-1.113.626-1.4.727-.27.096-.288.114-.223.233.129.234.244.486.373.815l.116.291.117.291c.046.118.108.269.138.336.029.067.053.14.053.162 0 .022.025.09.055.15s.085.188.122.284c.036.096.09.23.12.297.028.067.052.142.052.166 0 .024.017.073.038.11.021.038.1.234.177.437.242.645.365.962.43 1.112a.646.646 0 0 1 .053.177c0 .03.014.07.03.091.018.02.071.142.12.27a299.664 299.664 0 0 0 .377.982c.03.07.054.152.054.182s.039.082.086.115c.18.126 1.519.057 1.863-.095.383-.17.791-.608.86-.922.014-.07.043-.126.062-.126.022 0 .036-1.642.036-4.135 0-2.595-.014-4.136-.037-4.136-.02 0-.053-.056-.072-.126a5.957 5.957 0 0 0-.14-.398 69.464 69.464 0 0 1-.274-.718 68.564 68.564 0 0 1-.125-.33 12.96 12.96 0 0 0-.23-.589.642.642 0 0 1-.052-.182c0-.033-.016-.07-.036-.082-.02-.012-.047-.075-.062-.14a1.076 1.076 0 0 0-.08-.223.493.493 0 0 1-.055-.149.523.523 0 0 0-.058-.155.512.512 0 0 1-.058-.171.172.172 0 0 0-.032-.097 1.234 1.234 0 0 1-.103-.231 35.473 35.473 0 0 0-.51-1.327.69.69 0 0 1-.053-.16.537.537 0 0 0-.058-.15.513.513 0 0 1-.058-.17.177.177 0 0 0-.031-.098c-.028-.033-.068-.131-.263-.648-.118-.315-.184-.481-.235-.598a.646.646 0 0 1-.052-.177c0-.03-.014-.071-.031-.091a1.8 1.8 0 0 1-.12-.27 12.207 12.207 0 0 0-.122-.31l-.117-.292a17.816 17.816 0 0 0-.116-.291l-.117-.291c-.175-.448-.373-.768-.64-1.034a7.155 7.155 0 0 0-.774-.585c-.331-.2-.971-.466-1.53-.634a1.834 1.834 0 0 1-.327-.122.176.176 0 0 0-.102-.033c-.036 0-.15-.025-.254-.056-.767-.228-2.115-.39-3.744-.449-1.271-.046-1.722-.043-3.092.02zm-15.62 6.389c-.794.027-1.579.086-2.287.173-.686.085-1.535.276-1.976.446-.118.045-.318.117-.446.16-.924.316-1.774.855-2.223 1.41-.229.282-.369.55-.623 1.187a16.66 16.66 0 0 0-.292.738c-.076.203-.156.4-.177.436a.295.295 0 0 0-.038.11.669.669 0 0 1-.053.167 7.97 7.97 0 0 0-.112.277l-.119.31-.199.517c-.076.199-.153.391-.17.427a4.02 4.02 0 0 0-.239.63 1.83 1.83 0 0 1-.121.328.169.169 0 0 0-.034.097.482.482 0 0 1-.054.164c-.03.057-.066.157-.08.223-.015.065-.043.128-.062.14-.02.013-.036.052-.036.088a.512.512 0 0 1-.058.177.536.536 0 0 0-.058.15.681.681 0 0 1-.054.16c-.029.068-.083.21-.12.317-.037.106-.125.342-.194.524-.07.181-.155.409-.188.505-.033.096-.098.27-.143.388-.045.117-.1.275-.122.35a.587.587 0 0 1-.074.172.162.162 0 0 0-.036.097.51.51 0 0 1-.058.172.511.511 0 0 0-.058.181.214.214 0 0 1-.058.13c-.05.05-.058.567-.058 4.176 0 2.483.014 4.119.036 4.119.02 0 .048.056.063.126.033.153.237.47.412.638.188.181.554.347.872.396.379.059 3.246.058 3.64 0a1.532 1.532 0 0 0 1.117-.714c.205-.313.232-.422.254-1.048l.02-.583 2.384-.019 2.384-.02.023-.388c.012-.213.041-.44.065-.505.023-.064.08-.212.125-.33.046-.117.098-.257.117-.31.018-.054.07-.193.116-.31.046-.118.101-.276.123-.35a.587.587 0 0 1 .074-.173.162.162 0 0 0 .036-.097c0-.033.026-.11.058-.171a.536.536 0 0 0 .058-.15c0-.021.023-.093.052-.16.028-.068.073-.184.1-.259.09-.255.232-.64.314-.854.046-.117.1-.275.122-.35a.581.581 0 0 1 .074-.172.163.163 0 0 0 .036-.097c0-.034.026-.11.058-.172a.566.566 0 0 0 .058-.143c0-.017.02-.081.045-.141.095-.234.185-.5.186-.556.001-.032.028-.108.06-.17a.535.535 0 0 0 .057-.149c0-.035.034-.121.174-.438.028-.064.115-.274.193-.466l.174-.427c.035-.085.104-.264.24-.621.048-.129.102-.25.119-.27a.164.164 0 0 0 .03-.091c0-.03.025-.11.054-.177.029-.067.082-.201.119-.297.037-.096.091-.224.122-.285a.54.54 0 0 0 .055-.15c0-.021.028-.098.062-.17.127-.268.56-.246-5.167-.26-5.698-.014-5.323.002-5.816-.246-.24-.12-.34-.289-.336-.563.002-.18.114-.605.176-.674a.166.166 0 0 0 .034-.096c0-.034.025-.108.055-.165.03-.057.066-.157.08-.223.014-.065.042-.128.062-.14.02-.013.036-.052.036-.088s.024-.113.054-.17c.03-.057.066-.158.08-.223.015-.065.043-.129.062-.14.02-.013.036-.052.036-.089 0-.036.025-.112.055-.17a1.08 1.08 0 0 0 .08-.222c.014-.066.042-.129.062-.141.02-.012.036-.05.036-.082 0-.033.024-.115.053-.182.056-.13.119-.29.261-.666.05-.128.103-.25.12-.27a.162.162 0 0 0 .03-.09c0-.05.12-.349.196-.484a.34.34 0 0 0 .04-.117c.005-.093.256-.4.471-.573.186-.15.64-.407.902-.508l.267-.11c.104-.045.218-.08.254-.08a.176.176 0 0 0 .101-.034c.02-.018.168-.072.328-.12l.408-.121c.115-.034.27-.06.89-.15.735-.106.934-.125 1.706-.164 1.523-.077 4.06-.034 4.922.083.925.126 1.336.19 1.472.23.343.102 1.299.411 1.416.459.353.143.719.354.91.524.221.198.318.368.545.962.037.096.09.23.12.297.03.067.053.147.053.178 0 .03.011.067.025.08.034.035.207.464.207.515 0 .023.034.078.076.123.062.066.108.078.242.062.092-.01.22-.035.283-.054.064-.02.287-.053.495-.074.426-.044.68-.128.623-.205a2.086 2.086 0 0 1-.125-.282 17.63 17.63 0 0 0-.258-.66c-.042-.098-.111-.269-.328-.815-.39-.979-.889-1.5-1.899-1.986-.203-.097-.403-.19-.446-.207a7.72 7.72 0 0 0-.62-.216 4.856 4.856 0 0 1-.349-.117c-.343-.142-1.238-.316-2.19-.427-1.045-.121-3.185-.182-4.65-.132zm12.946 6.411c-.629.016-1.274.046-1.434.068-.16.022-.422.05-.582.063-.862.067-2.017.316-2.544.547a.634.634 0 0 1-.182.054c-.033 0-.07.016-.082.035-.012.02-.076.048-.142.063-.118.026-.36.126-.755.313-.35.165-.84.52-1.143.825-.34.345-.447.512-.71 1.113a7.55 7.55 0 0 1-.123.265.54.54 0 0 0-.055.15.67.67 0 0 1-.054.161c-.03.068-.094.228-.144.356-.049.128-.103.25-.12.27a.165.165 0 0 0-.03.09c0 .03-.025.11-.054.178-.029.067-.08.192-.112.277a131.385 131.385 0 0 1-.266.7c-.048.127-.102.249-.12.269a.165.165 0 0 0-.03.091c0 .05-.043.161-.175.455a5.551 5.551 0 0 0-.244.64c-.044.139-.118.349-.164.466a5.3 5.3 0 0 0-.122.35.583.583 0 0 1-.074.172.163.163 0 0 0-.035.098c0 .033-.027.11-.059.17a.536.536 0 0 0-.058.15.682.682 0 0 1-.053.16c-.03.068-.11.28-.177.473a26.248 26.248 0 0 1-.297.805c-.113.305-.18.48-.227.593a1.669 1.669 0 0 0-.077.242c-.015.07-.043.136-.063.148-.02.012-.036.051-.036.088a.481.481 0 0 1-.055.17c-.03.057-.065.157-.08.222-.014.065-.042.129-.061.141-.022.013-.036 1.628-.035 4.048.001 3.805.005 4.038.072 4.233.04.114.091.227.116.25a.158.158 0 0 1 .043.095c0 .09.443.494.66.602.117.058.326.124.464.146.344.054 3.336.052 3.694-.002.345-.053.665-.217.902-.462.36-.37.437-.592.47-1.334l.024-.57h5.514c3.033 0 5.542.011 5.575.024.051.02.062.097.062.445 0 .723.12 1.081.489 1.45.243.243.536.394.876.45.322.051 3.395.051 3.695 0a1.54 1.54 0 0 0 1.047-.64c.157-.209.24-.415.287-.719.024-.156.04-1.686.039-4.038 0-4.056.01-3.826-.194-4.349a5.806 5.806 0 0 1-.106-.29 1.227 1.227 0 0 0-.074-.175.458.458 0 0 1-.051-.163c0-.036-.017-.076-.036-.088-.02-.012-.048-.076-.062-.141a1.08 1.08 0 0 0-.08-.223.492.492 0 0 1-.055-.148.527.527 0 0 0-.058-.156.513.513 0 0 1-.058-.17.17.17 0 0 0-.033-.098 1.24 1.24 0 0 1-.102-.231 67.814 67.814 0 0 0-.395-1.048 25.377 25.377 0 0 1-.222-.593c-.085-.23-.185-.484-.242-.617a.666.666 0 0 1-.053-.166.293.293 0 0 0-.038-.11 6.157 6.157 0 0 1-.177-.436 33 33 0 0 0-.43-1.113.643.643 0 0 1-.053-.177c0-.03-.014-.07-.03-.09a1.81 1.81 0 0 1-.12-.27 18.55 18.55 0 0 0-.258-.66 9.877 9.877 0 0 1-.116-.292 12.69 12.69 0 0 0-.098-.252l-.117-.292c-.232-.582-.398-.857-.717-1.182-.34-.347-.968-.743-1.49-.942a31.525 31.525 0 0 0-1.395-.464c-1.366-.38-3.57-.542-6.395-.473zm2.597 1.646c.5.012 1.059.04 1.24.06.181.021.495.055.698.075.656.066 1.21.188 1.957.432.678.221.646.21 1.045.405.434.213.782.564.905.91.05.138.105.287.124.33.019.042.072.173.118.29.046.118.098.25.116.292.034.08.154.387.26.66.032.085.083.21.112.278.029.067.053.146.053.176s.014.071.03.092c.018.02.072.141.12.27.15.394.206.54.241.62.032.075.238.704.35 1.069.03.096.053.272.053.39 0 .177-.02.243-.106.357-.133.174-.268.243-.674.34-.314.077-.443.078-8.084.068-7.384-.01-7.776-.014-8.009-.08-.344-.1-.551-.219-.657-.377-.079-.117-.09-.17-.075-.388.01-.139.036-.313.058-.388.062-.204.622-1.68.667-1.757a.295.295 0 0 0 .04-.116c0-.027.024-.096.054-.153a1.08 1.08 0 0 0 .08-.223c.015-.066.042-.129.062-.141.02-.012.036-.05.036-.082a.64.64 0 0 1 .053-.182 14.6 14.6 0 0 0 .241-.618c.034-.09.086-.222.115-.291.308-.73.38-.833.75-1.089.239-.163.933-.513 1.02-.513a.15.15 0 0 0 .09-.035.582.582 0 0 1 .173-.074c.133-.039.277-.087.542-.184.3-.108 1.176-.256 2.055-.346.653-.067 2.428-.136 2.926-.114.17.008.72.025 1.22.037zm-19.78 4.064c.299.114.632.439.723.707.145.428.036.86-.303 1.2-.252.252-.51.337-1.026.337-.509 0-.686-.052-1.351-.395-.67-.345-.683-.352-.705-.379a.827.827 0 0 0-.123-.09c-.256-.163-.402-.502-.354-.82.03-.197.221-.44.438-.554.171-.09.188-.092 1.324-.092 1.092 0 1.161.005 1.376.086zm12.886 6.448c.258.127.51.386.622.641.242.55-.044 1.193-.654 1.473-.187.086-.26.096-.664.094-.534-.003-.66-.04-1.346-.396-.675-.35-.685-.355-.751-.409a53.363 53.363 0 0 1-.183-.148c-.174-.143-.246-.323-.246-.611 0-.34.136-.54.475-.696.153-.07.244-.075 1.346-.066l1.182.01.22.108zm13.805-.052c.3.137.506.43.501.71-.008.394-.199.616-.823.96-.913.502-1.175.591-1.746.593-.38.001-.475-.011-.635-.084-.205-.094-.24-.12-.423-.297-.21-.205-.297-.43-.297-.77 0-.54.248-.882.803-1.108.169-.068.29-.075 1.321-.077 1.042-.002 1.15.004 1.299.073z" fill="#fff"/></svg>