<svg width="620" height="1024" fill="none" xmlns="http://www.w3.org/2000/svg"><path d="M430.417 512.357H-159v24.551h589.417v-24.551z" fill="#F5F7FC"/><path d="M104.452.878H89.716V1023.84h14.736V.878zM-159 711.22v-23.323L20.504 523.405l12.95 11.457L-159 711.22zM89.716 881.849H-159v13.094H89.716v-13.094z" fill="#F5F7FC"/><path d="M-159 739.863s111.185-91.657 138.424-119.072c27.238-27.825 43.76-38.873 63.853-38.873 20.094 0 29.025 11.457 26.346 29.052-2.68 17.595-27.685 47.875-22.774 61.378 5.359 13.503 22.774 22.914 22.774 47.465 0 4.501 0 64.651-3.126 101.477-1.786 21.278-22.327 40.509-56.263 39.691C-54.512 859.753-159 859.344-159 859.344V739.863zM-159 224.701h53.583c13.843 0 22.327-11.866 22.327-21.686 0-6.138-.447-24.551 6.698-34.781 13.396-19.641 29.917-24.96 49.118-24.96h72.337c18.755 0 20.987-9.82 20.987-18.413V.469H-159v224.232z" fill="#C4D3F0"/><path d="M-53.173 512.357V203.833c0-17.595 12.503-29.87 31.704-29.87h330.877v12.275H-21.916c-11.163 0-18.307 6.547-18.307 17.595v308.115h-12.95v.409z" fill="#F5F7FC"/><path d="M367.903 340.091H96.861v12.276h271.042v-12.276z" fill="#F5F7FC"/><path d="M-3.162 263.165c-7.144 0-12.949-5.32-12.949-11.867v-29.052c0-6.547 5.805-11.866 12.95-11.866H53.1c7.144 0 12.95 5.319 12.95 11.866v29.052c0 6.547-5.806 11.867-12.95 11.867H-3.162zM-3.162 485.76c-7.144 0-12.949-5.319-12.949-11.866v-29.052c0-6.547 5.805-11.866 12.95-11.866H53.1c7.144 0 12.95 5.319 12.95 11.866v29.052c0 6.547-5.806 11.866-12.95 11.866H-3.162zM-3.162 374.462c-7.144 0-12.949-5.319-12.949-11.866v-29.052c0-6.547 5.805-11.866 12.95-11.866H53.1c7.144 0 12.95 5.319 12.95 11.866v29.052c0 6.547-5.806 11.866-12.95 11.866H-3.162z" fill="#E2E9F7"/><path d="M89.716 290.58H-44.242v6.138H89.716v-6.138zM89.716 401.469H-44.242v6.137H89.716v-6.137zM331.386 664.357 89.529 885.987l11.367 10.416 241.857-221.63-11.367-10.416z" fill="#F5F7FC"/><path d="M255.825 585.601c-8.484 0-15.629-6.547-15.629-14.322 0-7.774 7.145-14.321 15.629-14.321s15.628 6.547 15.628 14.321c0 7.775-6.698 14.322-15.628 14.322zM199.116 585.601c-8.484 0-15.629-6.547-15.629-14.322 0-7.774 7.145-14.321 15.629-14.321s15.628 6.547 15.628 14.321c0 7.775-6.698 14.322-15.628 14.322zM142.407 585.601c-8.484 0-15.629-6.547-15.629-14.322 0-7.774 7.145-14.321 15.629-14.321s15.628 6.547 15.628 14.321c0 7.775-6.698 14.322-15.628 14.322zM142.407 639.204c8.631 0 15.628-6.412 15.628-14.321 0-7.91-6.997-14.322-15.628-14.322-8.632 0-15.629 6.412-15.629 14.322 0 7.909 6.997 14.321 15.629 14.321zM142.407 693.216c-8.484 0-15.629-6.547-15.629-14.321 0-7.775 7.145-14.322 15.629-14.322s15.628 6.547 15.628 14.322c0 7.774-6.698 14.321-15.628 14.321zM142.407 746.819c-8.484 0-15.629-6.547-15.629-14.321 0-7.775 7.145-14.322 15.629-14.322s15.628 6.547 15.628 14.322c0 8.183-6.698 14.321-15.628 14.321zM142.407 800.831c-8.484 0-15.629-6.547-15.629-14.321 0-7.775 7.145-14.322 15.629-14.322s15.628 6.547 15.628 14.322c0 7.774-6.698 14.321-15.628 14.321zM-10.753 500.082c-8.484 0-15.628-6.547-15.628-14.322 0-7.774 7.144-14.321 15.628-14.321s15.629 6.547 15.629 14.321c.446 7.775-6.698 14.322-15.629 14.322zM60.692 500.082c-8.484 0-15.629-6.547-15.629-14.322 0-7.774 7.145-14.321 15.629-14.321s15.628 6.547 15.628 14.321c.447 7.775-6.697 14.322-15.628 14.322zM-10.753 447.297c-8.484 0-15.628-6.547-15.628-14.321 0-7.775 7.144-14.322 15.628-14.322s15.629 6.547 15.629 14.322c.446 7.774-6.698 14.321-15.629 14.321zM60.692 447.297c-8.484 0-15.629-6.547-15.629-14.321 0-7.775 7.145-14.322 15.629-14.322s15.628 6.547 15.628 14.322c.447 7.774-6.697 14.321-15.628 14.321zM-10.753 388.784c-8.484 0-15.628-6.547-15.628-14.322 0-7.774 7.144-14.321 15.628-14.321s15.629 6.547 15.629 14.321c.446 7.775-6.698 14.322-15.629 14.322zM60.692 388.784c-8.484 0-15.629-6.547-15.629-14.322 0-7.774 7.145-14.321 15.629-14.321s15.628 6.547 15.628 14.321c.447 7.775-6.697 14.322-15.628 14.322zM-10.753 335.999c-8.484 0-15.628-6.547-15.628-14.321 0-7.775 7.144-14.322 15.628-14.322s15.629 6.547 15.629 14.322c.446 8.183-6.698 14.321-15.629 14.321zM60.692 335.999c-8.484 0-15.629-6.547-15.629-14.321 0-7.775 7.145-14.322 15.629-14.322s15.628 6.547 15.628 14.322c.447 8.183-6.697 14.321-15.628 14.321zM-10.753 277.486c-8.484 0-15.628-6.547-15.628-14.321 0-7.775 7.144-14.322 15.628-14.322s15.629 6.547 15.629 14.322c.446 7.774-6.698 14.321-15.629 14.321zM60.692 277.486c-8.484 0-15.629-6.547-15.629-14.321 0-7.775 7.145-14.322 15.629-14.322s15.628 6.547 15.628 14.322c.447 7.774-6.697 14.321-15.628 14.321zM-10.753 224.702c-8.484 0-15.628-6.547-15.628-14.322 0-7.774 7.144-14.321 15.628-14.321s15.629 6.547 15.629 14.321c.446 8.184-6.698 14.322-15.629 14.322zM60.692 224.702c-8.484 0-15.629-6.547-15.629-14.322 0-7.774 7.145-14.321 15.629-14.321s15.628 6.547 15.628 14.321c.447 8.184-6.697 14.322-15.628 14.322z" fill="#C4D3F0"/><path d="M155.356 157.186c-19.201 0-34.383-14.321-34.383-31.507V.879h205.403v124.8c0 17.595-15.628 31.507-34.382 31.507H155.356zM189.739 201.378h-62.961v47.465h62.961v-47.465z" fill="#E2E9F7"/><path d="M162.5 248.434h-35.722v74.062H162.5v-74.062zM292.887 201.378h-73.678v47.465h73.678v-47.465zM265.202 287.716h-69.659v34.371h69.659v-34.371zM162.5 371.598h-34.382v49.92H162.5v-49.92zM162.5 441.978h-34.382v49.92H162.5v-49.92zM180.808 371.598H162.5v30.28h18.308v-30.28zM180.808 462.028H162.5v30.279h18.308v-30.279zM265.202 371.598h-66.086v30.28h66.086v-30.28zM265.202 462.028h-66.086v30.279h66.086v-30.279zM211.353 709.017l-56.518 51.791 25.891 23.725 56.517-51.79-25.89-23.726zM177.512 851.648l-56.517 51.791 25.89 23.725 56.518-51.791-25.891-23.725zM260.112 775.956l-56.517 51.79 25.891 23.726 56.517-51.791-25.891-23.725z" fill="#E2E9F7"/><path d="M158.035 903.127H121.42v73.244h36.615v-73.244zM70.07 915.812H33.453v73.243h36.615v-73.243zM10.234 915.812H-26.38v73.243h36.615v-73.243z" fill="#E2E9F7"/><path d="M32.56 934.225H10.235v36.826h22.327v-36.826zM158.035 1000.51H121.42v23.33h36.615v-23.33zM283.587 643.27l-56.518 51.79 25.891 23.726 56.517-51.791-25.89-23.725z" fill="#E2E9F7"/><path d="M233.498 920.722h-14.289v102.708h14.289V920.722z" fill="#F5F7FC"/><path d="m301.597 845.192-82.724 75.806 10.104 9.258 82.724-75.805-10.104-9.259z" fill="#F5F7FC"/></svg>