<svg width="379" height="224" fill="none" xmlns="http://www.w3.org/2000/svg"><path d="M1 20C1 8.954 9.954 0 21 0h338c11.046 0 20 8.954 20 20v184c0 11.046-8.954 20-20 20H21c-11.046 0-20-8.954-20-20V20z" fill="#4E91E4" fill-opacity=".1"/><path d="M.5 175H379v28c0 11.598-9.402 21-21 21H20.5c-11.046 0-20-8.954-20-20v-29z" fill="#1C2229"/><path d="M34.6 175H379v4.2H38.444L34.6 175z" fill="#272E37"/><path d="M234.977 48.335a2.8 2.8 0 0 1 2.72-2.135h37.581a2.8 2.8 0 0 1 2.727 2.163L307.6 175H204l30.977-126.665z" fill="#979697" fill-opacity=".95"/><path d="M306.378 48.335a2.8 2.8 0 0 1 2.72-2.135h37.581a2.8 2.8 0 0 1 2.726 2.163L379 175H275.4l30.978-126.665z" fill="#979697"/><path d="m260.816 12.531 7.42 6.397a12.73 12.73 0 0 1-8.312 22.372h-5.911a12.966 12.966 0 0 1-11.597-7.167 12.966 12.966 0 0 0-13.246-7.063l-12.472 1.6a12.02 12.02 0 0 1-9.846-3.245c-6.095-5.84-4.428-15.98 3.215-19.563l2.906-1.362a14.223 14.223 0 0 1 7.607-1.258l25.401 2.823a27.348 27.348 0 0 1 14.835 6.466z" fill="#E8F1F6"/><path d="m196.082 20.284.366.32a6.61 6.61 0 0 1 1.836 2.653c1.69 4.508-1.854 9.252-6.657 8.91l-4.593-.329a6.32 6.32 0 0 1-1.956-12.147l2.129-.876a8.54 8.54 0 0 1 8.875 1.47zM317.054 30.29l1.065 3.727a10.041 10.041 0 0 0 9.655 7.283h1.574a7.583 7.583 0 0 0 6.885-4.405 7.581 7.581 0 0 1 7.329-4.391l3.751.22a13.09 13.09 0 0 0 5.753-.963l.836-.344a13.4 13.4 0 0 0 8.298-12.39v-.179a11.838 11.838 0 0 0-9.993-11.695l-4.022-.634a17.874 17.874 0 0 0-2.788-.219h-6.4a21.723 21.723 0 0 0-15.36 6.362l-2.721 2.721a15.182 15.182 0 0 0-3.862 14.906z" fill="#E8F1F6" fill-opacity=".4"/><path d="m239.7 72.8 26.6-11.9m11.2 14.7-14.7 7.7m-32.9 29.4 23.1-11.2m27.3 9.8-28.7 14m-21.7 32.2 30.1-15.4m-3.5 26.6 14.7-7.7" stroke="#A0A0A0" stroke-width="4" stroke-linecap="round" stroke-linejoin="round"/><path d="M310.4 72.1 337 60.2m11.2 14.7-14.7 7.7M300.6 112l23.1-11.2m27.3 9.8-28.7 14m-21.7 32.2 30.1-15.4m-3.5 26.6 14.7-7.7" stroke="#A09E9E" stroke-width="4" stroke-linecap="round" stroke-linejoin="round"/><path d="m313.532 26.974 1.074 5.728a3.122 3.122 0 0 1-5.799 2.092l-4.7-8.461a8.613 8.613 0 0 1-.997-5.402l.574-4.022c.549-3.842 4.7-6.017 8.171-4.281a5.686 5.686 0 0 1 2.951 6.55l-1.141 4.278a7.96 7.96 0 0 0-.133 3.518z" fill="#E8F1F6"/><path fill="#1B4589" d="M205.476 121.547h-13.161v55.192h13.161z"/><path d="M211.419 130.463a.849.849 0 0 0-.849-.849h-.849a.849.849 0 0 0-.849.849v46.276h2.547v-46.276z" fill="#898989"/><path fill="#353535" d="M211.419 134.709h-2.547v.849h2.547zM211.419 144.473h-2.547v.849h2.547zM208.873 155.087h-3.396v21.652h3.396z"/><circle r="5.307" transform="matrix(-1 0 0 1 209.934 171.433)" fill="#353535"/><path fill="#353535" d="M211.419 175.041h-13.586v1.698h13.586z"/><path fill="#353535" d="M200.806 168.673h-17.831v8.067h17.831zM182.975 174.192h-22.501v2.123h22.501z"/><path fill="#898989" d="M182.975 167.399h-22.501v6.793h22.501z"/><path d="M200.806 166.126a.85.85 0 0 0-.849-.85h-16.133a.85.85 0 0 0-.849.85v2.547h17.831v-2.547z" fill="#717171"/><path d="M200.806 166.126h-17.831v2.547h17.831v-2.547z" fill="#898989"/><path d="M194.651 119.212h-1.911a.212.212 0 0 0-.212.213v1.91h2.123v-2.123zM197.197 119.212h-2.123v2.123h2.123zM199.744 119.212h-2.123v2.123h2.123zM202.291 119.212h-2.123v2.123h2.123zM204.839 119.212h-2.123v2.123h2.123zM206.537 119.425a.213.213 0 0 0-.213-.213h-1.061v2.123h1.061a.212.212 0 0 0 .213-.212v-1.698z" stroke="#1B4589" stroke-width=".425"/><path d="M205.9 144.473a.424.424 0 0 0-.425-.424h-13.161v.849h13.161c.235 0 .425-.19.425-.425zM205.9 152.54a.425.425 0 0 0-.425-.425h-13.161v.849h13.161c.235 0 .425-.19.425-.424zM205.9 160.182a.425.425 0 0 0-.425-.425h-13.161v.849h13.161c.235 0 .425-.19.425-.424zM205.9 136.831a.424.424 0 0 0-.425-.424h-13.161v.849h13.161c.235 0 .425-.19.425-.425z" fill="#173C78"/><path fill="#353535" d="M205.9 168.673h-6.793v.849h6.793zM205.9 171.22h-6.793v.849h6.793z"/><path fill="#1B4589" d="M160.473 129.614h-1.274v47.126h1.274zM178.729 142.775h-1.274v33.54h1.274z"/><path fill="#1B4589" d="M192.314 161.455h-31.842v1.274h31.842zM184.886 136.407l.167-.615.117.032.098.073-.382.51zm-25.049-6.793h-.637a.64.64 0 0 1 .804-.615l-.167.615zm33.158 13.671-8.491-6.369.764-1.019 8.491 6.369-.764 1.019zm-8.276-6.264-25.049-6.792.334-1.23 25.049 6.793-.334 1.229zm-24.245-7.407v1.486H159.2v-1.486h1.274zM177.456 141.077h-16.982v14.859h16.982zM192.314 147.021h-13.586v8.916h13.586z"/><path d="M177.456 155.936h-16.982l2.547 3.821h11.888l2.547-3.821z" fill="url(#a)"/><path d="M192.314 155.936h-13.585l2.038 3.821h9.51l2.037-3.821z" fill="url(#b)"/><path stroke="#1B4589" stroke-width=".425" d="M173.846 137.892h-2.972v2.972h2.972zM170.45 137.892h-2.972v2.972h2.972zM167.054 137.892h-2.972v2.972h2.972zM163.658 137.892h-2.972v2.972h2.972zM177.244 137.892h-2.972v2.972h2.972zM178.941 144.686h2.972v2.123h-2.972zM192.102 144.685h-2.123v2.123h2.123zM189.555 144.685h-2.123v2.123h2.123zM187.008 144.685h-2.123v2.123h2.123zM184.461 144.685h-2.123v2.123h2.123z"/><path d="m192.528 143.836-8.067-6.156-24.412-6.58" stroke="#1B4589" stroke-width=".212"/><path d="m192.528 143.836-8.067-6.156-24.412-6.58" stroke="#000" stroke-opacity=".2" stroke-width=".212"/><path fill="#1B4589" d="M59.652 74.709h24.33v102.03h-24.33z"/><path d="M48.664 91.191c0-.867.702-1.57 1.57-1.57h1.569c.867 0 1.57.703 1.57 1.57v85.548h-4.71V91.191z" fill="#898989"/><path fill="#353535" d="M48.664 99.039h4.709v1.57h-4.709zM48.664 117.091h4.709v1.57h-4.709zM53.373 136.712h6.279v40.027h-6.279z"/><circle cx="51.411" cy="166.929" r="9.811" fill="#353535"/><path fill="#353535" d="M48.664 173.6h25.115v3.139H48.664z"/><path fill="#353535" d="M68.285 161.827h32.964v14.912H68.285zM101.249 172.03h41.597v3.924h-41.597z"/><path fill="#898989" d="M101.249 159.473h41.597v12.558h-41.597z"/><path d="M68.285 157.118c0-.867.702-1.569 1.57-1.569h29.824c.867 0 1.569.702 1.569 1.569v4.709H68.285v-4.709z" fill="#717171"/><path d="M68.285 157.118h32.963v4.709H68.285v-4.709z" fill="#898989"/><path d="M79.665 70.392h3.532c.217 0 .393.176.393.393v3.532h-3.925v-3.925zM74.956 70.392h3.924v3.924h-3.924zM70.247 70.392h3.924v3.924h-3.924zM65.538 70.392h3.924v3.924h-3.924zM60.829 70.392h3.924v3.924h-3.924zM57.69 70.785c0-.217.175-.393.392-.393h1.962v3.925h-1.962a.392.392 0 0 1-.393-.393v-3.14z" stroke="#1B4589" stroke-width=".785"/><path d="M58.867 117.091c0-.433.351-.785.785-.785h24.33v1.57h-24.33a.785.785 0 0 1-.785-.785zM58.867 132.003c0-.433.351-.785.785-.785h24.33v1.57h-24.33a.785.785 0 0 1-.785-.785zM58.867 146.13c0-.433.351-.785.785-.785h24.33v1.57h-24.33a.785.785 0 0 1-.785-.785zM58.867 102.964c0-.434.351-.785.785-.785h24.33v1.57h-24.33a.785.785 0 0 1-.785-.785z" fill="#173C78"/><path fill="#353535" d="M58.867 161.827h12.558v1.57H58.867zM58.867 166.536h12.558v1.57H58.867z"/><path fill="#1B4589" d="M142.846 89.621h2.355v87.118h-2.355zM109.097 113.951h2.355v62.003h-2.355z"/><path fill="#1B4589" d="M83.982 148.485h58.864v2.355H83.982zM97.716 102.179l-.308-1.136-.217.059-.18.135.706.942zm46.307-12.558h1.177a1.178 1.178 0 0 0-1.486-1.136l.309 1.136zm-61.297 25.272 15.697-11.772-1.413-1.884-15.697 11.773 1.413 1.883zm15.299-11.578 46.306-12.558-.617-2.272-46.306 12.558.617 2.272zm44.82-13.694v2.747h2.355v-2.747h-2.355zM111.452 110.812h31.394v27.47h-31.394zM83.981 121.8h25.115v16.482H83.981z"/><path d="M111.452 138.282h31.394l-4.709 7.063h-21.976l-4.709-7.063z" fill="url(#c)"/><path d="M83.981 138.282h25.116l-3.768 7.063h-17.58l-3.768-7.063z" fill="url(#d)"/><path stroke="#1B4589" stroke-width=".785" d="M118.123 104.926h5.494v5.494h-5.494zM124.402 104.926h5.494v5.494h-5.494zM130.681 104.926h5.494v5.494h-5.494zM136.959 104.926h5.494v5.494h-5.494zM111.844 104.926h5.494v5.494h-5.494zM108.704 117.483h-5.494v3.924h5.494zM84.374 117.483h3.924v3.924h-3.924zM89.083 117.483h3.924v3.924h-3.924zM93.792 117.483h3.924v3.924h-3.924zM98.502 117.483h3.924v3.924h-3.924z"/><path d="M83.589 115.914 98.5 104.533l45.129-12.165" stroke="#1B4589" stroke-width=".392"/><path d="M342.797 161.627a1.4 1.4 0 0 1 2.407 0L370.6 204.4h-53.2l25.397-42.773z" fill="#353535"/><circle cx="344.701" cy="171.5" r=".7" fill="#DDD" fill-opacity=".25"/><circle cx="337.701" cy="182.7" r=".7" fill="#DDD" fill-opacity=".25"/><circle cx="353.1" cy="188.3" r=".7" fill="#DDD" fill-opacity=".25"/><circle cx="329.301" cy="199.5" r=".7" fill="#DDD" fill-opacity=".25"/><circle cx="341.901" cy="191.1" r=".7" fill="#DDD" fill-opacity=".25"/><circle cx="354.501" cy="200.9" r=".7" fill="#DDD" fill-opacity=".25"/><path d="M241.469 130.493c1.351-2.102 4.425-2.102 5.777 0l43.468 67.618H198l43.469-67.618z" fill="#353535"/><circle cx="234.055" cy="165.49" r="1.717" fill="#DDD" fill-opacity=".25"/><circle cx="244.357" cy="141.452" r="1.717" fill="#DDD" fill-opacity=".25"/><circle cx="254.66" cy="158.622" r="1.717" fill="#DDD" fill-opacity=".25"/><circle cx="237.488" cy="151.754" r="1.717" fill="#DDD" fill-opacity=".25"/><circle cx="275.262" cy="182.659" r="1.717" fill="#DDD" fill-opacity=".25"/><circle cx="251.225" cy="179.225" r="1.717" fill="#DDD" fill-opacity=".25"/><circle cx="237.488" cy="182.659" r="1.717" fill="#DDD" fill-opacity=".25"/><circle cx="220.319" cy="179.225" r="1.717" fill="#DDD" fill-opacity=".25"/><circle cx="213.453" cy="192.96" r="1.717" fill="#DDD" fill-opacity=".25"/><circle cx="264.961" cy="192.96" r="1.717" fill="#DDD" fill-opacity=".25"/><path d="M108.281 155.585c.898-1.397 2.94-1.397 3.838 0L141 200.511H79.4l28.881-44.926z" fill="#353535"/><circle cx="103.356" cy="178.837" r="1.141" fill="#DDD" fill-opacity=".25"/><circle cx="110.2" cy="162.867" r="1.141" fill="#DDD" fill-opacity=".25"/><circle cx="117.045" cy="174.274" r="1.141" fill="#DDD" fill-opacity=".25"/><circle cx="105.637" cy="169.711" r="1.141" fill="#DDD" fill-opacity=".25"/><circle cx="130.734" cy="190.245" r="1.141" fill="#DDD" fill-opacity=".25"/><circle cx="114.763" cy="187.963" r="1.141" fill="#DDD" fill-opacity=".25"/><circle cx="105.637" cy="190.245" r="1.141" fill="#DDD" fill-opacity=".25"/><circle cx="94.23" cy="187.963" r="1.141" fill="#DDD" fill-opacity=".25"/><circle cx="89.667" cy="197.089" r="1.141" fill="#DDD" fill-opacity=".25"/><circle cx="123.889" cy="197.089" r="1.141" fill="#DDD" fill-opacity=".25"/><path d="M144.59 181.044a1.608 1.608 0 0 1 2.621 0l20.39 28.697h-43.4l20.389-28.697z" fill="#424141"/><circle cx="144.293" cy="189.648" r=".804" fill="#DDD" fill-opacity=".25"/><circle cx="137.863" cy="196.078" r=".804" fill="#DDD" fill-opacity=".25"/><circle cx="144.293" cy="200.9" r=".804" fill="#DDD" fill-opacity=".25"/><circle cx="134.648" cy="205.722" r=".804" fill="#DDD" fill-opacity=".25"/><circle cx="150.723" cy="207.33" r=".804" fill="#DDD" fill-opacity=".25"/><circle cx="149.116" cy="194.47" r=".804" fill="#DDD" fill-opacity=".25"/><circle cx="157.152" cy="200.9" r=".804" fill="#DDD" fill-opacity=".25"/><path d="M316.79 179.644a1.608 1.608 0 0 1 2.621 0l20.389 28.697h-43.4l20.39-28.697z" fill="#424141"/><circle cx="316.492" cy="188.248" r=".804" fill="#DDD" fill-opacity=".25"/><circle cx="310.064" cy="194.678" r=".804" fill="#DDD" fill-opacity=".25"/><circle cx="316.492" cy="199.5" r=".804" fill="#DDD" fill-opacity=".25"/><circle cx="306.848" cy="204.322" r=".804" fill="#DDD" fill-opacity=".25"/><circle cx="322.922" cy="205.93" r=".804" fill="#DDD" fill-opacity=".25"/><circle cx="321.316" cy="193.07" r=".804" fill="#DDD" fill-opacity=".25"/><circle cx="329.352" cy="199.5" r=".804" fill="#DDD" fill-opacity=".25"/><path fill="#1C2229" d="M287.707 163.22h2.415v18.512h-2.415zM312.629 164.024h2.415v17.707h-2.415zM289.313 182.537h22.536v2.415h-22.536z"/><path d="M311.048 181.61c0-.377.306-.683.684-.683h.926v3.219h-1.61v-2.536zM308.63 183.341h2.415v2.415h-.805v.805h-1.61v-3.22z" fill="#1C2229"/><path d="m307.8 186.85 5.794-6.726 1.45 1.205V182.161l-5.634 6.009-1.61-1.32z" fill="#1C2229"/><path fill="#1C2229" d="M312.654 182.537h.805v.805h-.805zM289.313 180.927h.805v1.61h-.805z"/><path d="M285.206 161.247a2.052 2.052 0 0 1 1.887-1.247h28.586c.822 0 1.564.491 1.887 1.247l.715 1.679a1.366 1.366 0 0 1-1.257 1.903h-31.276a1.367 1.367 0 0 1-1.258-1.903l.716-1.679z" fill="#EC2941"/><path d="M291.728 173.22c0-.189.153-.342.341-.342h.926c.189 0 .342.153.342.342v1.268h-1.268a.342.342 0 0 1-.341-.342v-.926z" fill="#1C2229"/><path d="M292.507 173.683h1.268c.189 0 .342.153.342.342v1.268h-1.61v-1.61z" fill="#1C2229"/><rect x="292.507" y="174.488" width="1.61" height="2.415" rx=".342" fill="#1C2229"/><rect x="293.351" y="175.433" width="1.473" height="5.854" rx=".342" transform="rotate(50.988 293.351 175.433)" fill="#1C2229"/><path d="M305.385 170.463h1.731c.378 0 .684.306.684.684v8.975h-.805v.805h-1.61v-10.464z" fill="#1C2229"/><path fill="#1C2229" d="M302.996 180.122h2.415v2.415h-2.415z"/><path fill="#1C2229" d="M301.386 180.122h2.415v2.415h-2.415z"/><path d="M294.146 174.366c0-.377.306-.683.683-.683h4.146v.805h-4.829v-.122z" fill="#E8C7BE"/><path fill="#444656" d="M299.751 171.268h3.219v1.61h-3.219z"/><path d="m299.377 173.683.374-1.61 4.858 3.22h-8.078l-2.012-1.61h4.858z" fill="#E8C7BE"/><path fill="#E8C7BE" d="M299.751 172.073h1.61v.805h-1.61z"/><path fill="#E8C7BE" d="M300.556 172.878h1.61v1.61h-1.61zM294.146 174.488h2.414v.805h-2.414v-.805z"/><path fill="#C4C4C4" d="M302.19 172.878h.805v2.415h-.805z"/><path d="M295.756 180.927h3.219v1.609h-3.219v-1.609z" fill="#1C2229"/><path d="M294.138 182.315a1.367 1.367 0 0 1 1.368-1.388h1.83l.025 1.609h-3.219l-.004-.221z" fill="#1C2229"/><path fill="#EC2941" d="M301.386 176.098h4.024v4.024h-4.024z"/><path d="M296.557 178.049c0-.189.153-.342.342-.342h8.512v2.415h-8.854v-2.073z" fill="#EC2941"/><path d="M295.756 179.659c0-.189.153-.342.342-.342h2.877v1.61h-3.219v-1.268z" fill="#EC2941"/><path d="M300.585 170.463h4.829v5.634h-4.829v-5.634z" fill="#444656"/><path d="M298.946 178.17c0 .189.153.342.342.342h2.878v-.805h-3.22v.463z" fill="#EC2941"/><path d="M300.581 166.318c0-.378.306-.684.684-.684h4.145v4.829h-4.829v-4.145z" fill="#EDBF9F"/><path d="M301.386 165.634h4.145c.378 0 .684.306.684.684v.121h-4.829v-.805zM305.41 166.439h.805v4.829h-.805z" fill="#F4E2CC"/><path d="M278.85 180.927h9.78c.377 0 .683.306.683.683v5.756H278.85v-6.439zM289.313 184.951h19.292l.83 3.22h-20.122v-3.22z" fill="#EC2941"/><path d="m297.213 196.441 11.391-11.49 3.453.4-10.293 10.95a3.22 3.22 0 0 1-4.551.14z" fill="#EC2941"/><path fill="#EC2941" d="M289.313 185.756h18.512v3.219h-18.512z"/><path fill="#EC2941" d="M288.508 186.561h18.512v3.219h-18.512z"/><path fill="#EC2941" d="M287.703 187.366h18.512v3.219h-18.512z"/><path fill="#EC2941" d="M287.703 188.17h17.707v3.219h-17.707z"/><path fill="#EC2941" d="M287.703 188.976h16.902v3.219h-16.902z"/><path fill="#EC2941" d="M287.703 189.78H303.8v3.219h-16.097z"/><path fill="#EC2941" d="M287.703 190.585h15.293v3.219h-15.293z"/><path fill="#EC2941" d="M287.703 191.39h14.488v3.219h-14.488z"/><path fill="#EC2941" d="M287.703 192.195h12.878v3.219h-12.878z"/><path fill="#EC2941" d="M277.24 193.805h22.536v3.219H277.24z"/><path fill="#EC2941" d="M275.63 194.609h22.536v3.219H275.63z"/><path d="M274.852 195.414h20.903v3.22h-20.926l.023-3.22zM254.707 200.244h21.732v1.852c0 .755-.612 1.367-1.368 1.367h-21.169l.805-3.219z" fill="#EC2941"/><path d="M245.854 198.634h30.585v3.219h-30.585v-3.219zM278.85 188.17h8.049v4.829h-8.049z" fill="#EC2941"/><path d="M253.471 203.463c10.837 0 26.992-2.055 21.76-10.506 0-2.741 6.407-9.805 4.83-11.67-1.61-1.61-1.61-1.208-22.134-.805-6.171.121-11.336.888-14.99 2.324-5.755 2.261-4.114 9.363-.696 14.516l.364.55.061.102c1.061 1.805 2.257 3.513 3.992 4.684 1.581.848 1.911.805 6.813.805z" fill="#EC2941"/><path fill="#EC2941" d="M276.435 180.122h11.268v.805h-11.268zM274.825 185.756h15.293v12.073h-15.293zM295.727 197.024h4.024l2.817-1.61-.774.885a6.834 6.834 0 0 1-5.145 2.335h-.922v-1.61z"/><path d="M278.849 188.17v-.804h8.049v.804h.805V193h-.805v.805h-8.049V193h-.805v-4.83h.805z" fill="#BD2134"/><path d="M277.215 198.231h-.524a.684.684 0 0 0-.683.684v.524" stroke="#EC2941" stroke-width=".684"/><path d="M301.16 171.832h.524c.377 0 .683.306.683.683v.524" stroke="#444656" stroke-width=".342"/><rect x="248.61" y="203.805" width="54.048" height="8.975" rx="4.487" fill="#8A929E" stroke="#252C34" stroke-width=".684"/><circle cx="253.902" cy="208.292" r="2.415" fill="#252C34"/><circle cx="297.366" cy="208.292" r="2.415" fill="#252C34"/><path fill="#444656" d="M281.268 198.634h3.219v4.829h-3.219zM309.438 196.098c0-.378.307-.684.684-.684h11.511c.377 0 .683.306.683.684v7.365h-12.878v-7.365z"/><path d="M302.195 197.708c0-.378.306-.684.683-.684h6.561v4.829h-6.561a.683.683 0 0 1-.683-.683v-3.462zM297.365 199.439h4.829v1.61h-4.829z" fill="#444656"/><path d="M295.756 200.122c0-.377.306-.683.684-.683h.926v4.024h-1.61v-3.341z" fill="#444656"/><path fill="#252C34" d="M305.414 203.463h17.707v9.658h-17.707z"/><path fill="#444656" d="M283.683 203.463h-1.61v3.219h1.61zM292.536 206.683h-10.463v.242c0 .755.612 1.367 1.367 1.367h9.096v-1.609z"/><path d="m295.755 202.658-4.024 4.025.805 1.609 4.829-4.829-1.61-.805z" fill="#444656"/><path d="M276.76 182.819c-.088.345-.579.343-.663-.004l-.704-2.886h2.1l-.733 2.89z" fill="#BFCCE2"/><path fill="#444656" d="M283.683 203.463h-1.61v3.219h1.61zM292.536 206.683h-10.463v.242c0 .755.612 1.367 1.367 1.367h9.096v-1.609z"/><path d="m295.755 202.658-4.024 4.025.805 1.609 4.829-4.829-1.61-.805z" fill="#444656"/><path d="M276.76 182.819c-.088.345-.579.343-.663-.004l-.704-2.886h2.1l-.733 2.89z" fill="#BFCCE2"/><path d="M191.608 68.303A12.296 12.296 0 0 0 188.132 61a12.124 12.124 0 0 0-7.238-3.522 12.082 12.082 0 0 0-7.836 1.797 12.24 12.24 0 0 0-5.013 6.332 8.086 8.086 0 0 0-5.412 2.731 8.211 8.211 0 0 0-2.026 5.748 8.197 8.197 0 0 0 2.489 5.56 8.075 8.075 0 0 0 5.617 2.273h22.968a6.728 6.728 0 0 0 4.766-2.02 6.834 6.834 0 0 0 1.953-4.825 6.839 6.839 0 0 0-2.004-4.803 6.73 6.73 0 0 0-4.788-1.968zM274.175 17.661a7.287 7.287 0 0 0-2.06-4.328 7.162 7.162 0 0 0-8.933-1.022 7.251 7.251 0 0 0-2.97 3.752 4.787 4.787 0 0 0-3.207 1.619 4.863 4.863 0 0 0-1.201 3.406c.051 1.249.58 2.43 1.475 3.295a4.783 4.783 0 0 0 3.328 1.347h13.611a3.989 3.989 0 0 0 2.825-1.197 4.057 4.057 0 0 0-.031-5.706 3.987 3.987 0 0 0-2.837-1.166zM351.066 18.684a10.02 10.02 0 0 0-2.833-5.95 9.849 9.849 0 0 0-12.283-1.405 9.973 9.973 0 0 0-4.084 5.158c-1.7.14-3.28.938-4.41 2.226a6.693 6.693 0 0 0 .377 9.213 6.582 6.582 0 0 0 4.577 1.852h18.715a5.485 5.485 0 0 0 3.884-1.646 5.572 5.572 0 0 0 1.591-3.93 5.573 5.573 0 0 0-1.633-3.915 5.485 5.485 0 0 0-3.901-1.603zM324.564 31.013a5.617 5.617 0 0 0-1.588-3.336 5.522 5.522 0 0 0-6.886-.788 5.592 5.592 0 0 0-2.289 2.892 3.692 3.692 0 0 0-2.472 1.248 3.748 3.748 0 0 0 .211 5.165 3.688 3.688 0 0 0 2.566 1.038h10.491a3.072 3.072 0 0 0 2.177-.922 3.123 3.123 0 0 0-.023-4.398 3.074 3.074 0 0 0-2.187-.9zM124.937 35.15a8.059 8.059 0 0 0-2.28-4.789 7.924 7.924 0 0 0-9.886-1.131 8.022 8.022 0 0 0-3.288 4.153 5.301 5.301 0 0 0-3.549 1.79 5.379 5.379 0 0 0-1.329 3.77 5.373 5.373 0 0 0 1.632 3.647 5.295 5.295 0 0 0 3.684 1.491h15.064a4.413 4.413 0 0 0 3.126-1.325 4.487 4.487 0 0 0-.034-6.314 4.412 4.412 0 0 0-3.14-1.291zM55.64 30.028a13.337 13.337 0 0 0-3.772-7.922 13.152 13.152 0 0 0-7.851-3.821 13.11 13.11 0 0 0-8.502 1.95 13.277 13.277 0 0 0-5.438 6.869 8.77 8.77 0 0 0-5.871 2.963 8.905 8.905 0 0 0-2.198 6.235 8.893 8.893 0 0 0 2.7 6.032A8.758 8.758 0 0 0 30.8 44.8H55.72a7.301 7.301 0 0 0 5.17-2.191 7.416 7.416 0 0 0 2.12-5.235 7.415 7.415 0 0 0-2.175-5.21 7.3 7.3 0 0 0-5.194-2.136z" fill="#FAFCFE"/><defs><linearGradient id="a" x1="168.965" y1="164.447" x2="168.965" y2="149.684" gradientUnits="userSpaceOnUse"><stop offset=".087" stop-color="#173C78"/><stop offset=".487" stop-color="#213D78"/></linearGradient><linearGradient id="b" x1="185.522" y1="164.447" x2="185.522" y2="149.684" gradientUnits="userSpaceOnUse"><stop offset=".087" stop-color="#173C78"/><stop offset=".487" stop-color="#213D78"/></linearGradient><linearGradient id="c" x1="127.149" y1="154.014" x2="127.149" y2="126.723" gradientUnits="userSpaceOnUse"><stop offset=".087" stop-color="#173C78"/><stop offset=".487" stop-color="#213D78"/></linearGradient><linearGradient id="d" x1="96.539" y1="154.014" x2="96.539" y2="126.723" gradientUnits="userSpaceOnUse"><stop offset=".087" stop-color="#173C78"/><stop offset=".487" stop-color="#213D78"/></linearGradient></defs></svg>