<svg width="150" height="150" fill="none" xmlns="http://www.w3.org/2000/svg"><g clip-path="url(#a)"><path d="M150 20.432c0-11.02-8.914-19.963-19.934-20l-110-.365C8.995.03 0 8.995 0 20.067V130c0 11.046 8.954 20 20 20h110c11.046 0 20-8.954 20-20V20.432z" fill="#4E91E4" fill-opacity=".1"/><path d="M146 142H4l1.024 1.17A20.001 20.001 0 0 0 20.075 150H130a20 20 0 0 0 16-8z" fill="#1C2229"/><path fill="#654321" d="M124 103h3v40h-3z"/><path d="m121.184 102.424.906-.424 2.094 4.5v2.5l-3-6.576zM130.887 99l.933.36-4.792 12.694v-3L130.887 99z" fill="#654321"/><path d="M142.714 87.25c0 1.554.339 2.812 0 4.25-.289 1.222-.802 1.393-1.307 2.5-.617 1.356-.887 3.865-1.784 5-1.015 1.284-3.194.57-4.5 1.5-1.23.875-1.573 2.505-3 3-1.578.546-3.757 1.5-5.5 1.5-1.743 0-3.423-1.454-5-2-1.428-.495-3.271.875-4.5 0-1.307-.929-1.485-3.716-2.5-5-.898-1.135-2.383-1.144-3-2.5-.505-1.107.5-3-.981-4-1.019-1-.519-2.946-.519-4.5 0-1.375-.268-1.714 0-3 .291-1.403.427-4.743 1-6 .617-1.356 2.602-1.615 3.5-2.75 1.015-1.284 1.193-2.82 2.5-3.75 1.229-.875 3.072-.505 4.5-1 1.577-.546 3.257-1.5 5-1.5 1.743 0 3.422.954 5 1.5 1.427.495 2.77-.375 4 .5 1.306.93 3.485 2.216 4.5 3.5.897 1.135-.118 3.144.5 4.5.572 1.257 1.799 2.597 2.091 4 .267 1.286 0 2.875 0 4.25z" fill="#3B8535"/><path d="M142.98 87.743c0 1.51.32 2.734 0 4.132-.272 1.188-.756 1.355-1.232 2.43-.582 1.319-.837 3.758-1.683 4.862-.958 1.248-3.013.555-4.245 1.458-1.16.85-1.484 2.436-2.83 2.917-1.488.531-3.544 1.458-5.188 1.458-1.644 0-3.229-1.413-4.716-1.944-1.347-.481-3.085.85-4.245 0-1.232-.904-1.401-3.613-2.358-4.862-.847-1.103-2.247-1.112-2.83-2.43-.476-1.076.472-2.917-.925-3.889-.961-.972-.49-2.864-.49-4.375 0-1.337-.252-1.666 0-2.917.275-1.363.403-4.61.943-5.833.583-1.318 2.455-1.57 3.302-2.674.957-1.248 1.126-2.742 2.358-3.645 1.16-.85 2.898-.492 4.245-.973 1.487-.53 3.072-1.458 4.716-1.458 1.644 0 3.229.927 4.716 1.458 1.347.481 2.614-.364 3.773.486 1.233.904 3.288 2.155 4.245 3.403.847 1.104-.111 3.057.472 4.375.54 1.222 1.697 2.526 1.972 3.89.253 1.25 0 2.794 0 4.131z" fill="#4DA046"/><path fill="#654321" d="M67 124h2v18h-2z"/><path d="m70 122.5 1 3.5-2.5 2.5L65 126m0 0 2-2.5m-2 2.5v-5" stroke="#654321" stroke-width=".8" stroke-linecap="round" stroke-linejoin="round"/><path d="M72.013 111c0 1.21-.379 2.884-.5 4-.137 1.247.766 3.423.5 4.5-.331 1.336-1.508.521-2 1.5-.945 1.876.297 4-1.013 4-1.31 0-3.543-.624-4.487-2.5-.494-.979-2.17-1.664-2.5-3-.267-1.077.432-1.753.296-3-.122-1.116-.61-2.29-.61-3.5 0-1.211-.808-3.384-.686-4.5.157-1.443 1.67-2.791 2-4 .413-1.518-.124-3.502.5-4.5.862-1.38 4.38-4 5.487-4 1.107 0 .65 1.12 1.513 2.5.587.94 1.096 2.595 1.5 4 .366 1.276.83 3.451 1 5 .121 1.116-1 2.289-1 3.5z" fill="#3B8535"/><path d="M74.825 111c0 1.21-.44 2.884-.583 4-.158 1.247.893 3.423.583 4.5-.386 1.336-1.755.521-2.33 1.5-1.1 1.876-1.968 4-3.493 4s-1.811-.624-2.911-2.5c-.575-.979-2.527-1.664-2.912-3-.31-1.077.503-1.753.345-3-.142-1.116-.71-2.29-.71-3.5s-.941-3.384-.8-4.5c.184-1.443 1.945-2.791 2.33-4 .482-1.518-.144-3.502.582-4.5 1.005-1.38 2.787-4 4.076-4 1.289 0 3.071 1.12 4.076 2.5.684.94 1.277 2.595 1.747 4 .426 1.276.968 3.451 1.164 5 .142 1.116-1.164 2.29-1.164 3.5z" fill="#4DA046"/><path fill="#654321" d="M8.123 113h3v29h-3z"/><path d="M5.184 113.424 6.09 113l2.094 4.5v2.5l-3-6.576zM14.981 109.946l.933.36L11.123 123v-3l3.858-10.054z" fill="#654321"/><path d="M26.714 98.25c0 1.554.339 2.812 0 4.25-.288 1.222-.802 1.393-1.307 2.5-.617 1.356-.887 3.865-1.784 5-1.015 1.284-3.194.571-4.5 1.5-1.23.875-1.573 2.505-3 3-1.578.546-3.757 1.5-5.5 1.5-1.743 0-3.423-1.454-5-2-1.428-.495-3.27.875-4.5 0-1.307-.929-1.485-3.716-2.5-5-.898-1.135-2.383-1.144-3-2.5-.505-1.107.5-3-.98-4-1.02-1-.52-2.946-.52-4.5 0-1.375-.268-1.714 0-3 .291-1.403.427-4.743 1-6 .617-1.356 2.602-1.615 3.5-2.75 1.015-1.284 1.193-2.82 2.5-3.75 1.23-.875 3.072-.505 4.5-1 1.577-.546 3.257-1.5 5-1.5 1.743 0 3.422.954 5 1.5 1.427.495 2.77-.375 4 .5 1.306.93 3.485 2.216 4.5 3.5.897 1.135-.118 3.144.5 4.5.572 1.257 1.799 2.597 2.09 4 .268 1.286 0 2.875 0 4.25z" fill="#3B8535"/><path d="M26.98 98.743c0 1.511.32 2.734 0 4.132-.272 1.188-.756 1.354-1.232 2.431-.582 1.318-.837 3.757-1.684 4.861-.957 1.248-3.012.554-4.244 1.458-1.16.85-1.484 2.436-2.83 2.917-1.488.531-3.544 1.458-5.188 1.458-1.644 0-3.229-1.413-4.716-1.944-1.347-.481-3.085.85-4.245 0-1.232-.904-1.4-3.613-2.358-4.862-.847-1.103-2.247-1.112-2.83-2.43-.476-1.076.472-2.917-.925-3.889-.961-.972-.49-2.864-.49-4.375 0-1.337-.252-1.666 0-2.917.275-1.363.403-4.61.943-5.833.583-1.318 2.455-1.57 3.302-2.674.957-1.248 1.126-2.742 2.358-3.645 1.16-.85 2.898-.492 4.245-.973C8.573 81.928 10.158 81 11.802 81c1.644 0 3.229.927 4.716 1.458 1.347.481 2.614-.364 3.773.486 1.233.904 3.288 2.155 4.245 3.403.847 1.104-.11 3.057.472 4.375.54 1.222 1.697 2.526 1.972 3.89.253 1.25 0 2.794 0 4.131z" fill="#4DA046"/><path fill="#C5C9C7" d="M4 134h1v8H4zM9 134h1v8H9zM14 134h1v8h-1zM144 134h1v8h-1zM139 134h1v8h-1zM134 134h1v8h-1zM129 134h1v8h-1zM124 134h1v8h-1zM119 134h1v8h-1zM114 134h1v8h-1zM109 134h1v8h-1zM104 134h1v8h-1zM99 134h1v8h-1zM94 134h1v8h-1zM89 134h1v8h-1zM84 134h1v8h-1zM79 134h1v8h-1zM74 134h1v8h-1zM69 134h1v8h-1z"/><path d="M0 133h150l-.414 2H0v-2z" fill="#C5C9C7"/><path d="M61.234 31.192a5.854 5.854 0 0 1 1.656-3.478 5.754 5.754 0 0 1 7.178-.821 5.828 5.828 0 0 1 2.387 3.015 3.85 3.85 0 0 1 2.577 1.3 3.909 3.909 0 0 1-.22 5.385 3.845 3.845 0 0 1-2.675 1.083H61.199a3.205 3.205 0 0 1-2.269-.962 3.255 3.255 0 0 1-.93-2.298c.005-.86.348-1.682.955-2.287a3.204 3.204 0 0 1 2.28-.937zM124.234 17.192a5.856 5.856 0 0 1 1.656-3.478 5.755 5.755 0 0 1 7.178-.821 5.829 5.829 0 0 1 2.387 3.015 3.85 3.85 0 0 1 2.577 1.3 3.91 3.91 0 0 1-.221 5.385 3.842 3.842 0 0 1-2.674 1.083H124.2a3.205 3.205 0 0 1-2.27-.962 3.254 3.254 0 0 1-.93-2.298c.005-.86.348-1.682.955-2.287a3.202 3.202 0 0 1 2.279-.937zM111.234 52.192a5.856 5.856 0 0 1 1.656-3.478 5.755 5.755 0 0 1 7.178-.821 5.829 5.829 0 0 1 2.387 3.015 3.85 3.85 0 0 1 2.577 1.3 3.91 3.91 0 0 1-.221 5.385 3.842 3.842 0 0 1-2.674 1.083H111.2a3.205 3.205 0 0 1-2.27-.962 3.254 3.254 0 0 1-.93-2.298c.005-.86.348-1.682.955-2.287a3.202 3.202 0 0 1 2.279-.937zM-3.766 23.192a5.854 5.854 0 0 1 1.656-3.478 5.754 5.754 0 0 1 7.178-.821 5.828 5.828 0 0 1 2.387 3.015 3.85 3.85 0 0 1 2.577 1.3 3.909 3.909 0 0 1-.22 5.385 3.845 3.845 0 0 1-2.675 1.083H-3.8a3.205 3.205 0 0 1-2.27-.962A3.255 3.255 0 0 1-7 26.416c.005-.86.348-1.682.955-2.287a3.204 3.204 0 0 1 2.28-.937zM32.234 68.192a5.854 5.854 0 0 1 1.656-3.478 5.754 5.754 0 0 1 7.178-.821 5.828 5.828 0 0 1 2.387 3.015 3.85 3.85 0 0 1 2.577 1.3 3.909 3.909 0 0 1-.22 5.385 3.845 3.845 0 0 1-2.675 1.083H32.199a3.205 3.205 0 0 1-2.269-.962 3.255 3.255 0 0 1-.93-2.298c.005-.86.348-1.682.954-2.287a3.204 3.204 0 0 1 2.28-.937z" fill="#E8F1F6"/><path fill="#1C2229" d="m99.524 93.01 4.4.834-5.773 20.925-4.401-.835zM118.637 93.11l-3.816.724 5.774 20.924 3.816-.723z"/><path fill="#1C2229" d="M94.318 112h29.5v4h-29.5z"/><path d="M101.043 94.742a1 1 0 0 1 .966-.742h14.15a1 1 0 0 1 .967.743l4.251 16a1 1 0 0 1-.967 1.257H97.728a1 1 0 0 1-.966-1.258l4.281-16z" fill="#D7E1F1"/><path d="M97.603 93.525A2.652 2.652 0 0 1 100.004 92h18.045c1.028 0 1.964.594 2.401 1.525l.177.378A.77.77 0 0 1 119.93 95H98.123a.77.77 0 0 1-.697-1.097l.177-.378zM105.143 115.208H115.6v5.777h-10.457v-5.777zM115.946 119.244h18.625v3.132h-18.625z" fill="#1B4589"/><path fill="#1B4589" d="M115.136 120.027h18.625v3.132h-18.625z"/><path fill="#1B4589" d="M114.326 120.81h18.625v3.132h-18.625z"/><path fill="#1B4589" d="M114.326 121.593h17.815v3.132h-17.815z"/><path fill="#1B4589" d="M114.326 122.376h17.005v3.132h-17.005z"/><path fill="#1B4589" d="M114.326 123.159h16.195v3.132h-16.195z"/><path fill="#1B4589" d="M114.326 123.941h15.386v3.132h-15.386z"/><path fill="#1B4589" d="M114.326 124.724h14.576v3.132h-14.576z"/><path fill="#1B4589" d="M114.326 125.507h12.956v3.132h-12.956z"/><path fill="#1B4589" d="M103.799 127.073h22.674v3.132h-22.674z"/><path fill="#1B4589" d="M102.179 127.856h22.674v3.132h-22.674z"/><path d="M101.397 128.639h21.031v3.131h-21.055l.024-3.131z" fill="#1B4589"/><path d="M96.99 131.096h21.864v1.363c0 .977-.792 1.768-1.768 1.768H96.18l.81-3.131z" fill="#1B4589"/><path d="M88.71 133.984h30.772l-.147 2.889H87.216l1.494-2.889zM105.419 121.593h8.098v4.697h-8.098z" fill="#1B4589"/><path d="M90.59 136.872c7.083 0 17.641-2.014 14.222-10.297 0-2.687 4.187-9.611 3.156-11.439-1.052-1.578 3.151-1.372-16.27-1.372h-.761c-8.995.004-10.376 8.955-7.499 17.477l.05.151.166.423c.603 1.559 1.309 3.079 2.484 4.268 1.033.831 1.249.789 4.452.789zM128.41 136.81c-7.083 0-17.641-2.014-14.222-10.298 0-2.686-4.187-9.61-3.156-11.439 1.052-1.577-3.151-1.372 16.27-1.372h.761c8.995.004 10.376 8.956 7.499 17.478l-.051.15-.165.423c-.603 1.56-1.309 3.079-2.484 4.269-1.033.83-1.249.789-4.452.789z" fill="#1B4589"/><path fill="#1B4589" d="M103.649 113.764H115.6v1.444h-11.951zM101.37 119.244h15.386v11.743H101.37z"/><path d="M91.643 124a5 5 0 0 1 5-5h24.767a5 5 0 0 1 5 5v13H91.643v-13z" fill="#2051A1"/><path d="M122.399 130.205h4.048l2.835-1.566-.203.224a8.84 8.84 0 0 1-6.553 2.907h-.127v-1.565z" fill="#1B4589"/><rect x="-.663" y=".663" width="21.083" height="20.339" rx="10.169" transform="matrix(-1 0 0 1 100.575 123.668)" fill="#8A929E" stroke="#252C34" stroke-width="1.326"/><ellipse rx="2.241" ry="2.166" transform="matrix(-1 0 0 1 90.697 134.501)" fill="#252C34"/><rect x="-.663" y=".663" width="21.083" height="20.339" rx="10.169" transform="matrix(-1 0 0 1 135.904 123)" fill="#8A929E" stroke="#252C34" stroke-width="1.326"/><ellipse rx="2.241" ry="2.166" transform="matrix(-1 0 0 1 126.025 133.832)" fill="#252C34"/><path d="M31.14 111.448a1 1 0 0 1 1.72 0L51 142H13l18.14-30.552z" fill="#353535"/><path d="M58.659 123.308a1 1 0 0 1 1.682 0L73 143H46l12.659-19.692z" fill="#353535"/><path d="M46.685 128.147a1 1 0 0 1 1.63 0L61 146H34l12.685-17.853z" fill="#424141"/><circle cx="32.5" cy="118.5" r=".5" fill="#DDD" fill-opacity=".25"/><circle cx="27.5" cy="125.5" r=".5" fill="#DDD" fill-opacity=".25"/><circle cx="38.5" cy="132.5" r=".5" fill="#DDD" fill-opacity=".25"/><circle cx="21.5" cy="138.5" r=".5" fill="#DDD" fill-opacity=".25"/><circle cx="29.5" cy="132.5" r=".5" fill="#DDD" fill-opacity=".25"/><circle cx="34.5" cy="140.5" r=".5" fill="#DDD" fill-opacity=".25"/><circle cx="46.5" cy="133.5" r=".5" fill="#DDD" fill-opacity=".25"/><circle cx="42.5" cy="137.5" r=".5" fill="#DDD" fill-opacity=".25"/><circle cx="46.5" cy="139.5" r=".5" fill="#DDD" fill-opacity=".25"/><circle cx="49.5" cy="136.5" r=".5" fill="#DDD" fill-opacity=".25"/><circle cx="54.5" cy="140.5" r=".5" fill="#DDD" fill-opacity=".25"/><circle cx="56.5" cy="133.5" r=".5" fill="#DDD" fill-opacity=".25"/><circle cx="59.5" cy="126.5" r=".5" fill="#DDD" fill-opacity=".25"/><circle cx="62.5" cy="131.5" r=".5" fill="#DDD" fill-opacity=".25"/><circle cx="57.5" cy="129.5" r=".5" fill="#DDD" fill-opacity=".25"/><circle cx="68.5" cy="138.5" r=".5" fill="#DDD" fill-opacity=".25"/><circle cx="61.5" cy="137.5" r=".5" fill="#DDD" fill-opacity=".25"/><circle cx="57.5" cy="138.5" r=".5" fill="#DDD" fill-opacity=".25"/><circle cx="65.5" cy="141.5" r=".5" fill="#DDD" fill-opacity=".25"/></g><defs><clipPath id="a"><rect width="150" height="150" rx="20" transform="matrix(-1 0 0 1 150 0)" fill="#fff"/></clipPath></defs></svg>