<svg width="150" height="150" fill="none" xmlns="http://www.w3.org/2000/svg"><rect width="150" height="150" rx="20" fill="#4E91E4" fill-opacity=".1"/><path d="M3.793 88.3c0 .342.14.652.368.877A2.049 2.049 0 0 0 3 91.035v.767h.553v-.767c0-.826.649-1.5 1.475-1.5v-.554a.683.683 0 0 1-.682-.682h-.553z" fill="#E8F1F6"/><path d="M5.2 90.585h.565a1.235 1.235 0 1 0 0-2.47v.553c.376 0 .682.27.682.645 0 .376-.306.737-.682.737h-.564c-.69 0-1.28.502-1.28 1.166v.586h.554v-.461c0-.483.339-.756.726-.756zM37.69 90.727a.499.499 0 0 0-.001.316l.157.475-.578-.16-.053-.158a.999.999 0 0 1 .389-1.139.496.496 0 0 0 .188-.583l-.168-.459.033-.012.55.152.054.147a.994.994 0 0 1-.378 1.17.499.499 0 0 0-.192.25zM35.204 89.634c.043.1.117.182.211.236l.436.246-.536.27-.146-.082a.999.999 0 0 1-.476-1.105.496.496 0 0 0-.251-.559l-.433-.227.016-.03.51-.258.139.073a.993.993 0 0 1 .504 1.12.498.498 0 0 0 .026.316zM25.205 97.348c.004.023-.013.045-.047.064L25 97.5h.342l.053-.03c.068-.038.101-.083.094-.129-.008-.045-.055-.089-.135-.124-.042-.017-.066-.04-.069-.063-.002-.024.016-.047.053-.066l.162-.084-.016-.004h-.325l-.052.027c-.074.038-.111.084-.106.131.006.047.054.092.137.128.04.017.063.039.067.062zM24.205 97.348c.004.023-.013.045-.047.064L24 97.5h.342l.053-.03c.068-.038.101-.083.094-.129-.008-.045-.055-.089-.135-.124-.042-.017-.066-.04-.069-.063-.002-.024.016-.047.053-.066l.162-.084-.016-.004h-.325l-.052.027c-.074.038-.111.084-.106.131.006.047.054.092.137.128.04.017.063.039.067.062zM23.205 97.348c.004.023-.013.045-.047.064L23 97.5h.342l.053-.03c.068-.038.101-.083.094-.129-.008-.045-.055-.089-.135-.124-.042-.017-.066-.04-.069-.063-.002-.024.016-.047.053-.066l.162-.084-.016-.004h-.325l-.052.027c-.074.038-.111.084-.106.131.006.047.054.092.137.128.04.017.063.039.067.062zM15.205 97.348c.004.023-.013.045-.047.064L15 97.5h.342l.053-.03c.068-.038.101-.083.094-.129-.008-.045-.055-.089-.135-.124-.042-.017-.066-.04-.068-.063-.003-.024.015-.047.052-.066l.162-.084-.016-.004h-.325l-.052.027c-.074.038-.111.084-.106.131.006.047.054.092.137.128.04.017.063.039.067.062zM16.205 97.348c.004.023-.013.045-.047.064L16 97.5h.342l.053-.03c.068-.038.101-.083.094-.129-.008-.045-.055-.089-.135-.124-.042-.017-.066-.04-.069-.063-.002-.024.016-.047.053-.066l.162-.084-.016-.004h-.325l-.052.027c-.074.038-.111.084-.106.131.006.047.054.092.137.128.04.017.063.039.067.062zM18.205 97.348c.004.023-.013.045-.047.064L18 97.5h.342l.053-.03c.068-.038.101-.083.094-.129-.008-.045-.055-.089-.135-.124-.042-.017-.066-.04-.069-.063-.002-.024.016-.047.053-.066l.162-.084-.016-.004h-.325l-.052.027c-.074.038-.111.084-.106.131.006.047.054.092.137.128.04.017.063.039.067.062z" fill="#E8F1F6"/><path d="M49.352 39.672a12.034 12.034 0 0 0-3.403-7.148 11.829 11.829 0 0 0-14.755-1.688 11.98 11.98 0 0 0-4.906 6.197 7.913 7.913 0 0 0-5.298 2.674 8.035 8.035 0 0 0-1.983 5.626 8.025 8.025 0 0 0 2.436 5.442A7.902 7.902 0 0 0 26.941 53h22.482a6.587 6.587 0 0 0 4.665-1.977A6.69 6.69 0 0 0 56 46.3a6.69 6.69 0 0 0-1.962-4.701 6.586 6.586 0 0 0-4.686-1.927zM111.766 21.192a5.856 5.856 0 0 0-1.656-3.478 5.755 5.755 0 0 0-7.178-.821 5.829 5.829 0 0 0-2.387 3.015 3.85 3.85 0 0 0-2.577 1.3 3.909 3.909 0 0 0 .22 5.385 3.845 3.845 0 0 0 2.675 1.083H111.8a3.205 3.205 0 0 0 2.27-.962c.6-.611.935-1.438.93-2.298a3.255 3.255 0 0 0-.955-2.287 3.202 3.202 0 0 0-2.279-.937z" fill="#F9FDFF"/><path d="M106 65a2 2 0 0 1 2-2h41v67c0 11.046-8.954 20-20 20h-23V65zM0 99.296l40.022-.016c1.093 0 1.978.885 1.978 1.977V150H19.767C8.85 150 0 141.15 0 130.233V99.296zM42 123l43 .017V150H42v-27zM85 80a2 2 0 0 1 2-2h19v72H85V80z" fill="#3A6ACB" fill-opacity=".15"/><path d="M4 142h141l-1.574 1.679A20 20 0 0 1 128.835 150H20a20 20 0 0 1-16-8z" fill="#1C2229"/><path fill="#EEF6FF" fill-opacity=".95" d="M106 81h-3v2h3zM106 91h-3v2h3zM101 101h-3v2h3zM101 91h-3v2h3z"/><path fill="#EEF6FF" fill-opacity=".5" d="M106 101h-3v2h3zM101 81h-3v2h3z"/><path fill="#EEF6FF" fill-opacity=".95" d="M96 91h-3v2h3zM96 101h-3v2h3z"/><path fill="#EEF6FF" fill-opacity=".5" d="M91 101h-3v2h3z"/><path fill="#EEF6FF" fill-opacity=".95" d="M96 81h-3v2h3z"/><path fill="#EEF6FF" fill-opacity=".5" d="M91 81h-3v2h3zM91 91h-3v2h3zM106 85h-3v4h3zM106 95h-3v4h3zM101 105h-3v4h3z"/><path fill="#EEF6FF" fill-opacity=".95" d="M101 95h-3v4h3z"/><path fill="#EEF6FF" fill-opacity=".5" d="M106 105h-3v4h3zM101 85h-3v4h3z"/><path fill="#EEF6FF" fill-opacity=".95" d="M96 95h-3v4h3z"/><path fill="#EEF6FF" fill-opacity=".5" d="M96 105h-3v4h3z"/><path fill="#EEF6FF" fill-opacity=".95" d="M91 105h-3v4h3zM91 85h-3v4h3z"/><path fill="#EEF6FF" fill-opacity=".5" d="M91 95h-3v4h3z"/><path fill="#EEF6FF" fill-opacity=".95" d="M96 85h-3v4h3zM106 112h-3v2h3zM106 122h-3v2h3zM101 122h-3v2h3z"/><path fill="#EEF6FF" fill-opacity=".5" d="M101 112h-3v2h3z"/><path fill="#EEF6FF" fill-opacity=".95" d="M96 122h-3v2h3zM96 112h-3v2h3z"/><path fill="#EEF6FF" fill-opacity=".5" d="M91 112h-3v2h3zM91 122h-3v2h3zM106 116h-3v4h3zM106 126h-3v4h3z"/><path fill="#EEF6FF" fill-opacity=".95" d="M101 126h-3v4h3z"/><path fill="#EEF6FF" fill-opacity=".5" d="M101 116h-3v4h3z"/><path fill="#EEF6FF" fill-opacity=".95" d="M96 126h-3v4h3zM91 116h-3v4h3z"/><path fill="#EEF6FF" fill-opacity=".5" d="M91 126h-3v4h3z"/><path fill="#EEF6FF" fill-opacity=".95" d="M96 116h-3v4h3z"/><path fill="#EEF6FF" fill-opacity=".5" d="M67 126h-7v4h7z"/><path fill="#EEF6FF" fill-opacity=".95" d="M57 126h-3v4h3zM85 126h-3v4h3zM51 126h-3v4h3zM79 126h-3v4h3z"/><path fill="#EEF6FF" fill-opacity=".5" d="M45 126h-3v4h3zM73 126h-3v4h3z"/><path fill="#EEF6FF" fill-opacity=".95" d="M2 102h7v2H2zM2 112h7v2H2zM12 122h7v2h-7zM12 112h7v2h-7z"/><path fill="#EEF6FF" fill-opacity=".5" d="M2 122h7v2H2zM12 102h7v2h-7z"/><path fill="#EEF6FF" fill-opacity=".95" d="M22 112h7v2h-7zM22 122h7v2h-7z"/><path fill="#EEF6FF" fill-opacity=".5" d="M32 122h7v2h-7z"/><path fill="#EEF6FF" fill-opacity=".95" d="M22 102h7v2h-7z"/><path fill="#EEF6FF" fill-opacity=".5" d="M32 102h7v2h-7zM32 112h7v2h-7zM2 106h7v4H2zM2 116h7v4H2zM12 126h7v4h-7z"/><path fill="#EEF6FF" fill-opacity=".95" d="M12 116h7v4h-7z"/><path fill="#EEF6FF" fill-opacity=".5" d="M2 126h7v4H2zM12 106h7v4h-7z"/><path fill="#EEF6FF" fill-opacity=".95" d="M22 116h7v4h-7z"/><path fill="#EEF6FF" fill-opacity=".5" d="M22 126h7v4h-7z"/><path fill="#EEF6FF" fill-opacity=".95" d="M32 126h7v4h-7zM32 106h7v4h-7z"/><path fill="#EEF6FF" fill-opacity=".5" d="M32 116h7v4h-7z"/><path fill="#EEF6FF" fill-opacity=".95" d="M22 106h7v4h-7zM119 72h7v2h-7z"/><path fill="#EEF6FF" fill-opacity=".5" d="M109 72h7v2h-7z"/><path fill="#EEF6FF" fill-opacity=".95" d="M129 72h7v2h-7z"/><path fill="#EEF6FF" fill-opacity=".5" d="M139 72h7v2h-7zM109 66h7v4h-7zM119 76h7v4h-7z"/><path fill="#EEF6FF" fill-opacity=".95" d="M119 66h7v4h-7z"/><path fill="#EEF6FF" fill-opacity=".5" d="M109 76h7v4h-7z"/><path fill="#EEF6FF" fill-opacity=".95" d="M129 66h7v4h-7z"/><path fill="#EEF6FF" fill-opacity=".5" d="M129 76h7v4h-7z"/><path fill="#EEF6FF" fill-opacity=".95" d="M139 76h7v4h-7z"/><path fill="#EEF6FF" fill-opacity=".5" d="M139 66h7v4h-7z"/><path fill="#EEF6FF" fill-opacity=".95" d="M146 82h-7v2h7zM146 92h-7v2h7zM136 102h-7v2h7zM136 92h-7v2h7z"/><path fill="#EEF6FF" fill-opacity=".5" d="M146 102h-7v2h7zM136 82h-7v2h7z"/><path fill="#EEF6FF" fill-opacity=".95" d="M126 92h-7v2h7zM126 102h-7v2h7z"/><path fill="#EEF6FF" fill-opacity=".5" d="M116 102h-7v2h7z"/><path fill="#EEF6FF" fill-opacity=".95" d="M126 82h-7v2h7z"/><path fill="#EEF6FF" fill-opacity=".5" d="M116 82h-7v2h7zM116 92h-7v2h7zM146 86h-7v4h7zM146 96h-7v4h7zM136 106h-7v4h7z"/><path fill="#EEF6FF" fill-opacity=".95" d="M136 96h-7v4h7z"/><path fill="#EEF6FF" fill-opacity=".5" d="M146 106h-7v4h7zM136 86h-7v4h7z"/><path fill="#EEF6FF" fill-opacity=".95" d="M126 96h-7v4h7z"/><path fill="#EEF6FF" fill-opacity=".5" d="M126 106h-7v4h7z"/><path fill="#EEF6FF" fill-opacity=".95" d="M116 106h-7v4h7zM116 86h-7v4h7z"/><path fill="#EEF6FF" fill-opacity=".5" d="M116 96h-7v4h7zM126 86h-7v4h7z"/><path fill="#EEF6FF" fill-opacity=".95" d="M146 112h-7v2h7zM146 122h-7v2h7zM136 122h-7v2h7z"/><path fill="#EEF6FF" fill-opacity=".5" d="M136 112h-7v2h7z"/><path fill="#EEF6FF" fill-opacity=".95" d="M126 122h-7v2h7zM126 112h-7v2h7z"/><path fill="#EEF6FF" fill-opacity=".5" d="M116 112h-7v2h7zM116 122h-7v2h7zM146 116h-7v4h7zM146 126h-7v4h7z"/><path fill="#EEF6FF" fill-opacity=".95" d="M136 126h-7v4h7z"/><path fill="#EEF6FF" fill-opacity=".5" d="M136 116h-7v4h7z"/><path fill="#EEF6FF" fill-opacity=".95" d="M126 126h-7v4h7zM116 116h-7v4h7z"/><path fill="#EEF6FF" fill-opacity=".5" d="M116 126h-7v4h7z"/><path fill="#EEF6FF" fill-opacity=".95" d="M126 116h-7v4h7z"/><path fill="#8A929E" fill-opacity=".9" d="M3 94h1v5H3zM38 93h-2v6h2zM4 97h4v2H4zM36 97h-3v2h3zM28 98H12v1h16z"/><path d="M110.792 52.3c0 .342.141.652.369.877A2.05 2.05 0 0 0 110 55.035v.767h.553v-.767c0-.826.649-1.5 1.475-1.5v-.554a.683.683 0 0 1-.683-.682h-.553z" fill="#E8F1F6"/><path d="M112.201 54.585h.564a1.234 1.234 0 1 0 0-2.47v.553c.376 0 .682.27.682.645 0 .376-.306.737-.682.737h-.564c-.69 0-1.279.502-1.279 1.165v.587h.553v-.461c0-.483.339-.756.726-.756z" fill="#E8F1F6"/><path d="M69.217 128.45c0 .837-.316 1.593-.83 2.142 1.551.801 2.613 2.529 2.613 4.536V137h-1.244v-1.872c0-2.016-1.46-3.663-3.318-3.663v-1.35c.846 0 1.534-.747 1.534-1.665h1.245z" fill="#EFEFEF"/><path d="M66.048 134.03h-1.27a2.675 2.675 0 0 1-1.964-.883 3.149 3.149 0 0 1-.814-2.132c0-.8.293-1.567.814-2.132a2.675 2.675 0 0 1 1.965-.883v1.35c-.846 0-1.535.657-1.535 1.575 0 .918.689 1.8 1.535 1.8h1.269c1.551 0 2.878 1.224 2.878 2.844V137h-1.244v-1.125c0-1.179-.763-1.845-1.634-1.845zM10.613 128.323c0 .6-.245 1.142-.645 1.535A3.586 3.586 0 0 1 12 133.11v1.342h-.968v-1.342c0-1.445-1.135-2.626-2.58-2.626v-.968c.658 0 1.193-.535 1.193-1.193h.968z" fill="#EFEFEF"/><path d="M8.148 132.323h-.987a2.163 2.163 0 0 1 0-4.323v.968c-.658 0-1.193.471-1.193 1.129s.535 1.29 1.193 1.29h.987c1.207 0 2.24.878 2.24 2.039v1.026h-.969v-.807c0-.845-.593-1.322-1.27-1.322z" fill="#EFEFEF"/><path d="M144.691 54.727a.497.497 0 0 0-.002.316l.157.475-.579-.16-.052-.158a.997.997 0 0 1 .389-1.139.496.496 0 0 0 .188-.583l-.168-.459.033-.011.55.151.054.147a.998.998 0 0 1-.378 1.17.496.496 0 0 0-.192.25zM142.204 53.634a.5.5 0 0 0 .211.236l.436.247-.536.27-.146-.083a1.003 1.003 0 0 1-.476-1.105.492.492 0 0 0-.251-.559l-.433-.227.016-.03.51-.258.139.073a.992.992 0 0 1 .504 1.12.495.495 0 0 0 .026.316zM132.205 61.348c.004.023-.013.045-.047.064L132 61.5h.342l.053-.03c.068-.038.101-.083.094-.129-.008-.045-.055-.089-.135-.124-.042-.017-.066-.04-.068-.063-.003-.024.015-.047.052-.066l.162-.084-.016-.004h-.325l-.052.027c-.074.038-.111.084-.106.131.006.047.054.092.137.128.04.017.063.039.067.062zM131.205 61.348c.004.023-.013.045-.047.064L131 61.5h.342l.053-.03c.068-.038.101-.083.094-.129-.008-.045-.055-.089-.135-.124-.042-.017-.066-.04-.068-.063-.003-.024.015-.047.052-.066l.162-.084-.016-.004h-.325l-.052.027c-.074.038-.111.084-.106.131.006.047.054.092.137.128.04.017.063.039.067.062zM130.205 61.348c.004.023-.013.045-.047.064L130 61.5h.342l.053-.03c.068-.038.101-.083.094-.129-.008-.045-.055-.089-.135-.124-.042-.017-.066-.04-.068-.063-.003-.024.015-.047.052-.066l.162-.084-.016-.004h-.325l-.052.027c-.074.038-.111.084-.106.131.006.047.054.092.137.128.04.017.063.039.067.062zM122.205 61.348c.004.023-.013.045-.047.064L122 61.5h.342l.053-.03c.068-.038.101-.083.094-.129-.008-.045-.055-.089-.136-.124-.041-.017-.065-.04-.068-.063-.002-.024.016-.047.053-.066l.162-.084-.016-.004h-.325l-.052.027c-.074.038-.112.084-.106.131.006.047.054.092.136.128.041.017.064.039.068.062zM123.205 61.348c.004.023-.013.045-.047.064L123 61.5h.342l.053-.03c.068-.038.101-.083.094-.129-.008-.045-.055-.089-.136-.124-.041-.017-.065-.04-.068-.063-.002-.024.016-.047.053-.066l.162-.084-.016-.004h-.325l-.052.027c-.074.038-.112.084-.106.131.006.047.054.092.136.128.041.017.064.039.068.062zM125.205 61.348c.004.023-.013.045-.047.064L125 61.5h.342l.053-.03c.068-.038.101-.083.094-.129-.008-.045-.055-.089-.136-.124-.041-.017-.065-.04-.068-.063-.002-.024.016-.047.053-.066l.162-.084-.016-.004h-.325l-.052.027c-.074.038-.112.084-.106.131.006.047.054.092.136.128.041.017.064.039.068.062z" fill="#E8F1F6"/><path fill="#8A929E" fill-opacity=".9" d="M110 58h1v5h-1zM145 57h-2v6h2zM111 61h4v2h-4zM143 61h-3v2h3zM135 62h-16v1h16z"/><path fill="#1C2229" d="M47 103h-3v16h3zM29 103h-3v16h3zM46 119H27v3h19z"/><path d="M49.09 102.305A2.127 2.127 0 0 0 47.13 101H25.992c-.857 0-1.63.515-1.962 1.305l-.207.497a1.418 1.418 0 0 0 1.307 1.965h22.86a1.418 1.418 0 0 0 1.308-1.965l-.208-.497z" fill="#1B4589"/><path d="M42.953 111.354a.355.355 0 0 0-.355-.354h-.523a.355.355 0 0 0-.355.354v.902h.879a.355.355 0 0 0 .354-.355v-.547z" fill="#1C2229"/><path d="M42.356 111.628h-.878a.354.354 0 0 0-.355.354v.901h1.233v-1.255z" fill="#1C2229"/><rect width="1.233" height="1.883" rx=".354" transform="matrix(-1 0 0 1 42.356 112.256)" fill="#1C2229"/><rect width="1.141" height="4.516" rx=".354" transform="matrix(-.62247 .78264 .7713 .63647 41.71 112.993)" fill="#1C2229"/><path d="M33.498 109.162h-1.14a.709.709 0 0 0-.71.709v6.825h.617v.628h1.233v-8.162z" fill="#1C2229"/><path fill="#1C2229" d="M35.328 116.696h-1.85v1.883h1.85z"/><path fill="#1C2229" d="M36.56 116.696h-1.849v1.883h1.85z"/><path fill="#444656" d="M37.812 109.79h-2.466v1.256h2.466z"/><path d="m38.148 111.5-.296-1.5L34 113h7l.061-.184a1 1 0 0 0-.948-1.316h-1.965z" fill="#E8C7BE"/><path d="M40.872 117.324h-2.465v1.255h2.465v-1.255z" fill="#1C2229"/><path d="M42.108 118.579a1.236 1.236 0 0 0-1.237-1.255h-1.21l-.019 1.255h2.466z" fill="#1C2229"/><path fill="#1B4589" d="M36.56 113.557h-3.082v3.139h3.082z"/><path d="M40.259 115.167a.355.355 0 0 0-.355-.355h-6.426v1.884h6.78v-1.529z" fill="#1B4589"/><path d="M40.872 116.422a.355.355 0 0 0-.354-.354h-2.111v1.256h2.465v-.902z" fill="#1B4589"/><path d="M37.174 109.162h-3.698v4.395h3.698v-4.395z" fill="#444656"/><path d="M37.177 106.104a.709.709 0 0 0-.71-.709h-2.989v3.767h3.699v-3.058z" fill="#EDBF9F"/><path d="M36.56 105.395h-3.07a.628.628 0 0 0-.628.628h3.698v-.628zM33.478 106.023h-.616v3.767h.616z" fill="#F4E2CC"/><path d="M40.532 121.215h-7.96v4.633h7.96v-4.633zM32.31 124.452H18.131v2.511H32.31z" fill="#1B4589"/><path fill="#1B4589" d="M32.926 125.08H18.749v2.511h14.177z"/><path fill="#1B4589" d="M33.542 125.708H19.365v2.511h14.177z"/><path fill="#1B4589" d="M33.542 126.335h-13.56v2.511h13.56z"/><path fill="#1B4589" d="M33.542 126.963H20.598v2.511h12.944z"/><path fill="#1B4589" d="M33.542 127.591H21.214v2.511h12.328z"/><path fill="#1B4589" d="M33.542 128.219H21.831v2.511h11.711z"/><path fill="#1B4589" d="M33.542 128.847H22.447v2.511h11.095z"/><path fill="#1B4589" d="M33.542 129.475H23.68v2.511h9.862z"/><path fill="#1B4589" d="M41.555 130.73H24.296v2.511h17.26z"/><path fill="#1B4589" d="M42.788 131.358h-17.26v2.511h17.26z"/><path d="M43.383 131.986H27.375v2.511h16.026l-.018-2.511z" fill="#1B4589"/><path d="M46.738 133.956H30.096v1.094c0 .783.635 1.417 1.418 1.417h15.84l-.616-2.511z" fill="#1B4589"/><path d="M53.04 136.273H29.618l.111 2.316h24.448l-1.137-2.316zM40.322 126.335h-6.164v3.767h6.164z" fill="#1B4589"/><path d="M51.61 138.589c-5.392 0-13.428-1.615-10.826-8.258 0-2.155-3.187-7.707-2.402-9.174.8-1.265-2.398-1.1 12.384-1.1h.702c6.865.005 7.836 6.994 5.74 13.531l-.193.606-.135.364c-.452 1.233-.983 2.44-1.882 3.398-.786.666-.95.633-3.389.633zM22.822 138.539c5.391 0 13.428-1.615 10.825-8.258 0-2.155 3.187-7.707 2.402-9.174-.8-1.265 2.399-1.1-12.383-1.1h-.703c-6.864.005-7.835 6.994-5.74 13.531l.194.605.135.365c.452 1.233.983 2.44 1.881 3.398.787.666.95.633 3.39.633z" fill="#1B4589"/><path fill="#1B4589" d="M41.67 120.057h-9.098v1.158h9.097zM43.404 124.452h-11.71v9.417h11.71zM27.398 133.242h-3.082l-2.157-1.256.149.173a6.71 6.71 0 0 0 5.09 2.338v-1.255z"/><path d="M52 125.25 49.5 124h-25l-2.5 1.25v7.5h2.5V134h25v-1.25H52v-7.5z" fill="#2051A2"/><rect x="16.047" y="128.696" width="15.993" height="16.31" rx="7.997" fill="#8A929E" stroke="#252C34" stroke-width="1.063"/><ellipse cx="24.044" cy="136.852" rx="1.706" ry="1.737" fill="#252C34"/><rect x="43.532" y="128.532" width="15.993" height="16.31" rx="7.997" fill="#8A929E" stroke="#252C34" stroke-width="1.063"/><ellipse cx="51.528" cy="136.687" rx="1.706" ry="1.737" fill="#252C34"/><path fill="#1C2229" d="M103.081 101.735h-2.051v15.724h2.051zM81.912 102.418H79.86v15.04h2.05zM101.717 118.143H82.575v2.051h19.142z"/><path d="M83.255 117.459a.684.684 0 0 0-.684-.684h-.684v2.735h1.368v-2.051zM85.309 118.826h-2.051v2.051h.683v.684h1.368v-2.735z" fill="#1C2229"/><path d="m86.014 121.807-4.921-5.714-1.232 1.024v.706l4.786 5.105 1.367-1.121z" fill="#1C2229"/><path fill="#1C2229" d="M81.89 118.143h-.683v.684h.684zM101.717 116.775h-.684v1.367h.684z"/><path d="M105.285 100.247A2.052 2.052 0 0 0 103.398 99H79.525a2.05 2.05 0 0 0-1.886 1.247l-.406.951a1.368 1.368 0 0 0 1.258 1.904h25.942c.98 0 1.642-1.002 1.258-1.904l-.406-.951z" fill="#1B4589"/><path d="M99.666 110.28a.342.342 0 0 0-.342-.341h-.684a.342.342 0 0 0-.341.341v1.026h1.025a.342.342 0 0 0 .342-.342v-.684z" fill="#1C2229"/><path d="M99.003 110.622h-1.025a.342.342 0 0 0-.342.342v1.026h1.367v-1.368z" fill="#1C2229"/><rect width="1.367" height="2.051" rx=".342" transform="matrix(-1 0 0 1 99.003 111.306)" fill="#1C2229"/><rect width="1.251" height="4.972" rx=".342" transform="scale(-1 1) rotate(50.988 -166.696 -47.005)" fill="#1C2229"/><path d="M88.065 107.888h-1.367a.683.683 0 0 0-.684.683v7.52h.684v.684h1.367v-8.887z" fill="#1C2229"/><path fill="#1C2229" d="M90.094 116.092h-2.05v2.051h2.05z"/><path fill="#1C2229" d="M91.462 116.092H89.41v2.051h2.05z"/><path d="M97.612 111.306a.684.684 0 0 0-.684-.684H93.51v.684h4.102z" fill="#E8C7BE"/><path fill="#444656" d="M92.85 108.571h-2.735v1.367h2.735z"/><path d="m93.168 110.622-.318-1.367-4.126 2.735h6.861l1.71-1.368h-4.127z" fill="#E8C7BE"/><path fill="#E8C7BE" d="M92.85 109.255h-1.367v.684h1.367zM92.167 109.939H90.8v1.367h1.367zM97.612 111.306H95.56v.684h2.05v-.684z"/><path fill="#C4C4C4" d="M90.778 109.939h-.684v2.051h.684z"/><path d="M96.244 116.775H93.51v1.368h2.734v-1.368z" fill="#1C2229"/><path d="M97.615 118.143a1.347 1.347 0 0 0-1.346-1.368H94.9l-.02 1.368h2.734z" fill="#1C2229"/><path fill="#1B4589" d="M91.462 112.673h-3.418v3.418h3.418z"/><path d="M95.564 114.382a.342.342 0 0 0-.342-.341h-7.178v2.051h7.52v-1.71z" fill="#1B4589"/><path d="M96.244 115.75a.342.342 0 0 0-.342-.342H93.51v1.367h2.734v-1.025z" fill="#1B4589"/><path d="M92.142 107.888H88.04v4.785h4.102v-4.785z" fill="#444656"/><path d="M93.534 114.382a.342.342 0 0 1-.342.342H90.8v-.683h2.734v.341z" fill="#1B4589"/><path d="M92.145 104.469a.683.683 0 0 0-.683-.683h-3.419v4.102h4.102v-3.419z" fill="#EDBF9F"/><path d="M91.462 103.786h-3.419a.683.683 0 0 0-.683.683h4.102v-.683z" fill="#F4E2CC"/><path fill="#F4E2CC" d="M88.043 104.469h-.684v4.102h.684z"/><path d="M110.604 116.775H102.4a.683.683 0 0 0-.683.684v4.785h8.887v-5.469z" fill="#1B4589"/><path d="M101.717 120.193H85.33l-.705 2.735h17.092v-2.735z" fill="#1B4589"/><path d="m95.006 129.953-9.676-9.76-2.933.34 8.743 9.301a2.734 2.734 0 0 0 3.866.119z" fill="#1B4589"/><path fill="#1B4589" d="M101.717 120.877H85.993v2.735h15.724z"/><path fill="#1B4589" d="M102.4 121.561H86.676v2.735H102.4z"/><path fill="#1B4589" d="M103.084 122.244H87.36v2.735h15.724z"/><path fill="#1B4589" d="M103.084 122.928h-15.04v2.735h15.04z"/><path fill="#1B4589" d="M103.084 123.612H88.727v2.735h14.357z"/><path fill="#1B4589" d="M103.084 124.295H89.411v2.735h13.673z"/><path fill="#1B4589" d="M103.084 124.979H90.095v2.735h12.989z"/><path fill="#1B4589" d="M103.084 125.663H90.778v2.735h12.306z"/><path fill="#1B4589" d="M103.084 126.346H92.146v2.735h10.938z"/><path fill="#1B4589" d="M111.971 127.714H92.829v2.735h19.142z"/><path fill="#1B4589" d="M113.339 128.397H94.197v2.735h19.142z"/><path d="M114 129.081H96.244v2.735h17.775l-.019-2.735zM131.111 133.183h-18.459v1.367c0 .755.612 1.368 1.368 1.368h17.775l-.684-2.735z" fill="#1B4589"/><path d="M138.631 131.816h-25.979v2.734h25.979v-2.734zM110.604 122.928h-6.837v4.102h6.837z" fill="#1B4589"/><path d="M132.161 135.918c-9.205 0-22.927-1.746-18.483-8.924 0-2.328-5.442-8.328-4.102-9.913 1.367-1.367 1.367-1.026 18.8-.684 4.952.097 9.141.684 12.207 1.777 5.291 1.888 3.912 8.313.807 12.994l-.051.088c-.901 1.532-1.918 2.983-3.392 3.978-1.342.72-1.623.684-5.786.684z" fill="#1B4589"/><path fill="#1B4589" d="M112.655 116.092h-9.571v.684h9.571zM114.023 120.877h-12.989v10.255h12.989zM96.269 130.448H92.85l-2.392-1.367.35.4a6.836 6.836 0 0 0 5.145 2.335h.316v-1.368z"/><path d="M110.604 122.928v-.684h-6.836v.684h-.684v4.102h.684v.684h6.836v-.684h.684v-4.102h-.684z" fill="#2051A2"/><path d="M111.993 131.474h.342c.377 0 .683.306.683.684v.341" stroke="#1B4589" stroke-width=".684"/><path d="M91.654 109.05h-.342a.684.684 0 0 0-.683.684v.341" stroke="#444656" stroke-width=".342"/><rect x="-.342" y=".342" width="45.805" height="7.52" rx="3.76" transform="matrix(-1 0 0 1 135.896 135.918)" fill="#8A929E" stroke="#252C34" stroke-width=".684"/><circle r="2.051" transform="matrix(-1 0 0 1 131.794 140.02)" fill="#252C34"/><circle r="2.051" transform="matrix(-1 0 0 1 94.877 140.02)" fill="#252C34"/><path fill="#444656" d="M108.55 131.816h-2.735v4.102h2.735zM84.622 129.765a.684.684 0 0 0-.684-.684h-9.57a.684.684 0 0 0-.684.684v6.153h10.938v-6.153zM90.775 131.132a.684.684 0 0 0-.684-.684h-5.469v4.102h5.47a.683.683 0 0 0 .683-.683v-2.735z"/><path fill="#444656" d="M94.877 132.499h-4.102v1.367h4.102zM96.244 133.183a.684.684 0 0 0-.683-.684h-.684v3.419h1.367v-2.735z"/><path fill="#252C34" d="M88.04 135.918H73v8.204h15.04z"/><path fill="#444656" d="M106.499 135.918h1.367v2.735h-1.367z"/><path d="M98.979 138.652h8.887c0 .755-.612 1.368-1.367 1.368h-7.52v-1.368z" fill="#444656"/><path d="m96.244 135.234 3.419 3.418-.684 1.368-4.102-4.102 1.367-.684z" fill="#444656"/><path d="M112.328 118.181c.088.346.579.343.663-.003l.549-2.25h-1.784l.572 2.253z" fill="#BFCCE2"/><path fill="#444656" d="M106.499 135.918h1.367v2.735h-1.367z"/><path d="M98.979 138.652h8.887c0 .755-.612 1.368-1.367 1.368h-7.52v-1.368z" fill="#444656"/><path d="m96.244 135.234 3.419 3.418-.684 1.368-4.102-4.102 1.367-.684z" fill="#444656"/><path d="M112.328 118.181c.088.346.579.343.663-.003l.549-2.25h-1.784l.572 2.253z" fill="#BFCCE2"/></svg>