<svg width="150" height="150" fill="none" xmlns="http://www.w3.org/2000/svg"><g clip-path="url(#a)"><path d="M150 20.432c0-11.02-8.914-19.963-19.934-20l-110-.365C8.995.03 0 8.995 0 20.067V130c0 11.046 8.954 20 20 20h110c11.046 0 20-8.954 20-20V20.432z" fill="#4E91E4" fill-opacity=".1"/><path d="M91 42a2 2 0 0 1 2-2h26a2 2 0 0 1 2 2v100H91V42zM61 70a2 2 0 0 1 2-2h28v74H61V70zM0 61h28a2 2 0 0 1 2 2v78H0V61z" fill="#C0CCE2"/><path d="M54.552 129.238a.25.25 0 0 0-.476.152l3.273 10.24.476-.152-3.273-10.24z" fill="#654321"/><path d="m58.778 139.173-2.382.762.61 1.905a1 1 0 0 0 1.256.648l.476-.153a1 1 0 0 0 .648-1.257l-.608-1.905z" fill="#C5C9C7"/><path d="M57.139 129.238a.25.25 0 0 1 .476.152l-3.273 10.24-.476-.152 3.273-10.24z" fill="#654321"/><path d="m52.913 139.173 2.382.762-.61 1.905a1 1 0 0 1-1.256.648l-.477-.153a1 1 0 0 1-.648-1.257l.61-1.905z" fill="#C5C9C7"/><path d="M147 144H4v3h143v-3z" fill="#ACA39D"/><path fill="#D0AA72" d="M48 141h99v3H48z"/><path d="M146 147H3v3h143v-3z" fill="#90979D"/><path d="M65.234 24.192a5.854 5.854 0 0 1 1.656-3.478 5.754 5.754 0 0 1 7.178-.821 5.828 5.828 0 0 1 2.387 3.015 3.85 3.85 0 0 1 2.577 1.3 3.909 3.909 0 0 1-.22 5.385 3.845 3.845 0 0 1-2.675 1.083H65.199a3.205 3.205 0 0 1-2.269-.962 3.255 3.255 0 0 1-.93-2.298c.005-.86.348-1.682.955-2.287a3.204 3.204 0 0 1 2.28-.937zM138.234 29.192a5.856 5.856 0 0 1 1.656-3.478 5.755 5.755 0 0 1 7.178-.821 5.829 5.829 0 0 1 2.387 3.015 3.85 3.85 0 0 1 2.577 1.3 3.91 3.91 0 0 1-.221 5.385 3.842 3.842 0 0 1-2.674 1.083H138.2a3.205 3.205 0 0 1-2.27-.962 3.254 3.254 0 0 1-.93-2.298c.005-.86.348-1.682.955-2.287a3.202 3.202 0 0 1 2.279-.937zM35.234 42.192a5.854 5.854 0 0 1 1.656-3.478 5.754 5.754 0 0 1 7.178-.821 5.828 5.828 0 0 1 2.387 3.015 3.85 3.85 0 0 1 2.577 1.3 3.909 3.909 0 0 1-.22 5.385 3.845 3.845 0 0 1-2.675 1.083H35.199a3.205 3.205 0 0 1-2.269-.962 3.255 3.255 0 0 1-.93-2.298c.005-.86.348-1.682.955-2.287a3.204 3.204 0 0 1 2.28-.937zM39.234 95.192a5.854 5.854 0 0 1 1.656-3.478 5.754 5.754 0 0 1 7.178-.821 5.828 5.828 0 0 1 2.387 3.015 3.85 3.85 0 0 1 2.577 1.3 3.909 3.909 0 0 1-.22 5.385 3.845 3.845 0 0 1-2.675 1.083H39.199a3.207 3.207 0 0 1-2.269-.962 3.257 3.257 0 0 1 .025-4.585 3.204 3.204 0 0 1 2.28-.937zM16.234 15.192a5.854 5.854 0 0 1 1.656-3.478 5.754 5.754 0 0 1 7.178-.821 5.828 5.828 0 0 1 2.387 3.015 3.85 3.85 0 0 1 2.577 1.3 3.909 3.909 0 0 1-.22 5.385 3.845 3.845 0 0 1-2.675 1.083H16.199a3.205 3.205 0 0 1-2.269-.962 3.255 3.255 0 0 1-.93-2.298c.005-.86.348-1.682.954-2.287a3.204 3.204 0 0 1 2.28-.937zM131.234 88.192a5.856 5.856 0 0 1 1.656-3.478 5.755 5.755 0 0 1 7.178-.821 5.829 5.829 0 0 1 2.387 3.015 3.85 3.85 0 0 1 2.577 1.3 3.91 3.91 0 0 1-.221 5.385 3.842 3.842 0 0 1-2.674 1.083H131.2a3.205 3.205 0 0 1-2.27-.962 3.254 3.254 0 0 1-.93-2.298c.005-.86.348-1.682.955-2.287a3.202 3.202 0 0 1 2.279-.937z" fill="#E8F1F6"/><path fill="#EEF6FF" fill-opacity=".95" d="M94 113h6v4h-6z"/><path fill="#EEF6FF" fill-opacity=".5" d="M94 127h6v4h-6z"/><path fill="#EEF6FF" fill-opacity=".95" d="M94 120h4v4h-4zM94 134h4v4h-4z"/><path fill="#EEF6FF" fill-opacity=".5" d="M103 113h6v4h-6z"/><path fill="#EEF6FF" fill-opacity=".95" d="M103 127h6v4h-6zM101 120h10v4h-10zM101 134h10v4h-10zM112 113h6v4h-6z"/><path fill="#EEF6FF" fill-opacity=".5" d="M112 127h6v4h-6z"/><path fill="#EEF6FF" fill-opacity=".95" d="M114 120h4v4h-4zM114 134h4v4h-4zM3 64h6v4H3z"/><path fill="#EEF6FF" fill-opacity=".5" d="M3 78h6v4H3z"/><path fill="#EEF6FF" fill-opacity=".95" d="M3 92h6v4H3z"/><path fill="#EEF6FF" fill-opacity=".5" d="M3 106h6v4H3zM3 120h6v4H3zM3 134h6v4H3z"/><path fill="#EEF6FF" fill-opacity=".95" d="M3 71h4v4H3zM3 85h4v4H3z"/><path fill="#EEF6FF" fill-opacity=".5" d="M3 99h4v4H3z"/><path fill="#EEF6FF" fill-opacity=".95" d="M3 113h4v4H3zM3 127h4v4H3z"/><path fill="#EEF6FF" fill-opacity=".5" d="M12 64h6v4h-6z"/><path fill="#EEF6FF" fill-opacity=".95" d="M12 78h6v4h-6z"/><path fill="#EEF6FF" fill-opacity=".5" d="M12 92h6v4h-6z"/><path fill="#EEF6FF" fill-opacity=".95" d="M12 106h6v4h-6z"/><path fill="#EEF6FF" fill-opacity=".5" d="M12 120h6v4h-6zM12 134h6v4h-6z"/><path fill="#EEF6FF" fill-opacity=".95" d="M10 71h10v4H10zM10 85h10v4H10zM10 99h10v4H10zM10 113h10v4H10z"/><path fill="#EEF6FF" fill-opacity=".5" d="M10 127h10v4H10z"/><path fill="#EEF6FF" fill-opacity=".95" d="M21 64h6v4h-6z"/><path fill="#EEF6FF" fill-opacity=".5" d="M21 78h6v4h-6z"/><path fill="#EEF6FF" fill-opacity=".95" d="M21 92h6v4h-6z"/><path fill="#EEF6FF" fill-opacity=".5" d="M21 106h6v4h-6z"/><path fill="#EEF6FF" fill-opacity=".95" d="M21 120h6v4h-6zM21 134h6v4h-6zM23 71h4v4h-4zM23 85h4v4h-4zM23 99h4v4h-4zM23 113h4v4h-4zM23 127h4v4h-4z"/><path d="M118 141.5a.5.5 0 0 1 .5-.5h5a.5.5 0 0 1 .5.5v.5h-6v-.5zM100 141.5a.5.5 0 0 1 .5-.5h5a.5.5 0 0 1 .5.5v.5h-6v-.5zM86 140.5a.5.5 0 0 1 .5-.5h5a.5.5 0 0 1 .5.5v1.5h-6v-1.5zM80 140.5a.5.5 0 0 1 .5-.5h5a.5.5 0 0 1 .5.5v1.5h-6v-1.5zM74 140.5a.5.5 0 0 1 .5-.5h5a.5.5 0 0 1 .5.5v1.5h-6v-1.5zM124 141.5a.5.5 0 0 1 .5-.5h5a.5.5 0 0 1 .5.5v.5h-6v-.5zM106 141.5a.5.5 0 0 1 .5-.5h5a.5.5 0 0 1 .5.5v.5h-6v-.5zM103 139.5a.5.5 0 0 1 .5-.5h5a.5.5 0 0 1 .5.5v.5h-6v-.5zM130 141.5a.5.5 0 0 1 .5-.5h5a.5.5 0 0 1 .5.5v.5h-6v-.5zM129 139.5a.5.5 0 0 1 .5-.5h5a.5.5 0 0 1 .5.5v.5h-6v-.5zM127 137.5a.5.5 0 0 1 .5-.5h5a.5.5 0 0 1 .5.5v.5h-6v-.5zM123 139.5a.5.5 0 0 1 .5-.5h5a.5.5 0 0 1 .5.5v.5h-6v-.5zM119.187 139.564a.5.5 0 0 1 .277-.651l4.636-1.872a.5.5 0 0 1 .651.276l.187.464-5.564 2.246-.187-.463zM25 140.5a.5.5 0 0 1 .5-.5h5a.5.5 0 0 1 .5.5v1.5h-6v-1.5zM15 138.5a.5.5 0 0 1 .5-.5h5a.5.5 0 0 1 .5.5v.5h-6v-.5zM9 138.5a.5.5 0 0 1 .5-.5h5a.5.5 0 0 1 .5.5v.5H9v-.5zM12 136.5a.5.5 0 0 1 .5-.5h5a.5.5 0 0 1 .5.5v.5h-6v-.5z" fill="#8A929E"/><path d="M119.74 138.264a.5.5 0 0 1 .276-.651l2.782-1.123a.5.5 0 0 1 .651.276l.187.464-3.709 1.497-.187-.463zM26 139.5a.5.5 0 0 1 .5-.5h3a.5.5 0 0 1 .5.5v.5h-4v-.5zM16 137.5a.5.5 0 0 1 .5-.5h3a.5.5 0 0 1 .5.5v.5h-4v-.5zM10 137.5a.5.5 0 0 1 .5-.5h3a.5.5 0 0 1 .5.5v.5h-4v-.5zM13 135.5a.5.5 0 0 1 .5-.5h3a.5.5 0 0 1 .5.5v.5h-4v-.5zM124 138.5a.5.5 0 0 1 .5-.5h3a.5.5 0 0 1 .5.5v.5h-4v-.5zM130 138.5a.5.5 0 0 1 .5-.5h3a.5.5 0 0 1 .5.5v.5h-4v-.5zM128 136.5a.5.5 0 0 1 .5-.5h3a.5.5 0 0 1 .5.5v.5h-4v-.5z" fill="#444656"/><path d="M122.791 135.96a.5.5 0 0 1 .458-.539l4.983-.405a.5.5 0 0 1 .539.458l.041.498-5.981.486-.04-.498z" fill="#8A929E"/><path d="M123.707 134.882a.5.5 0 0 1 .458-.539l2.99-.243a.501.501 0 0 1 .539.458l.04.499-3.987.324-.04-.499zM119 140.5a.5.5 0 0 1 .5-.5h3a.5.5 0 0 1 .5.5v.5h-4v-.5zM101 140.5a.5.5 0 0 1 .5-.5h3a.5.5 0 0 1 .5.5v.5h-4v-.5zM125 140.5a.5.5 0 0 1 .5-.5h3a.5.5 0 0 1 .5.5v.5h-4v-.5zM107 140.5a.5.5 0 0 1 .5-.5h3a.5.5 0 0 1 .5.5v.5h-4v-.5zM104 138.5a.5.5 0 0 1 .5-.5h3a.5.5 0 0 1 .5.5v.5h-4v-.5zM131 140.5a.5.5 0 0 1 .5-.5h3a.5.5 0 0 1 .5.5v.5h-4v-.5z" fill="#444656"/><path d="M23 140H7v2h16v-2z" fill="#8A929E"/><path d="M23 139.5a.5.5 0 0 0-.5-.5h-15a.5.5 0 0 0-.5.5v.5h16v-.5z" fill="#444656"/><path fill="#D0AA72" d="M-1 141h49v3H-1z"/><circle cx="34.25" cy="143.25" r=".25" fill="#FFF7EA"/><circle cx="35.25" cy="142.25" r=".25" fill="#FFF7EA"/><circle cx="36.25" cy="143.25" r=".25" fill="#FFF7EA"/><circle cx="43.25" cy="142.25" r=".25" fill="#FFF7EA"/><circle cx="42.25" cy="143.25" r=".25" fill="#FFF7EA"/><circle cx="44.25" cy="143.25" r=".25" fill="#FFF7EA"/><circle cx="46.25" cy="143.25" r=".25" fill="#FFF7EA"/><circle cx="38.25" cy="143.25" r=".25" fill="#FFF7EA"/><circle cx="39.25" cy="142.25" r=".25" fill="#FFF7EA"/><circle cx="37.25" cy="142.25" r=".25" fill="#FFF7EA"/><circle cx="45.25" cy="142.25" r=".25" fill="#FFF7EA"/><circle cx="41.25" cy="142.25" r=".25" fill="#FFF7EA"/><circle cx="47.25" cy="142.25" r=".25" fill="#FFF7EA"/><circle cx="40.25" cy="143.25" r=".25" fill="#FFF7EA"/><path d="M36 140.5a.5.5 0 0 1 .5-.5h5a.5.5 0 0 1 .5.5v1.5h-6v-1.5zM42 140.5a.5.5 0 0 1 .5-.5h5a.5.5 0 0 1 .5.5v1.5h-6v-1.5zM39 138.5a.5.5 0 0 1 .5-.5h5a.5.5 0 0 1 .5.5v1.5h-6v-1.5z" fill="#8A929E"/><circle cx="48.25" cy="143.25" r=".25" fill="#FFF7EA"/><circle cx="49.25" cy="142.25" r=".25" fill="#FFF7EA"/><circle cx="50.25" cy="143.25" r=".25" fill="#FFF7EA"/><circle cx="57.25" cy="142.25" r=".25" fill="#FFF7EA"/><circle cx="56.25" cy="143.25" r=".25" fill="#FFF7EA"/><circle cx="58.25" cy="143.25" r=".25" fill="#FFF7EA"/><circle cx="60.25" cy="143.25" r=".25" fill="#FFF7EA"/><circle cx="52.25" cy="143.25" r=".25" fill="#FFF7EA"/><circle cx="53.25" cy="142.25" r=".25" fill="#FFF7EA"/><circle cx="51.25" cy="142.25" r=".25" fill="#FFF7EA"/><circle cx="59.25" cy="142.25" r=".25" fill="#FFF7EA"/><circle cx="55.25" cy="142.25" r=".25" fill="#FFF7EA"/><circle cx="61.25" cy="142.25" r=".25" fill="#FFF7EA"/><circle cx="54.25" cy="143.25" r=".25" fill="#FFF7EA"/><circle cx="62.25" cy="143.25" r=".25" fill="#FFF7EA"/><circle cx="63.25" cy="142.25" r=".25" fill="#FFF7EA"/><circle cx="64.25" cy="143.25" r=".25" fill="#FFF7EA"/><circle cx="71.25" cy="142.25" r=".25" fill="#FFF7EA"/><circle cx="70.25" cy="143.25" r=".25" fill="#FFF7EA"/><circle cx="72.25" cy="143.25" r=".25" fill="#FFF7EA"/><circle cx="74.25" cy="143.25" r=".25" fill="#FFF7EA"/><circle cx="66.25" cy="143.25" r=".25" fill="#FFF7EA"/><circle cx="67.25" cy="142.25" r=".25" fill="#FFF7EA"/><circle cx="65.25" cy="142.25" r=".25" fill="#FFF7EA"/><circle cx="73.25" cy="142.25" r=".25" fill="#FFF7EA"/><circle cx="69.25" cy="142.25" r=".25" fill="#FFF7EA"/><circle cx="75.25" cy="142.25" r=".25" fill="#FFF7EA"/><circle cx="68.25" cy="143.25" r=".25" fill="#FFF7EA"/><circle cx="76.25" cy="143.25" r=".25" fill="#FFF7EA"/><circle cx="77.25" cy="142.25" r=".25" fill="#FFF7EA"/><circle cx="78.25" cy="143.25" r=".25" fill="#FFF7EA"/><circle cx="85.25" cy="142.25" r=".25" fill="#FFF7EA"/><circle cx="84.25" cy="143.25" r=".25" fill="#FFF7EA"/><circle cx="86.25" cy="143.25" r=".25" fill="#FFF7EA"/><circle cx="88.25" cy="143.25" r=".25" fill="#FFF7EA"/><circle cx="80.25" cy="143.25" r=".25" fill="#FFF7EA"/><circle cx="81.25" cy="142.25" r=".25" fill="#FFF7EA"/><circle cx="79.25" cy="142.25" r=".25" fill="#FFF7EA"/><circle cx="87.25" cy="142.25" r=".25" fill="#FFF7EA"/><circle cx="83.25" cy="142.25" r=".25" fill="#FFF7EA"/><circle cx="89.25" cy="142.25" r=".25" fill="#FFF7EA"/><circle cx="82.25" cy="143.25" r=".25" fill="#FFF7EA"/><circle cx="90.25" cy="143.25" r=".25" fill="#FFF7EA"/><circle cx="91.25" cy="142.25" r=".25" fill="#FFF7EA"/><circle cx="92.25" cy="143.25" r=".25" fill="#FFF7EA"/><circle cx="99.25" cy="142.25" r=".25" fill="#FFF7EA"/><circle cx="98.25" cy="143.25" r=".25" fill="#FFF7EA"/><circle cx="100.25" cy="143.25" r=".25" fill="#FFF7EA"/><circle cx="102.25" cy="143.25" r=".25" fill="#FFF7EA"/><circle cx="94.25" cy="143.25" r=".25" fill="#FFF7EA"/><circle cx="95.25" cy="142.25" r=".25" fill="#FFF7EA"/><circle cx="93.25" cy="142.25" r=".25" fill="#FFF7EA"/><circle cx="101.25" cy="142.25" r=".25" fill="#FFF7EA"/><circle cx="97.25" cy="142.25" r=".25" fill="#FFF7EA"/><circle cx="103.25" cy="142.25" r=".25" fill="#FFF7EA"/><circle cx="96.25" cy="143.25" r=".25" fill="#FFF7EA"/><circle cx="104.25" cy="143.25" r=".25" fill="#FFF7EA"/><circle cx="105.25" cy="142.25" r=".25" fill="#FFF7EA"/><circle cx="106.25" cy="143.25" r=".25" fill="#FFF7EA"/><circle cx="113.25" cy="142.25" r=".25" fill="#FFF7EA"/><circle cx="112.25" cy="143.25" r=".25" fill="#FFF7EA"/><circle cx="114.25" cy="143.25" r=".25" fill="#FFF7EA"/><circle cx="116.25" cy="143.25" r=".25" fill="#FFF7EA"/><circle cx="108.25" cy="143.25" r=".25" fill="#FFF7EA"/><circle cx="109.25" cy="142.25" r=".25" fill="#FFF7EA"/><circle cx="107.25" cy="142.25" r=".25" fill="#FFF7EA"/><circle cx="115.25" cy="142.25" r=".25" fill="#FFF7EA"/><circle cx="111.25" cy="142.25" r=".25" fill="#FFF7EA"/><circle cx="117.25" cy="142.25" r=".25" fill="#FFF7EA"/><circle cx="110.25" cy="143.25" r=".25" fill="#FFF7EA"/><circle cx="118.25" cy="143.25" r=".25" fill="#FFF7EA"/><circle cx="119.25" cy="142.25" r=".25" fill="#FFF7EA"/><circle cx="120.25" cy="143.25" r=".25" fill="#FFF7EA"/><circle cx="127.25" cy="142.25" r=".25" fill="#FFF7EA"/><circle cx="126.25" cy="143.25" r=".25" fill="#FFF7EA"/><circle cx="128.25" cy="143.25" r=".25" fill="#FFF7EA"/><circle cx="130.25" cy="143.25" r=".25" fill="#FFF7EA"/><circle cx="122.25" cy="143.25" r=".25" fill="#FFF7EA"/><circle cx="123.25" cy="142.25" r=".25" fill="#FFF7EA"/><circle cx="121.25" cy="142.25" r=".25" fill="#FFF7EA"/><circle cx="129.25" cy="142.25" r=".25" fill="#FFF7EA"/><circle cx="125.25" cy="142.25" r=".25" fill="#FFF7EA"/><circle cx="131.25" cy="142.25" r=".25" fill="#FFF7EA"/><circle cx="124.25" cy="143.25" r=".25" fill="#FFF7EA"/><circle cx="132.25" cy="143.25" r=".25" fill="#FFF7EA"/><circle cx="133.25" cy="142.25" r=".25" fill="#FFF7EA"/><circle cx="134.25" cy="143.25" r=".25" fill="#FFF7EA"/><circle cx="141.25" cy="142.25" r=".25" fill="#FFF7EA"/><circle cx="140.25" cy="143.25" r=".25" fill="#FFF7EA"/><circle cx="142.25" cy="143.25" r=".25" fill="#FFF7EA"/><circle cx="144.25" cy="143.25" r=".25" fill="#FFF7EA"/><circle cx="136.25" cy="143.25" r=".25" fill="#FFF7EA"/><circle cx="137.25" cy="142.25" r=".25" fill="#FFF7EA"/><circle cx="135.25" cy="142.25" r=".25" fill="#FFF7EA"/><circle cx="143.25" cy="142.25" r=".25" fill="#FFF7EA"/><circle cx="139.25" cy="142.25" r=".25" fill="#FFF7EA"/><circle cx="145.25" cy="142.25" r=".25" fill="#FFF7EA"/><circle cx="138.25" cy="143.25" r=".25" fill="#FFF7EA"/><circle cx="20.25" cy="143.25" r=".25" fill="#FFF7EA"/><circle cx="21.25" cy="142.25" r=".25" fill="#FFF7EA"/><circle cx="5.25" cy="142.25" r=".25" fill="#FFF7EA"/><circle cx="22.25" cy="143.25" r=".25" fill="#FFF7EA"/><circle cx="29.25" cy="142.25" r=".25" fill="#FFF7EA"/><circle cx="28.25" cy="143.25" r=".25" fill="#FFF7EA"/><circle cx="30.25" cy="143.25" r=".25" fill="#FFF7EA"/><circle cx="32.25" cy="143.25" r=".25" fill="#FFF7EA"/><circle cx="24.25" cy="143.25" r=".25" fill="#FFF7EA"/><circle cx="25.25" cy="142.25" r=".25" fill="#FFF7EA"/><circle cx="23.25" cy="142.25" r=".25" fill="#FFF7EA"/><circle cx="31.25" cy="142.25" r=".25" fill="#FFF7EA"/><circle cx="27.25" cy="142.25" r=".25" fill="#FFF7EA"/><circle cx="33.25" cy="142.25" r=".25" fill="#FFF7EA"/><circle cx="26.25" cy="143.25" r=".25" fill="#FFF7EA"/><circle cx="6.25" cy="143.25" r=".25" fill="#FFF7EA"/><circle cx="7.25" cy="142.25" r=".25" fill="#FFF7EA"/><circle cx="8.25" cy="143.25" r=".25" fill="#FFF7EA"/><circle cx="15.25" cy="142.25" r=".25" fill="#FFF7EA"/><circle cx="14.25" cy="143.25" r=".25" fill="#FFF7EA"/><circle cx="16.25" cy="143.25" r=".25" fill="#FFF7EA"/><circle cx="18.25" cy="143.25" r=".25" fill="#FFF7EA"/><circle cx="10.25" cy="143.25" r=".25" fill="#FFF7EA"/><circle cx="11.25" cy="142.25" r=".25" fill="#FFF7EA"/><circle cx="9.25" cy="142.25" r=".25" fill="#FFF7EA"/><circle cx="17.25" cy="142.25" r=".25" fill="#FFF7EA"/><circle cx="13.25" cy="142.25" r=".25" fill="#FFF7EA"/><circle cx="19.25" cy="142.25" r=".25" fill="#FFF7EA"/><circle cx="12.25" cy="143.25" r=".25" fill="#FFF7EA"/><path fill="#8A929E" fill-opacity=".9" d="M67 65h1v3h-1zM68 67h5v1h-5z"/><path d="M67.594 58.15c0 .279.106.531.277.714-.517.267-.871.843-.871 1.512V61h.415v-.624c0-.672.486-1.221 1.106-1.221v-.45c-.282 0-.512-.249-.512-.555h-.415z" fill="#E8F1F6"/><path d="M68.65 60.01h.424a.891.891 0 0 0 .655-.294 1.05 1.05 0 0 0 .271-.711 1.05 1.05 0 0 0-.271-.71.891.891 0 0 0-.655-.295v.45c.282 0 .511.219.511.525 0 .306-.23.6-.511.6h-.423a.951.951 0 0 0-.96.948V61h.415v-.375c0-.393.254-.615.545-.615z" fill="#E8F1F6"/><path fill="#8A929E" fill-opacity=".9" d="M111 39h-10v1h10z"/><path fill="#929AA5" d="M94 38h4v2h-4zM80 66h4v2h-4zM6 59h4v2H6zM19 59h4v2h-4zM114 38h4v2h-4zM95 37h2v1h-2zM81 65h2v1h-2zM7 58h2v1H7zM20 58h2v1h-2zM115 37h2v1h-2z"/><path d="M95.99 31.2c0 .372.176.708.462.952-.862.356-1.452 1.124-1.452 2.016V35h.691v-.832c0-.896.811-1.628 1.844-1.628v-.6c-.47 0-.853-.332-.853-.74h-.691z" fill="#E8F1F6"/><path d="M97.751 33.68h.705c.41 0 .802-.141 1.092-.392.29-.252.452-.593.452-.948s-.163-.696-.452-.948A1.67 1.67 0 0 0 98.456 31v.6c.47 0 .853.292.853.7s-.383.8-.853.8h-.705c-.862 0-1.599.544-1.599 1.264V35h.691v-.5c0-.524.424-.82.908-.82zM81.99 60.2c0 .372.176.708.462.952-.862.356-1.452 1.124-1.452 2.016V64h.691v-.832c0-.896.811-1.628 1.844-1.628v-.6c-.47 0-.853-.332-.853-.74h-.691z" fill="#E8F1F6"/><path d="M83.751 62.68h.705c.41 0 .802-.141 1.092-.392.29-.252.452-.593.452-.948s-.163-.696-.452-.948A1.67 1.67 0 0 0 84.456 60v.6c.47 0 .853.292.853.7s-.383.8-.853.8h-.705c-.862 0-1.599.544-1.599 1.264V64h.691v-.5c0-.524.424-.82.908-.82zM8.01 50.2c0 .372-.176.708-.462.952C8.41 51.508 9 52.276 9 53.168V54h-.691v-.832c0-.896-.811-1.628-1.844-1.628v-.6c.47 0 .853-.332.853-.74h.691z" fill="#E8F1F6"/><path d="M6.249 52.68h-.705a1.67 1.67 0 0 1-1.092-.392A1.257 1.257 0 0 1 4 51.34c0-.355.163-.696.452-.948A1.67 1.67 0 0 1 5.544 50v.6c-.47 0-.853.292-.853.7s.383.8.853.8h.705c.862 0 1.599.544 1.599 1.264V54h-.691v-.5c0-.524-.424-.82-.908-.82zM20.99 52.2c0 .372.176.708.462.952-.862.356-1.452 1.124-1.452 2.016V56h.691v-.832c0-.896.811-1.628 1.844-1.628v-.6c-.47 0-.853-.332-.853-.74h-.691z" fill="#E8F1F6"/><path d="M22.751 54.68h.705c.41 0 .802-.141 1.092-.392.29-.252.452-.593.452-.948s-.163-.696-.452-.948A1.67 1.67 0 0 0 23.456 52v.6c.47 0 .853.292.853.7s-.383.8-.853.8h-.705c-.862 0-1.599.544-1.599 1.264V56h.691v-.5c0-.524.424-.82.908-.82zM116.009 30.2c0 .372-.175.708-.461.952.862.356 1.452 1.124 1.452 2.016V34h-.691v-.832c0-.896-.811-1.628-1.844-1.628v-.6c.47 0 .853-.332.853-.74h.691z" fill="#E8F1F6"/><path d="M114.249 32.68h-.705c-.41 0-.802-.141-1.092-.392a1.259 1.259 0 0 1-.452-.948c0-.355.163-.696.452-.948.29-.25.682-.392 1.092-.392v.6c-.47 0-.853.292-.853.7s.383.8.853.8h.705c.862 0 1.599.544 1.599 1.264V34h-.691v-.5c0-.524-.424-.82-.908-.82z" fill="#E8F1F6"/><path fill="#EEF6FF" fill-opacity=".95" d="M94 43h6v4h-6z"/><path fill="#EEF6FF" fill-opacity=".5" d="M94 57h6v4h-6z"/><path fill="#EEF6FF" fill-opacity=".95" d="M94 71h6v4h-6z"/><path fill="#EEF6FF" fill-opacity=".5" d="M94 85h6v4h-6zM94 99h6v4h-6z"/><path fill="#EEF6FF" fill-opacity=".95" d="M94 50h4v4h-4zM94 64h4v4h-4z"/><path fill="#EEF6FF" fill-opacity=".5" d="M94 78h4v4h-4z"/><path fill="#EEF6FF" fill-opacity=".95" d="M94 92h4v4h-4zM94 106h4v4h-4z"/><path fill="#EEF6FF" fill-opacity=".5" d="M103 43h6v4h-6z"/><path fill="#EEF6FF" fill-opacity=".95" d="M103 57h6v4h-6z"/><path fill="#EEF6FF" fill-opacity=".5" d="M103 71h6v4h-6z"/><path fill="#EEF6FF" fill-opacity=".95" d="M103 85h6v4h-6z"/><path fill="#EEF6FF" fill-opacity=".5" d="M103 99h6v4h-6z"/><path fill="#EEF6FF" fill-opacity=".95" d="M101 50h10v4h-10zM101 64h10v4h-10zM101 78h10v4h-10zM101 92h10v4h-10z"/><path fill="#EEF6FF" fill-opacity=".5" d="M101 106h10v4h-10z"/><path fill="#EEF6FF" fill-opacity=".95" d="M112 43h6v4h-6z"/><path fill="#EEF6FF" fill-opacity=".5" d="M112 57h6v4h-6z"/><path fill="#EEF6FF" fill-opacity=".95" d="M112 71h6v4h-6z"/><path fill="#EEF6FF" fill-opacity=".5" d="M112 85h6v4h-6z"/><path fill="#EEF6FF" fill-opacity=".95" d="M112 99h6v4h-6zM114 50h4v4h-4zM114 64h4v4h-4zM114 78h4v4h-4zM114 92h4v4h-4zM114 106h4v4h-4zM64 71h6v4h-6z"/><path fill="#EEF6FF" fill-opacity=".5" d="M64 85h6v4h-6z"/><path fill="#EEF6FF" fill-opacity=".95" d="M64 99h6v4h-6z"/><path fill="#EEF6FF" fill-opacity=".5" d="M64 113h6v4h-6zM64 127h6v4h-6z"/><path fill="#EEF6FF" fill-opacity=".95" d="M64 78h4v4h-4zM64 92h4v4h-4z"/><path fill="#EEF6FF" fill-opacity=".5" d="M64 106h4v4h-4z"/><path fill="#EEF6FF" fill-opacity=".95" d="M64 120h4v4h-4zM64 134h4v4h-4z"/><path fill="#EEF6FF" fill-opacity=".5" d="M73 71h6v4h-6z"/><path fill="#EEF6FF" fill-opacity=".95" d="M73 85h6v4h-6z"/><path fill="#EEF6FF" fill-opacity=".5" d="M73 99h6v4h-6z"/><path fill="#EEF6FF" fill-opacity=".95" d="M73 113h6v4h-6z"/><path fill="#EEF6FF" fill-opacity=".5" d="M73 127h6v4h-6z"/><path fill="#EEF6FF" fill-opacity=".95" d="M71 78h10v4H71zM71 92h10v4H71zM71 106h10v4H71zM71 120h10v4H71z"/><path fill="#EEF6FF" fill-opacity=".5" d="M71 134h10v4H71z"/><path fill="#EEF6FF" fill-opacity=".95" d="M82 71h6v4h-6z"/><path fill="#EEF6FF" fill-opacity=".5" d="M82 85h6v4h-6z"/><path fill="#EEF6FF" fill-opacity=".95" d="M82 99h6v4h-6z"/><path fill="#EEF6FF" fill-opacity=".5" d="M82 113h6v4h-6z"/><path fill="#EEF6FF" fill-opacity=".95" d="M82 127h6v4h-6zM84 78h4v4h-4zM84 92h4v4h-4zM84 106h4v4h-4zM84 120h4v4h-4zM84 134h4v4h-4z"/></g><defs><clipPath id="a"><rect width="150" height="150" rx="20" transform="matrix(-1 0 0 1 150 0)" fill="#fff"/></clipPath></defs></svg>