<svg width="150" height="150" fill="none" xmlns="http://www.w3.org/2000/svg"><g clip-path="url(#a)"><path d="M150 20.432c0-11.02-8.914-19.963-19.934-20l-110-.365C8.995.03 0 8.995 0 20.067V130c0 11.046 8.954 20 20 20h110c11.046 0 20-8.954 20-20V20.432z" fill="#4E91E4" fill-opacity=".1"/><path d="M53.139 129.238a.25.25 0 0 1 .476.152l-3.273 10.24-.476-.152 3.273-10.24z" fill="#654321"/><path d="m48.913 139.173 2.382.762-.61 1.905a1 1 0 0 1-1.256.648l-.477-.153a1 1 0 0 1-.648-1.257l.61-1.905z" fill="#C5C9C7"/><path d="M131.552 129.238a.25.25 0 0 0-.476.152l3.273 10.24.476-.152-3.273-10.24z" fill="#654321"/><path d="m135.778 139.173-2.382.762.609 1.905a1 1 0 0 0 1.257.648l.476-.153a.999.999 0 0 0 .648-1.257l-.608-1.905z" fill="#C5C9C7"/><path d="M33 142H4a9.708 9.708 0 0 0 9.556 8H33v-8z" fill="#1C2229"/><path d="M91 43a2 2 0 0 1 2-2h26a2 2 0 0 1 2 2v99H91V43zM61 71a2 2 0 0 1 2-2h28v73H61V71z" fill="#C0CCE2"/><path d="M48 144H33v6h15v-6zM104 144h-9v6h9v-6z" fill="#1C2229" fill-opacity=".9"/><path d="M146 142h-42v8h32.031c4.787 0 8.932-3.326 9.969-8zM95 142H48v8h47v-8z" fill="#1C2229"/><path fill="#EEF6FF" fill-opacity=".95" d="M94 44h6v4h-6z"/><path fill="#EEF6FF" fill-opacity=".5" d="M94 58h6v4h-6z"/><path fill="#EEF6FF" fill-opacity=".95" d="M94 72h6v4h-6z"/><path fill="#EEF6FF" fill-opacity=".5" d="M94 86h6v4h-6zM94 100h6v4h-6z"/><path fill="#EEF6FF" fill-opacity=".95" d="M94 114h6v4h-6zM94 128h6v4h-6zM94 135h6v4h-6zM94 51h4v4h-4zM94 65h4v4h-4z"/><path fill="#EEF6FF" fill-opacity=".5" d="M94 79h4v4h-4z"/><path fill="#EEF6FF" fill-opacity=".95" d="M94 93h4v4h-4zM94 107h4v4h-4zM94 121h4v4h-4z"/><path fill="#EEF6FF" fill-opacity=".5" d="M103 44h6v4h-6z"/><path fill="#EEF6FF" fill-opacity=".95" d="M103 58h6v4h-6z"/><path fill="#EEF6FF" fill-opacity=".5" d="M103 72h6v4h-6z"/><path fill="#EEF6FF" fill-opacity=".95" d="M103 86h6v4h-6z"/><path fill="#EEF6FF" fill-opacity=".5" d="M103 100h6v4h-6z"/><path fill="#EEF6FF" fill-opacity=".95" d="M103 114h6v4h-6zM103 128h6v4h-6z"/><path fill="#EEF6FF" fill-opacity=".5" d="M103 135h6v4h-6z"/><path fill="#EEF6FF" fill-opacity=".95" d="M101 51h10v4h-10zM101 65h10v4h-10zM101 79h10v4h-10zM101 93h10v4h-10z"/><path fill="#EEF6FF" fill-opacity=".5" d="M101 107h10v4h-10zM101 121h10v4h-10z"/><path fill="#EEF6FF" fill-opacity=".95" d="M112 44h6v4h-6z"/><path fill="#EEF6FF" fill-opacity=".5" d="M112 58h6v4h-6z"/><path fill="#EEF6FF" fill-opacity=".95" d="M112 72h6v4h-6z"/><path fill="#EEF6FF" fill-opacity=".5" d="M112 86h6v4h-6z"/><path fill="#EEF6FF" fill-opacity=".95" d="M112 100h6v4h-6z"/><path fill="#EEF6FF" fill-opacity=".5" d="M112 114h6v4h-6zM112 128h6v4h-6z"/><path fill="#EEF6FF" fill-opacity=".95" d="M114 51h4v4h-4zM114 65h4v4h-4zM114 79h4v4h-4zM114 93h4v4h-4zM114 107h4v4h-4zM114 121h4v4h-4z"/><path fill="#654321" d="M128.123 113h3v29h-3z"/><path d="m125.184 113.424.906-.424 2.094 4.5v2.5l-3-6.576zM134.981 109.946l.933.36L131.123 123v-3l3.858-10.054z" fill="#654321"/><path d="M146.714 98.25c0 1.554.339 2.812 0 4.25-.289 1.222-.802 1.393-1.307 2.5-.617 1.356-.887 3.865-1.784 5-1.015 1.284-3.194.571-4.5 1.5-1.23.875-1.573 2.505-3 3-1.578.546-3.757 1.5-5.5 1.5-1.743 0-3.423-1.454-5-2-1.428-.495-3.271.875-4.5 0-1.307-.929-1.485-3.716-2.5-5-.898-1.135-2.383-1.144-3-2.5-.505-1.107.5-3-.981-4-1.019-1-.519-2.946-.519-4.5 0-1.375-.268-1.714 0-3 .291-1.403.427-4.743 1-6 .617-1.356 2.602-1.615 3.5-2.75 1.015-1.284 1.193-2.82 2.5-3.75 1.229-.875 3.072-.505 4.5-1 1.577-.546 3.257-1.5 5-1.5 1.743 0 3.422.954 5 1.5 1.427.495 2.77-.375 4 .5 1.306.93 3.485 2.216 4.5 3.5.897 1.135-.118 3.144.5 4.5.572 1.257 1.799 2.597 2.091 4 .267 1.286 0 2.875 0 4.25z" fill="#3B8535"/><path d="M146.98 98.743c0 1.511.32 2.734 0 4.132-.272 1.188-.756 1.354-1.232 2.431-.582 1.318-.837 3.757-1.683 4.861-.958 1.248-3.013.554-4.245 1.458-1.16.85-1.484 2.436-2.83 2.917-1.488.531-3.544 1.458-5.188 1.458-1.644 0-3.229-1.413-4.716-1.944-1.347-.481-3.085.85-4.245 0-1.232-.904-1.401-3.613-2.358-4.862-.847-1.103-2.247-1.112-2.83-2.43-.476-1.076.472-2.917-.925-3.889-.961-.972-.49-2.864-.49-4.375 0-1.337-.252-1.666 0-2.917.275-1.363.403-4.61.943-5.833.583-1.318 2.455-1.57 3.302-2.674.957-1.248 1.126-2.742 2.358-3.645 1.16-.85 2.898-.492 4.245-.973 1.487-.53 3.072-1.458 4.716-1.458 1.644 0 3.229.927 4.716 1.458 1.347.481 2.614-.364 3.773.486 1.233.904 3.288 2.155 4.245 3.403.847 1.104-.111 3.057.472 4.375.54 1.222 1.697 2.526 1.972 3.89.253 1.25 0 2.794 0 4.131z" fill="#4DA046"/><path d="M65.234 23.192a5.854 5.854 0 0 1 1.656-3.478 5.754 5.754 0 0 1 7.178-.821 5.828 5.828 0 0 1 2.387 3.015 3.85 3.85 0 0 1 2.577 1.3 3.909 3.909 0 0 1-.22 5.385 3.845 3.845 0 0 1-2.675 1.083H65.199a3.205 3.205 0 0 1-2.269-.962 3.255 3.255 0 0 1-.93-2.298c.005-.86.348-1.682.955-2.287a3.204 3.204 0 0 1 2.28-.937zM138.234 29.192a5.856 5.856 0 0 1 1.656-3.478 5.755 5.755 0 0 1 7.178-.821 5.829 5.829 0 0 1 2.387 3.015 3.85 3.85 0 0 1 2.577 1.3 3.91 3.91 0 0 1-.221 5.385 3.842 3.842 0 0 1-2.674 1.083H138.2a3.205 3.205 0 0 1-2.27-.962 3.254 3.254 0 0 1-.93-2.298c.005-.86.348-1.682.955-2.287a3.202 3.202 0 0 1 2.279-.937zM15.234 51.192a5.854 5.854 0 0 1 1.656-3.478 5.754 5.754 0 0 1 7.178-.821 5.828 5.828 0 0 1 2.387 3.015 3.85 3.85 0 0 1 2.577 1.3 3.909 3.909 0 0 1-.22 5.385 3.845 3.845 0 0 1-2.675 1.083H15.199a3.205 3.205 0 0 1-2.269-.962 3.255 3.255 0 0 1-.93-2.298c.005-.86.348-1.682.954-2.287a3.204 3.204 0 0 1 2.28-.937zM25.234 17.192a5.854 5.854 0 0 1 1.656-3.478 5.754 5.754 0 0 1 7.178-.821 5.828 5.828 0 0 1 2.387 3.015 3.85 3.85 0 0 1 2.577 1.3 3.909 3.909 0 0 1-.22 5.385 3.845 3.845 0 0 1-2.675 1.083H25.199a3.205 3.205 0 0 1-2.269-.962 3.255 3.255 0 0 1-.93-2.298c.005-.86.348-1.682.954-2.287a3.204 3.204 0 0 1 2.28-.937zM30.234 88.192a5.854 5.854 0 0 1 1.656-3.478 5.754 5.754 0 0 1 7.178-.821 5.828 5.828 0 0 1 2.387 3.015 3.85 3.85 0 0 1 2.577 1.3 3.909 3.909 0 0 1-.22 5.385 3.845 3.845 0 0 1-2.675 1.083H30.199a3.205 3.205 0 0 1-2.269-.962 3.255 3.255 0 0 1-.93-2.298c.005-.86.348-1.682.954-2.287a3.204 3.204 0 0 1 2.28-.937z" fill="#E8F1F6"/><path d="M107 137.5a.5.5 0 0 1 .5-.5h5a.5.5 0 0 1 .5.5v4.5h-6v-4.5zM113 137.5a.5.5 0 0 1 .5-.5h5a.5.5 0 0 1 .5.5v4.5h-6v-4.5zM119 137.5a.5.5 0 0 1 .5-.5h5a.5.5 0 0 1 .5.5v4.5h-6v-4.5zM116 131.5a.5.5 0 0 1 .5-.5h5a.5.5 0 0 1 .5.5v4.5h-6v-4.5zM110 131.5a.5.5 0 0 1 .5-.5h5a.5.5 0 0 1 .5.5v4.5h-6v-4.5zM113 125.5a.5.5 0 0 1 .5-.5h5a.5.5 0 0 1 .5.5v4.5h-6v-4.5zM25 137.5a.5.5 0 0 1 .5-.5h5a.5.5 0 0 1 .5.5v4.5h-6v-4.5zM25 131.5a.5.5 0 0 1 .5-.5h5a.5.5 0 0 1 .5.5v4.5h-6v-4.5zM14 131.5a.5.5 0 0 1 .5-.5h5a.5.5 0 0 1 .5.5v4.5h-6v-4.5zM8 131.5a.5.5 0 0 1 .5-.5h5a.5.5 0 0 1 .5.5v4.5H8v-4.5zM11 125.5a.5.5 0 0 1 .5-.5h5a.5.5 0 0 1 .5.5v4.5h-6v-4.5z" fill="#8A929E"/><path d="M114 124.5a.5.5 0 0 1 .5-.5h3a.5.5 0 0 1 .5.5v.5h-4v-.5zM26 136.5a.5.5 0 0 1 .5-.5h3a.5.5 0 0 1 .5.5v.5h-4v-.5zM26 130.5a.5.5 0 0 1 .5-.5h3a.5.5 0 0 1 .5.5v.5h-4v-.5zM15 130.5a.5.5 0 0 1 .5-.5h3a.5.5 0 0 1 .5.5v.5h-4v-.5zM9 130.5a.5.5 0 0 1 .5-.5h3a.5.5 0 0 1 .5.5v.5H9v-.5zM12 124.5a.5.5 0 0 1 .5-.5h3a.5.5 0 0 1 .5.5v.5h-4v-.5zM111 130.5a.5.5 0 0 1 .5-.5h3a.5.5 0 0 1 .5.5v.5h-4v-.5zM117 130.5a.5.5 0 0 1 .5-.5h3a.5.5 0 0 1 .5.5v.5h-4v-.5zM108 136.5a.5.5 0 0 1 .5-.5h3a.5.5 0 0 1 .5.5v.5h-4v-.5zM114 136.5a.5.5 0 0 1 .5-.5h3a.5.5 0 0 1 .5.5v.5h-4v-.5zM120 136.5a.5.5 0 0 1 .5-.5h3a.5.5 0 0 1 .5.5v.5h-4v-.5z" fill="#444656"/><path d="M6 137h16v5H6v-5z" fill="#8A929E"/><path d="M6 136.5a.5.5 0 0 1 .5-.5h15a.5.5 0 0 1 .5.5v.5H6v-.5z" fill="#444656"/><path fill="#D0AA72" d="M33 141h15v3H33z"/><circle cx="34.25" cy="143.25" r=".25" fill="#FFF7EA"/><circle cx="35.25" cy="142.25" r=".25" fill="#FFF7EA"/><circle cx="33.25" cy="142.25" r=".25" fill="#FFF7EA"/><circle cx="36.25" cy="143.25" r=".25" fill="#FFF7EA"/><circle cx="43.25" cy="142.25" r=".25" fill="#FFF7EA"/><circle cx="42.25" cy="143.25" r=".25" fill="#FFF7EA"/><circle cx="44.25" cy="143.25" r=".25" fill="#FFF7EA"/><circle cx="46.25" cy="143.25" r=".25" fill="#FFF7EA"/><circle cx="38.25" cy="143.25" r=".25" fill="#FFF7EA"/><circle cx="39.25" cy="142.25" r=".25" fill="#FFF7EA"/><circle cx="37.25" cy="142.25" r=".25" fill="#FFF7EA"/><circle cx="45.25" cy="142.25" r=".25" fill="#FFF7EA"/><circle cx="41.25" cy="142.25" r=".25" fill="#FFF7EA"/><circle cx="47.25" cy="142.25" r=".25" fill="#FFF7EA"/><circle cx="40.25" cy="143.25" r=".25" fill="#FFF7EA"/><path fill="#D0AA72" d="M95 141h9v3h-9z"/><circle cx="99.25" cy="142.25" r=".25" fill="#FFF7EA"/><circle cx="98.25" cy="143.25" r=".25" fill="#FFF7EA"/><circle cx="100.25" cy="143.25" r=".25" fill="#FFF7EA"/><circle cx="102.25" cy="143.25" r=".25" fill="#FFF7EA"/><circle cx="95.25" cy="142.25" r=".25" fill="#FFF7EA"/><circle cx="101.25" cy="142.25" r=".25" fill="#FFF7EA"/><circle cx="97.25" cy="142.25" r=".25" fill="#FFF7EA"/><circle cx="103.25" cy="142.25" r=".25" fill="#FFF7EA"/><circle cx="96.25" cy="143.25" r=".25" fill="#FFF7EA"/><path fill="#EEF6FF" fill-opacity=".95" d="M64 72h6v4h-6z"/><path fill="#EEF6FF" fill-opacity=".5" d="M64 86h6v4h-6z"/><path fill="#EEF6FF" fill-opacity=".95" d="M64 100h6v4h-6z"/><path fill="#EEF6FF" fill-opacity=".5" d="M64 114h6v4h-6zM64 128h6v4h-6z"/><path fill="#EEF6FF" fill-opacity=".95" d="M64 79h4v4h-4zM64 93h4v4h-4z"/><path fill="#EEF6FF" fill-opacity=".5" d="M64 107h4v4h-4z"/><path fill="#EEF6FF" fill-opacity=".95" d="M64 121h4v4h-4zM64 135h4v4h-4z"/><path fill="#EEF6FF" fill-opacity=".5" d="M73 72h6v4h-6z"/><path fill="#EEF6FF" fill-opacity=".95" d="M73 86h6v4h-6z"/><path fill="#EEF6FF" fill-opacity=".5" d="M73 100h6v4h-6z"/><path fill="#EEF6FF" fill-opacity=".95" d="M73 114h6v4h-6z"/><path fill="#EEF6FF" fill-opacity=".5" d="M73 128h6v4h-6z"/><path fill="#EEF6FF" fill-opacity=".95" d="M71 79h10v4H71zM71 93h10v4H71zM71 107h10v4H71zM71 121h10v4H71z"/><path fill="#EEF6FF" fill-opacity=".5" d="M71 135h10v4H71z"/><path fill="#EEF6FF" fill-opacity=".95" d="M82 72h6v4h-6z"/><path fill="#EEF6FF" fill-opacity=".5" d="M82 86h6v4h-6z"/><path fill="#EEF6FF" fill-opacity=".95" d="M82 100h6v4h-6z"/><path fill="#EEF6FF" fill-opacity=".5" d="M82 114h6v4h-6z"/><path fill="#EEF6FF" fill-opacity=".95" d="M82 128h6v4h-6zM84 79h4v4h-4zM84 93h4v4h-4zM84 107h4v4h-4zM84 121h4v4h-4zM84 135h4v4h-4z"/><path fill="#8A929E" fill-opacity=".9" d="M64 66h1v3h-1zM65 68h5v1h-5zM88 68H76v1h12z"/><path d="M64.594 61.15c0 .279.106.531.277.714-.517.267-.871.843-.871 1.512V64h.415v-.624c0-.672.486-1.221 1.106-1.221v-.45c-.282 0-.512-.249-.512-.555h-.415z" fill="#E8F1F6"/><path d="M65.65 63.01h.424a.891.891 0 0 0 .655-.294 1.05 1.05 0 0 0 .271-.711 1.05 1.05 0 0 0-.271-.71.891.891 0 0 0-.655-.295v.45c.282 0 .511.219.511.525 0 .306-.23.6-.511.6h-.423a.951.951 0 0 0-.96.948V64h.415v-.375c0-.393.254-.615.545-.615zM82.205 67.348c.004.023-.013.045-.047.064L82 67.5h.342l.053-.03c.068-.038.101-.083.094-.129-.008-.045-.055-.089-.135-.124-.042-.017-.066-.04-.069-.063-.002-.024.016-.047.053-.066l.162-.084-.016-.004h-.325l-.052.027c-.074.038-.111.084-.106.131.006.047.054.092.137.128.04.017.063.039.067.062zM85.205 67.348c.004.023-.013.045-.047.064L85 67.5h.342l.053-.03c.068-.038.101-.083.094-.129-.008-.045-.055-.089-.135-.124-.042-.017-.066-.04-.069-.063-.002-.024.016-.047.053-.066l.162-.084-.016-.004h-.325l-.052.027c-.074.038-.111.084-.106.131.006.047.054.092.137.128.04.017.063.039.067.062zM84.205 67.348c.004.023-.013.045-.047.064L84 67.5h.342l.053-.03c.068-.038.101-.083.094-.129-.008-.045-.055-.089-.135-.124-.042-.017-.066-.04-.069-.063-.002-.024.016-.047.053-.066l.162-.084-.016-.004h-.325l-.052.027c-.074.038-.111.084-.106.131.006.047.054.092.137.128.04.017.063.039.067.062zM78.205 67.348c.004.023-.013.045-.047.064L78 67.5h.342l.053-.03c.068-.038.101-.083.094-.129-.008-.045-.055-.089-.135-.124-.042-.017-.066-.04-.069-.063-.002-.024.016-.047.053-.066l.162-.084-.016-.004h-.325l-.052.027c-.074.038-.111.084-.106.131.006.047.054.092.137.128.04.017.063.039.067.062zM80.205 67.348c.004.023-.013.045-.047.064L80 67.5h.342l.053-.03c.068-.038.101-.083.094-.129-.008-.045-.055-.089-.135-.124-.042-.017-.066-.04-.069-.063-.002-.024.016-.047.053-.066l.162-.084-.016-.004h-.325l-.052.027c-.074.038-.111.084-.106.131.006.047.054.092.137.128.04.017.063.039.067.062z" fill="#E8F1F6"/><path fill="#8A929E" fill-opacity=".9" d="M111 40h-10v1h10z"/><path fill="#929AA5" d="M94 39h4v2h-4zM114 39h4v2h-4zM95 38h2v1h-2zM115 38h2v1h-2z"/><path d="M95.99 32.2c0 .372.176.708.462.952-.862.356-1.452 1.124-1.452 2.016V36h.691v-.832c0-.896.811-1.628 1.844-1.628v-.6c-.47 0-.853-.332-.853-.74h-.691z" fill="#E8F1F6"/><path d="M97.751 34.68h.705c.41 0 .802-.141 1.092-.392.29-.252.452-.593.452-.948s-.163-.696-.452-.948A1.67 1.67 0 0 0 98.456 32v.6c.47 0 .853.292.853.7s-.383.8-.853.8h-.705c-.862 0-1.599.544-1.599 1.264V36h.691v-.5c0-.524.424-.82.908-.82zM116.009 32.2c0 .372-.175.708-.461.952.862.356 1.452 1.124 1.452 2.016V36h-.691v-.832c0-.896-.811-1.628-1.844-1.628v-.6c.47 0 .853-.332.853-.74h.691z" fill="#E8F1F6"/><path d="M114.249 34.68h-.705c-.41 0-.802-.141-1.092-.392a1.259 1.259 0 0 1-.452-.948c0-.355.163-.696.452-.948.29-.25.682-.392 1.092-.392v.6c-.47 0-.853.292-.853.7s.383.8.853.8h.705c.862 0 1.599.544 1.599 1.264V36h-.691v-.5c0-.524-.424-.82-.908-.82z" fill="#E8F1F6"/></g><defs><clipPath id="a"><rect width="150" height="150" rx="20" transform="matrix(-1 0 0 1 150 0)" fill="#fff"/></clipPath></defs></svg>