<svg width="150" height="150" fill="none" xmlns="http://www.w3.org/2000/svg"><rect width="150" height="150" rx="20" transform="matrix(-1 0 0 1 150 0)" fill="#E5EDFA"/><path d="M145.207 88.3c0 .342-.14.652-.368.877A2.05 2.05 0 0 1 146 91.035v.767h-.553v-.767c0-.826-.649-1.5-1.475-1.5v-.554a.683.683 0 0 0 .682-.682h.553z" fill="#E8F1F6"/><path d="M143.799 90.585h-.564A1.233 1.233 0 0 1 142 89.35a1.234 1.234 0 0 1 1.235-1.235v.553c-.376 0-.682.27-.682.645 0 .376.306.737.682.737h.564c.689 0 1.279.502 1.279 1.166v.586h-.553v-.461c0-.483-.339-.756-.726-.756zM111.309 90.727a.497.497 0 0 1 .002.316l-.157.475.578-.16.053-.158a.997.997 0 0 0-.389-1.139.496.496 0 0 1-.188-.583l.168-.459-.033-.012-.55.152-.054.147a.998.998 0 0 0 .378 1.17c.09.06.157.148.192.25zM113.796 89.634a.5.5 0 0 1-.211.236l-.436.246.536.27.146-.082a1.003 1.003 0 0 0 .476-1.105.492.492 0 0 1 .251-.559l.433-.227-.016-.03-.51-.258-.139.073a.992.992 0 0 0-.504 1.12.495.495 0 0 1-.026.316zM123.795 97.348c-.004.023.013.045.047.064l.158.088h-.342l-.053-.03c-.068-.038-.101-.083-.094-.129.008-.045.055-.089.135-.124.042-.017.066-.04.068-.063.003-.024-.015-.047-.052-.066l-.162-.084.016-.004h.325l.052.027c.074.038.111.084.106.131-.006.047-.054.092-.137.128-.04.017-.063.039-.067.062zM124.795 97.348c-.004.023.013.045.047.064l.158.088h-.342l-.053-.03c-.068-.038-.101-.083-.094-.129.008-.045.055-.089.135-.124.042-.017.066-.04.068-.063.003-.024-.015-.047-.052-.066l-.162-.084.016-.004h.325l.052.027c.074.038.111.084.106.131-.006.047-.054.092-.137.128-.04.017-.063.039-.067.062zM125.795 97.348c-.004.023.013.045.047.064l.158.088h-.342l-.053-.03c-.068-.038-.101-.083-.094-.129.008-.045.055-.089.135-.124.042-.017.066-.04.068-.063.003-.024-.015-.047-.052-.066l-.162-.084.016-.004h.325l.052.027c.074.038.111.084.106.131-.006.047-.054.092-.137.128-.04.017-.063.039-.067.062zM133.795 97.348c-.004.023.013.045.047.064l.158.088h-.342l-.053-.03c-.068-.038-.101-.083-.094-.129.008-.045.055-.089.135-.124.042-.017.066-.04.068-.063.003-.024-.015-.047-.052-.066l-.162-.084.016-.004h.325l.052.027c.074.038.111.084.106.131-.006.047-.054.092-.137.128-.04.017-.063.039-.067.062zM132.795 97.348c-.004.023.013.045.047.064l.158.088h-.342l-.053-.03c-.068-.038-.101-.083-.094-.129.008-.045.055-.089.135-.124.042-.017.066-.04.068-.063.003-.024-.015-.047-.052-.066l-.162-.084.016-.004h.325l.052.027c.074.038.111.084.106.131-.006.047-.054.092-.137.128-.04.017-.063.039-.067.062zM130.795 97.348c-.004.023.013.045.047.064l.158.088h-.342l-.053-.03c-.068-.038-.101-.083-.094-.129.008-.045.055-.089.135-.124.042-.017.066-.04.068-.063.003-.024-.015-.047-.052-.066l-.162-.084.016-.004h.325l.052.027c.074.038.111.084.106.131-.006.047-.054.092-.137.128-.04.017-.063.039-.067.062z" fill="#E8F1F6"/><path d="M108.648 60.672a12.038 12.038 0 0 1 3.403-7.148 11.829 11.829 0 0 1 14.755-1.688 11.979 11.979 0 0 1 4.906 6.197 7.915 7.915 0 0 1 5.298 2.674 8.032 8.032 0 0 1 1.983 5.626 8.022 8.022 0 0 1-2.436 5.442A7.903 7.903 0 0 1 131.059 74h-22.482a6.585 6.585 0 0 1-4.665-1.977A6.69 6.69 0 0 1 102 67.3a6.691 6.691 0 0 1 1.962-4.701 6.588 6.588 0 0 1 4.686-1.927zM68.773 43.057A6.83 6.83 0 0 1 70.705 39a6.713 6.713 0 0 1 8.374-.958 6.799 6.799 0 0 1 2.785 3.517 4.491 4.491 0 0 1 3.006 1.518 4.56 4.56 0 0 1-.257 6.282 4.485 4.485 0 0 1-3.12 1.263h-12.76a3.739 3.739 0 0 1-2.648-1.123A3.797 3.797 0 0 1 65 46.82a3.797 3.797 0 0 1 1.114-2.669 3.738 3.738 0 0 1 2.66-1.093zM112.234 14.192a5.856 5.856 0 0 1 1.656-3.478 5.756 5.756 0 0 1 7.178-.821 5.829 5.829 0 0 1 2.387 3.015 3.85 3.85 0 0 1 2.577 1.3 3.91 3.91 0 0 1-.221 5.385 3.842 3.842 0 0 1-2.674 1.083H112.2a3.205 3.205 0 0 1-2.27-.962 3.254 3.254 0 0 1-.93-2.298c.005-.86.348-1.682.955-2.287a3.202 3.202 0 0 1 2.279-.937zM25.234 20.192a5.854 5.854 0 0 1 1.656-3.478 5.754 5.754 0 0 1 7.178-.821 5.828 5.828 0 0 1 2.387 3.015 3.85 3.85 0 0 1 2.577 1.3 3.909 3.909 0 0 1-.22 5.385 3.845 3.845 0 0 1-2.675 1.083H25.199a3.205 3.205 0 0 1-2.269-.962 3.255 3.255 0 0 1-.93-2.298c.005-.86.348-1.682.954-2.287a3.204 3.204 0 0 1 2.28-.937zM58.234 89.192a5.854 5.854 0 0 1 1.656-3.478 5.754 5.754 0 0 1 7.178-.821 5.828 5.828 0 0 1 2.387 3.015 3.85 3.85 0 0 1 2.577 1.3 3.909 3.909 0 0 1-.22 5.385 3.845 3.845 0 0 1-2.675 1.083H58.199a3.205 3.205 0 0 1-2.269-.962 3.255 3.255 0 0 1-.93-2.298c.005-.86.348-1.682.955-2.287a3.204 3.204 0 0 1 2.28-.937z" fill="#F5FAFD"/><path d="M43 51a2 2 0 0 0-2-2H0v81c0 11.046 8.954 20 20 20h23V51zM150 99H95.977A1.977 1.977 0 0 0 94 100.977V149.982h36.233c10.917 0 19.767-8.85 19.767-19.767V99zM94 122.992H43v26.99h51v-26.99z" fill="#3A6ACB" fill-opacity=".15"/><path d="M4 142h63.5c.667 0 6.5-.5 7.5 0 9 4.5 9 6.5 20 0 2.652-1.567 5.996 2 7 2 1.014 0 4.013-2 5-2h39c-.296.369-.572.736-.839 1.103-3.248 4.473-8.364 6.897-13.892 6.897H20.075a20.001 20.001 0 0 1-15.051-6.83L4 142z" fill="#1C2229"/><path fill="#EEF6FF" fill-opacity=".5" d="M82 126h7v4h-7z"/><path fill="#EEF6FF" fill-opacity=".95" d="M92 126h3v4h-3zM64 126h3v4h-3zM43 126h6v4h-6zM98 126h3v4h-3zM70 126h3v4h-3zM52 126h3v4h-3z"/><path fill="#EEF6FF" fill-opacity=".5" d="M104 126h3v4h-3zM76 126h3v4h-3zM58 126h3v4h-3z"/><path fill="#EEF6FF" fill-opacity=".95" d="M147 102h-7v2h7zM147 112h-7v2h7zM137 122h-7v2h7zM137 112h-7v2h7z"/><path fill="#EEF6FF" fill-opacity=".5" d="M147 122h-7v2h7zM137 102h-7v2h7zM127 112h-7v2h7z"/><path fill="#EEF6FF" fill-opacity=".95" d="M127 122h-7v2h7z"/><path fill="#EEF6FF" fill-opacity=".5" d="M117 122h-7v2h7z"/><path fill="#EEF6FF" fill-opacity=".95" d="M127 102h-7v2h7z"/><path fill="#EEF6FF" fill-opacity=".5" d="M117 102h-7v2h7zM107 102H97v2h10z"/><path fill="#EEF6FF" fill-opacity=".95" d="M107 106H97v4h10z"/><path fill="#EEF6FF" fill-opacity=".5" d="M107 112H97v2h10zM107 116H97v4h10z"/><path fill="#EEF6FF" fill-opacity=".95" d="M107 122H97v2h10z"/><path fill="#EEF6FF" fill-opacity=".5" d="M117 112h-7v2h7zM147 106h-7v4h7zM147 116h-7v4h7zM137 126h-7v4h7z"/><path fill="#EEF6FF" fill-opacity=".95" d="M137 116h-7v4h7z"/><path fill="#EEF6FF" fill-opacity=".5" d="M147 126h-7v4h7zM137 106h-7v4h7z"/><path fill="#EEF6FF" fill-opacity=".95" d="M127 116h-7v4h7z"/><path fill="#EEF6FF" fill-opacity=".5" d="M127 126h-7v4h7z"/><path fill="#EEF6FF" fill-opacity=".95" d="M117 126h-7v4h7zM117 106h-7v4h7z"/><path fill="#EEF6FF" fill-opacity=".5" d="M117 116h-7v4h7z"/><path fill="#EEF6FF" fill-opacity=".95" d="M127 106h-7v4h7zM40 52h-7v2h7zM40 62h-7v2h7zM30 72h-7v2h7zM30 62h-7v2h7z"/><path fill="#EEF6FF" fill-opacity=".5" d="M40 72h-7v2h7zM30 52h-7v2h7z"/><path fill="#EEF6FF" fill-opacity=".95" d="M20 62h-7v2h7zM20 72h-7v2h7z"/><path fill="#EEF6FF" fill-opacity=".5" d="M10 72H3v2h7z"/><path fill="#EEF6FF" fill-opacity=".95" d="M20 52h-7v2h7z"/><path fill="#EEF6FF" fill-opacity=".5" d="M10 52H3v2h7zM10 62H3v2h7zM40 56h-7v4h7zM40 66h-7v4h7zM30 76h-7v4h7z"/><path fill="#EEF6FF" fill-opacity=".95" d="M30 66h-7v4h7z"/><path fill="#EEF6FF" fill-opacity=".5" d="M40 76h-7v4h7zM30 56h-7v4h7z"/><path fill="#EEF6FF" fill-opacity=".95" d="M20 66h-7v4h7z"/><path fill="#EEF6FF" fill-opacity=".5" d="M20 76h-7v4h7z"/><path fill="#EEF6FF" fill-opacity=".95" d="M10 76H3v4h7zM10 56H3v4h7z"/><path fill="#EEF6FF" fill-opacity=".5" d="M10 66H3v4h7zM20 56h-7v4h7z"/><path fill="#EEF6FF" fill-opacity=".95" d="M3 82h7v2H3zM3 92h7v2H3zM13 102h7v2h-7zM13 92h7v2h-7z"/><path fill="#EEF6FF" fill-opacity=".5" d="M3 102h7v2H3zM13 82h7v2h-7z"/><path fill="#EEF6FF" fill-opacity=".95" d="M23 92h7v2h-7zM23 102h7v2h-7z"/><path fill="#EEF6FF" fill-opacity=".5" d="M33 102h7v2h-7z"/><path fill="#EEF6FF" fill-opacity=".95" d="M23 82h7v2h-7z"/><path fill="#EEF6FF" fill-opacity=".5" d="M33 82h7v2h-7zM33 92h7v2h-7zM3 86h7v4H3zM3 96h7v4H3zM13 106h7v4h-7z"/><path fill="#EEF6FF" fill-opacity=".95" d="M13 96h7v4h-7z"/><path fill="#EEF6FF" fill-opacity=".5" d="M3 106h7v4H3zM13 86h7v4h-7z"/><path fill="#EEF6FF" fill-opacity=".95" d="M23 96h7v4h-7z"/><path fill="#EEF6FF" fill-opacity=".5" d="M23 106h7v4h-7z"/><path fill="#EEF6FF" fill-opacity=".95" d="M33 106h7v4h-7zM33 86h7v4h-7z"/><path fill="#EEF6FF" fill-opacity=".5" d="M33 96h7v4h-7zM23 86h7v4h-7z"/><path fill="#EEF6FF" fill-opacity=".95" d="M3 112h7v2H3zM3 122h7v2H3zM13 122h7v2h-7z"/><path fill="#EEF6FF" fill-opacity=".5" d="M13 112h7v2h-7z"/><path fill="#EEF6FF" fill-opacity=".95" d="M23 122h7v2h-7zM23 112h7v2h-7z"/><path fill="#EEF6FF" fill-opacity=".5" d="M33 112h7v2h-7zM33 122h7v2h-7zM3 116h7v4H3zM3 126h7v4H3z"/><path fill="#EEF6FF" fill-opacity=".95" d="M13 126h7v4h-7z"/><path fill="#EEF6FF" fill-opacity=".5" d="M13 116h7v4h-7z"/><path fill="#EEF6FF" fill-opacity=".95" d="M23 126h7v4h-7zM33 116h7v4h-7z"/><path fill="#EEF6FF" fill-opacity=".5" d="M33 126h7v4h-7z"/><path fill="#EEF6FF" fill-opacity=".95" d="M23 116h7v4h-7z"/><path fill="#8A929E" fill-opacity=".9" d="M146 94h-1v5h1zM111 93h2v6h-2zM145 97h-4v2h4zM113 97h3v2h-3zM121 98h16v1h-16zM97 98h10v1H97z"/><path d="M38.208 38.3c0 .342-.14.652-.369.877A2.049 2.049 0 0 1 39 41.035v.767h-.553v-.767c0-.826-.649-1.5-1.474-1.5v-.554a.683.683 0 0 0 .682-.682h.553z" fill="#E8F1F6"/><path d="M36.8 40.585h-.565a1.235 1.235 0 1 1 0-2.47v.553c-.376 0-.682.27-.682.645 0 .376.306.737.682.737h.564c.69 0 1.28.502 1.28 1.165v.587h-.553v-.461c0-.483-.34-.756-.727-.756zM4.31 40.727a.499.499 0 0 1 .001.316l-.157.475.579-.16.052-.158a1 1 0 0 0-.389-1.139.496.496 0 0 1-.188-.583l.168-.459-.033-.011-.55.151-.054.147a.994.994 0 0 0 .378 1.17c.09.06.157.148.192.25zM6.796 39.634a.5.5 0 0 1-.211.236l-.435.247.535.27.146-.083a1 1 0 0 0 .476-1.105.496.496 0 0 1 .251-.559l.433-.227-.016-.03-.51-.258-.138.073a.994.994 0 0 0-.505 1.12.499.499 0 0 1-.026.316zM16.795 47.348c-.004.023.013.045.047.064L17 47.5h-.342l-.053-.03c-.068-.038-.1-.083-.093-.129.007-.045.054-.089.135-.124.041-.017.065-.04.068-.063.003-.024-.016-.047-.053-.066l-.162-.084.016-.004h.326l.052.027c.074.038.11.084.105.131-.006.047-.054.092-.136.128-.04.017-.064.039-.068.062zM17.795 47.348c-.004.023.013.045.047.064L18 47.5h-.342l-.053-.03c-.068-.038-.1-.083-.093-.129.007-.045.054-.089.135-.124.041-.017.065-.04.068-.063.003-.024-.016-.047-.053-.066l-.162-.084.016-.004h.326l.052.027c.074.038.11.084.105.131-.006.047-.054.092-.136.128-.04.017-.064.039-.068.062zM18.795 47.348c-.004.023.013.045.047.064L19 47.5h-.342l-.053-.03c-.068-.038-.1-.083-.093-.129.007-.045.054-.089.135-.124.041-.017.065-.04.068-.063.003-.024-.016-.047-.053-.066l-.162-.084.016-.004h.326l.052.027c.074.038.11.084.105.131-.006.047-.054.092-.136.128-.04.017-.064.039-.068.062zM26.795 47.348c-.004.023.013.045.047.064L27 47.5h-.342l-.053-.03c-.068-.038-.1-.083-.093-.129.007-.045.054-.089.135-.124.041-.017.065-.04.068-.063.003-.024-.016-.047-.053-.066l-.162-.084.016-.004h.326l.052.027c.074.038.11.084.105.131-.006.047-.054.092-.136.128-.04.017-.064.039-.068.062zM25.795 47.348c-.004.023.013.045.047.064L26 47.5h-.342l-.053-.03c-.068-.038-.1-.083-.093-.129.007-.045.054-.089.135-.124.041-.017.065-.04.068-.063.003-.024-.016-.047-.053-.066l-.162-.084.016-.004h.326l.052.027c.074.038.11.084.105.131-.006.047-.054.092-.136.128-.04.017-.064.039-.068.062zM23.795 47.348c-.004.023.013.045.047.064L24 47.5h-.342l-.053-.03c-.068-.038-.1-.083-.093-.129.007-.045.054-.089.135-.124.041-.017.065-.04.068-.063.003-.024-.016-.047-.053-.066l-.162-.084.016-.004h.326l.052.027c.074.038.11.084.105.131-.006.047-.054.092-.136.128-.04.017-.064.039-.068.062z" fill="#E8F1F6"/><path fill="#8A929E" fill-opacity=".9" d="M39 44h-1v5h1zM4 43h2v6H4zM38 47h-4v2h4zM6 47h3v2H6zM14 48h16v1H14z"/><path fill="#252C34" d="M52.128 112.529h-1.59v6.361h1.59zM45.768 115.312h.795v3.578h-.795zM54.315 109.349l-1.193-.795-2.584 3.975h1.59l2.187-3.18z"/><path fill="#252C34" d="M47.358 115.709v-.795h-2.385v.795z"/><path d="M39.603 107.199a5.963 5.963 0 0 0-5.886-5.006h-10.61a1.59 1.59 0 0 0-1.59 1.59v11.926h19.47l-1.384-8.51z" fill="#D7E1F1" fill-opacity=".9" stroke="#1B4589" stroke-width="2.385" stroke-linejoin="round"/><path d="M58.887 119.685a2.783 2.783 0 0 0-2.783-2.783H20.722a.398.398 0 0 0-.398.398v13.517h38.563v-11.132z" fill="#1B4589"/><circle r="14" transform="matrix(-1 0 0 1 22 130)" fill="#252C34"/><circle r="7" transform="matrix(-1 0 0 1 22 130)" fill="#8A929E"/><circle cx="48" cy="124" r="4" fill="#2051A1"/><circle r="8.945" transform="matrix(-1 0 0 1 50.737 134.991)" fill="#252C34"/><circle r="3" transform="matrix(-1 0 0 1 51 135)" fill="#8A929E"/><path fill="#252C34" d="M43.78 130.816H32.25v7.156h11.53zM48.882 122.952a1 1 0 0 0-1.36.391l-.209.378a1 1 0 0 0 .35 1.335l18.976 11.724 1.616-3.101-19.373-10.727z"/><path fill="#C4C4C4" d="M69.62 124.853h-4.77v14.312h4.77z"/><path d="m73 139.96-8.15-.795 3.18 3.976h9.242c.305 0 .416-.403.153-.558L73 139.96zM69.673 125.088a.3.3 0 0 0-.293-.235h-4.23a.3.3 0 0 0-.3.3v14.012l8.15.795-3.327-14.872zM118.15 132.667h1.05V142h-1.05zM131.8 132.667h1.05V142h-1.05z" fill="#252C34"/><path fill="#4E91E4" d="M115 128h21v10.5h-21z"/><path d="m122.35 131.5 3.15 2.333m3.15 2.334-3.15-2.334m0 0 3.15-2.333-6.3 4.667" stroke="#ECF4FE" stroke-linecap="round" stroke-linejoin="round"/><path d="M121.513 129.827h.075v.307h-.178V130h-.327v.134h-.179v-.307h.074a.42.42 0 0 0 .048-.222v-.305h.487v.527zm-.349 0h.171v-.361h-.131v.141a.509.509 0 0 1-.04.22zm.717.187a.26.26 0 0 1-.189-.076.254.254 0 0 1-.078-.188c0-.074.026-.136.078-.187a.26.26 0 0 1 .189-.077c.075 0 .138.026.189.077a.251.251 0 0 1 .078.187.254.254 0 0 1-.078.188.256.256 0 0 1-.189.076zm0-.16c.029 0 .053-.01.072-.029a.102.102 0 0 0 .029-.075.102.102 0 0 0-.029-.075.098.098 0 0 0-.072-.029.098.098 0 0 0-.072.029.101.101 0 0 0-.028.075c0 .031.009.056.028.075a.098.098 0 0 0 .072.029zm.648-.368c.067 0 .122.025.167.076.045.05.068.113.068.188a.276.276 0 0 1-.068.189.215.215 0 0 1-.167.075.176.176 0 0 1-.142-.06v.246h-.166v-.7h.166v.046a.176.176 0 0 1 .142-.06zm-.113.343a.1.1 0 0 0 .076.03.1.1 0 0 0 .076-.03.11.11 0 0 0 .029-.079.11.11 0 0 0-.029-.079.1.1 0 0 0-.076-.03.1.1 0 0 0-.076.03.11.11 0 0 0-.029.079c0 .033.01.059.029.079zm.663.185a.26.26 0 0 1-.189-.076.254.254 0 0 1-.078-.188c0-.074.026-.136.078-.187a.26.26 0 0 1 .189-.077c.075 0 .138.026.189.077a.251.251 0 0 1 .078.187.254.254 0 0 1-.078.188.256.256 0 0 1-.189.076zm0-.16c.029 0 .053-.01.072-.029a.102.102 0 0 0 .029-.075.102.102 0 0 0-.029-.075.098.098 0 0 0-.072-.029.098.098 0 0 0-.072.029.101.101 0 0 0-.028.075c0 .031.009.056.028.075a.098.098 0 0 0 .072.029zm1.026.146h-.183l-.119-.205V130h-.165v-.205l-.119.205h-.183l.156-.25-.146-.25h.183l.109.202v-.202h.165v.202l.109-.202h.183l-.146.25.156.25zm.366-.5h.166v.5h-.166v-.172h-.147V130h-.166v-.5h.166v.172h.147v-.172zm.511.141c.06 0 .107.016.143.049a.167.167 0 0 1 .053.13.173.173 0 0 1-.053.132.204.204 0 0 1-.143.048h-.248v-.5h.166v.141h.082zm.237-.141h.166v.5h-.166v-.5zm-.247.361a.048.048 0 0 0 .032-.011c.008-.007.012-.017.012-.03a.037.037 0 0 0-.012-.029.048.048 0 0 0-.032-.011h-.072v.081h.072zm.656-.05c.016.041.054.061.112.061a.13.13 0 0 0 .091-.035l.12.084a.26.26 0 0 1-.215.093.282.282 0 0 1-.204-.074.253.253 0 0 1-.076-.189.26.26 0 0 1 .266-.265c.074 0 .136.025.185.075.048.05.073.113.073.188a.302.302 0 0 1-.007.062h-.345zm-.002-.115h.192c-.014-.047-.045-.07-.094-.07-.052 0-.084.023-.098.07zm.959-.21c.067 0 .123.025.167.076.046.05.068.113.068.188a.271.271 0 0 1-.068.189.213.213 0 0 1-.167.075.177.177 0 0 1-.142-.06v.246h-.166v-.7h.166v.046a.177.177 0 0 1 .142-.06zm-.113.343c.02.02.045.03.076.03a.1.1 0 0 0 .076-.03.106.106 0 0 0 .029-.079.106.106 0 0 0-.029-.079.1.1 0 0 0-.076-.03.102.102 0 0 0-.076.03.11.11 0 0 0-.029.079c0 .033.01.059.029.079zm.774-.329h.166v.5h-.166v-.046a.177.177 0 0 1-.142.06.217.217 0 0 1-.168-.075.275.275 0 0 1-.067-.189.27.27 0 0 1 .067-.188.214.214 0 0 1 .168-.076c.06 0 .108.02.142.06v-.046zm-.181.329a.1.1 0 0 0 .076.03c.031 0 .056-.01.076-.03a.11.11 0 0 0 .029-.079.11.11 0 0 0-.029-.079.102.102 0 0 0-.076-.03.1.1 0 0 0-.076.03.106.106 0 0 0-.029.079c0 .033.009.059.029.079zm.692.186a.265.265 0 0 1-.199-.076.278.278 0 0 1-.074-.201c0-.084.013-.15.04-.199a.32.32 0 0 1 .145-.125c.075-.037.121-.062.139-.076a.165.165 0 0 0 .045-.061l.136.078a.164.164 0 0 1-.057.089.494.494 0 0 1-.124.066.435.435 0 0 0-.095.047.108.108 0 0 0-.04.048.188.188 0 0 1 .129-.043c.055 0 .105.02.148.06.044.04.066.093.066.159a.22.22 0 0 1-.071.168.263.263 0 0 1-.188.066zm-.071-.17a.1.1 0 0 0 .069.026c.027 0 .05-.008.067-.025a.085.085 0 0 0 .027-.064.081.081 0 0 0-.028-.064.097.097 0 0 0-.069-.026.1.1 0 0 0-.066.024.075.075 0 0 0-.028.063c0 .027.009.049.028.066zm.633.169a.26.26 0 0 1-.189-.076.254.254 0 0 1-.078-.188c0-.074.026-.136.078-.187a.26.26 0 0 1 .189-.077c.075 0 .138.026.189.077a.251.251 0 0 1 .078.187.254.254 0 0 1-.078.188.256.256 0 0 1-.189.076zm0-.16c.03 0 .054-.01.072-.029a.098.098 0 0 0 .029-.075.098.098 0 0 0-.029-.075.095.095 0 0 0-.072-.029.101.101 0 0 0-.072.029.105.105 0 0 0-.028.075c0 .031.01.056.028.075.02.019.044.029.072.029zm.739-.354v.159h-.143V130h-.166v-.341h-.145v-.159h.454zm.303.141a.2.2 0 0 1 .143.049.164.164 0 0 1 .053.13.17.17 0 0 1-.053.132.201.201 0 0 1-.143.048h-.248v-.5h.166v.141h.082zm.237-.141h.166v.5h-.166v-.5zm-.247.361a.046.046 0 0 0 .032-.011c.008-.007.012-.017.012-.03a.037.037 0 0 0-.012-.029.046.046 0 0 0-.032-.011h-.072v.081h.072zm.54-.116-.033-.245v-.2h.204v.2l-.033.245h-.138zm.142.239a.101.101 0 0 1-.074.03.1.1 0 0 1-.073-.03.101.101 0 0 1-.03-.074c0-.029.01-.053.03-.073a.098.098 0 0 1 .073-.031c.029 0 .054.01.074.031a.102.102 0 0 1 0 .147z" fill="#252C34"/></svg>